{"glyphs":{"0":{"ha":985,"x_min":0,"x_max":0,"o":"m 493 -14 b 942 488 733 -14 942 176 b 492 1000 942 794 743 1000 b 44 489 218 1000 44 797 b 493 -14 44 179 247 -14 z m 531 79 b 317 582 397 79 317 336 b 457 903 317 799 371 903 b 668 374 590 903 668 613 b 531 79 668 172 613 79 z "},"1":{"ha":510,"x_min":0,"x_max":0,"o":"m 90 0 l 436 0 b 469 26 456 0 469 10 l 469 32 b 385 165 469 71 385 99 l 385 808 b 415 938 385 888 415 892 b 300 978 415 975 371 1007 l 81 883 b 39 839 53 871 39 858 l 39 832 b 138 718 39 781 138 807 l 138 165 b 57 32 138 99 57 71 l 57 26 b 90 0 57 10 69 0 z "},"2":{"ha":864,"x_min":0,"x_max":0,"o":"m 801 283 l 783 283 b 629 176 740 283 736 176 l 272 176 b 786 726 346 368 786 446 b 417 1000 786 921 632 1000 b 47 754 211 1000 47 890 b 169 638 47 681 101 638 b 413 904 336 638 301 904 b 517 750 467 904 517 847 b 40 51 517 513 40 347 l 40 33 b 78 0 40 14 58 0 l 750 0 b 785 33 769 0 781 15 l 829 250 b 801 283 833 269 821 283 z "},"3":{"ha":829,"x_min":0,"x_max":0,"o":"m 489 590 l 719 864 b 756 932 746 896 756 910 l 756 954 b 719 986 756 972 742 986 l 107 986 b 61 943 78 986 61 971 l 61 817 b 108 771 61 789 81 771 l 494 771 l 322 542 b 358 456 293 503 315 456 l 386 456 b 522 271 472 456 522 383 b 400 82 522 167 474 82 b 143 315 274 82 288 315 b 35 192 74 315 35 265 b 407 -14 35 90 149 -14 b 788 299 636 -14 788 131 b 489 590 788 465 675 583 z "},"4":{"ha":824,"x_min":0,"x_max":0,"o":"m 764 338 l 682 338 l 682 950 b 646 986 682 974 669 986 l 492 986 b 385 925 443 986 413 968 l 25 375 b 1 293 8 349 1 325 l 1 286 b 65 235 1 254 25 235 l 431 235 l 431 153 b 374 32 431 88 374 71 l 374 26 b 407 0 374 10 388 0 l 713 0 b 744 26 732 0 744 10 l 744 32 b 682 153 744 71 682 88 l 682 235 l 764 235 b 793 263 782 235 793 244 l 793 310 b 764 338 793 328 782 338 z m 133 338 l 431 793 l 431 338 z "},"5":{"ha":819,"x_min":0,"x_max":0,"o":"m 443 625 b 207 543 347 625 263 588 l 240 788 l 713 788 b 747 822 735 788 747 800 l 747 951 b 713 986 747 974 735 986 l 178 986 b 140 956 157 986 143 976 l 89 517 b 217 468 82 460 167 426 b 364 528 265 507 308 528 b 525 292 468 528 525 450 b 393 83 525 142 464 83 b 157 311 265 83 286 311 b 36 194 99 311 36 281 b 392 -14 36 71 167 -14 b 783 325 625 -14 783 129 b 443 625 783 524 608 625 z "},"6":{"ha":854,"x_min":0,"x_max":0,"o":"m 479 649 b 308 592 410 649 350 628 b 449 904 322 814 382 904 b 678 663 543 903 501 663 b 799 778 744 663 799 696 b 465 1000 799 899 672 1000 b 44 469 190 1000 44 758 b 440 -14 44 179 215 -14 b 803 313 638 -14 803 110 b 479 649 803 549 636 649 z m 469 82 b 307 432 368 82 317 251 b 410 551 311 501 346 551 b 560 213 513 551 560 343 b 469 82 560 128 525 82 z "},"7":{"ha":753,"x_min":0,"x_max":0,"o":"m 713 986 l 92 986 b 43 943 60 986 47 972 l 15 710 b 50 671 13 686 26 671 l 71 671 b 215 793 133 671 138 793 l 550 793 l 165 61 b 206 0 153 38 167 0 l 360 0 b 421 40 388 0 411 14 l 728 858 b 749 935 739 890 749 925 l 749 954 b 713 986 749 972 735 986 z "},"8":{"ha":857,"x_min":0,"x_max":0,"o":"m 599 528 b 767 746 682 567 767 632 b 439 999 767 875 671 999 b 75 724 217 999 75 899 b 268 483 75 613 165 544 b 40 226 171 440 40 369 b 428 -14 40 119 144 -14 b 817 269 629 -14 817 60 b 599 528 817 403 713 468 z m 426 908 b 547 785 510 908 547 843 b 464 600 547 713 508 640 b 318 811 382 650 318 710 b 426 908 318 864 360 908 z m 439 82 b 271 226 353 82 271 126 b 368 428 271 299 318 378 b 574 194 476 367 574 301 b 439 82 574 132 515 82 z "},"9":{"ha":851,"x_min":0,"x_max":0,"o":"m 411 1000 b 49 675 210 1000 49 875 b 372 356 49 439 214 356 b 544 414 446 356 504 376 b 414 82 536 218 497 82 b 183 324 314 82 351 324 b 63 208 117 324 63 282 b 396 -14 63 88 217 -14 b 806 517 685 -14 806 217 b 411 1000 806 807 640 1000 z m 442 451 b 290 775 339 451 290 649 b 379 904 290 860 325 904 b 542 583 479 904 529 747 b 442 451 542 503 510 451 z "},"A":{"ha":981,"x_min":0,"x_max":0,"o":"m 911 151 l 594 919 b 499 986 575 965 547 986 l 321 986 b 289 960 301 986 289 976 l 289 954 b 340 824 289 921 361 878 l 81 151 b 0 32 51 78 0 71 l 0 26 b 33 0 0 10 13 0 l 239 0 b 272 26 260 0 272 10 l 272 32 b 213 151 272 71 190 88 l 243 238 l 596 238 l 626 151 b 567 32 649 88 567 71 l 567 26 b 599 0 567 10 579 0 l 958 0 b 992 26 979 0 992 10 l 992 32 b 911 151 992 71 940 79 z m 281 342 l 419 729 l 558 342 z "},"Á":{"ha":981,"x_min":0,"x_max":0,"o":"m 336 1075 l 631 1101 b 675 1169 671 1104 686 1133 l 647 1269 b 568 1301 636 1306 607 1322 l 301 1158 b 282 1103 283 1147 274 1125 b 336 1075 292 1083 313 1074 z m 911 151 l 594 919 b 499 986 575 965 547 986 l 321 986 b 289 960 301 986 289 976 l 289 954 b 340 824 289 921 361 878 l 81 151 b 0 32 51 78 0 71 l 0 26 b 33 0 0 10 13 0 l 239 0 b 272 26 260 0 272 10 l 272 32 b 213 151 272 71 190 88 l 243 238 l 596 238 l 626 151 b 567 32 649 88 567 71 l 567 26 b 599 0 567 10 579 0 l 958 0 b 992 26 979 0 992 10 l 992 32 b 911 151 992 71 940 79 z m 281 342 l 419 729 l 558 342 z "},"Ă":{"ha":981,"x_min":0,"x_max":0,"o":"m 457 1054 b 701 1244 599 1054 688 1139 b 619 1274 706 1285 635 1296 b 457 1200 597 1228 529 1200 b 296 1274 388 1200 318 1228 b 214 1244 278 1300 208 1290 b 457 1054 228 1139 321 1054 z m 911 151 l 594 919 b 499 986 575 965 547 986 l 321 986 b 289 960 301 986 289 976 l 289 954 b 340 824 289 921 361 878 l 81 151 b 0 32 51 78 0 71 l 0 26 b 33 0 0 10 13 0 l 239 0 b 272 26 260 0 272 10 l 272 32 b 213 151 272 71 190 88 l 243 238 l 596 238 l 626 151 b 567 32 649 88 567 71 l 567 26 b 599 0 567 10 579 0 l 958 0 b 992 26 979 0 992 10 l 992 32 b 911 151 992 71 940 79 z m 281 342 l 419 729 l 558 342 z "},"Â":{"ha":981,"x_min":0,"x_max":0,"o":"m 258 1054 l 443 1156 l 651 1054 b 708 1125 710 1026 751 1083 l 539 1285 b 474 1311 519 1304 500 1311 l 425 1311 b 360 1283 399 1311 381 1306 l 207 1125 b 258 1054 160 1076 225 1036 z m 911 151 l 594 919 b 499 986 575 965 547 986 l 321 986 b 289 960 301 986 289 976 l 289 954 b 340 824 289 921 361 878 l 81 151 b 0 32 51 78 0 71 l 0 26 b 33 0 0 10 13 0 l 239 0 b 272 26 260 0 272 10 l 272 32 b 213 151 272 71 190 88 l 243 238 l 596 238 l 626 151 b 567 32 649 88 567 71 l 567 26 b 599 0 567 10 579 0 l 958 0 b 992 26 979 0 992 10 l 992 32 b 911 151 992 71 940 79 z m 281 342 l 419 729 l 558 342 z "},"Ä":{"ha":981,"x_min":0,"x_max":0,"o":"m 288 1065 b 429 1192 372 1065 429 1119 b 288 1317 429 1263 372 1317 b 144 1192 201 1317 144 1263 b 288 1065 144 1119 201 1065 z m 633 1065 b 776 1192 718 1065 776 1119 b 633 1317 776 1263 718 1317 b 492 1192 549 1317 492 1263 b 633 1065 492 1119 549 1065 z m 911 151 l 594 919 b 499 986 575 965 547 986 l 321 986 b 289 960 301 986 289 976 l 289 954 b 340 824 289 921 361 878 l 81 151 b 0 32 51 78 0 71 l 0 26 b 33 0 0 10 13 0 l 239 0 b 272 26 260 0 272 10 l 272 32 b 213 151 272 71 190 88 l 243 238 l 596 238 l 626 151 b 567 32 649 88 567 71 l 567 26 b 599 0 567 10 579 0 l 958 0 b 992 26 979 0 992 10 l 992 32 b 911 151 992 71 940 79 z m 281 342 l 419 729 l 558 342 z "},"À":{"ha":981,"x_min":0,"x_max":0,"o":"m 285 1082 l 581 1065 b 632 1096 603 1065 625 1075 b 611 1150 640 1118 631 1140 l 340 1283 b 263 1249 300 1303 271 1286 l 238 1149 b 285 1082 229 1113 244 1082 z m 911 151 l 594 919 b 499 986 575 965 547 986 l 321 986 b 289 960 301 986 289 976 l 289 954 b 340 824 289 921 361 878 l 81 151 b 0 32 51 78 0 71 l 0 26 b 33 0 0 10 13 0 l 239 0 b 272 26 260 0 272 10 l 272 32 b 213 151 272 71 190 88 l 243 238 l 596 238 l 626 151 b 567 32 649 88 567 71 l 567 26 b 599 0 567 10 579 0 l 958 0 b 992 26 979 0 992 10 l 992 32 b 911 151 992 71 940 79 z m 281 342 l 419 729 l 558 342 z "},"Ā":{"ha":981,"x_min":0,"x_max":0,"o":"m 261 1097 l 653 1097 b 688 1131 675 1097 688 1110 l 688 1215 b 653 1247 688 1236 675 1247 l 261 1247 b 226 1215 239 1247 226 1236 l 226 1131 b 261 1097 226 1110 239 1097 z m 911 151 l 594 919 b 499 986 575 965 547 986 l 321 986 b 289 960 301 986 289 976 l 289 954 b 340 824 289 921 361 878 l 81 151 b 0 32 51 78 0 71 l 0 26 b 33 0 0 10 13 0 l 239 0 b 272 26 260 0 272 10 l 272 32 b 213 151 272 71 190 88 l 243 238 l 596 238 l 626 151 b 567 32 649 88 567 71 l 567 26 b 599 0 567 10 579 0 l 958 0 b 992 26 979 0 992 10 l 992 32 b 911 151 992 71 940 79 z m 281 342 l 419 729 l 558 342 z "},"Ą":{"ha":981,"x_min":0,"x_max":0,"o":"m 911 151 l 594 919 b 499 986 575 965 547 986 l 321 986 b 289 960 301 986 289 976 l 289 954 b 340 824 289 921 361 878 l 81 151 b 0 32 51 78 0 71 l 0 26 b 33 0 0 10 13 0 l 239 0 b 272 26 260 0 272 10 l 272 32 b 213 151 272 71 190 88 l 243 238 l 596 238 l 626 151 b 567 32 649 88 567 71 l 567 26 b 599 0 567 10 579 0 l 761 0 b 606 -193 649 -61 606 -126 b 774 -321 606 -292 699 -321 b 850 -310 806 -321 838 -315 b 842 -219 901 -289 888 -204 b 817 -225 832 -222 826 -225 b 778 -161 796 -225 776 -208 b 850 0 778 -122 800 -61 l 958 0 b 992 26 979 0 992 10 l 992 32 b 911 151 992 71 940 79 z m 281 342 l 419 729 l 558 342 z "},"Å":{"ha":981,"x_min":0,"x_max":0,"o":"m 464 1026 b 672 1188 590 1026 672 1090 b 465 1338 672 1275 583 1338 b 257 1178 343 1338 257 1276 b 464 1026 257 1092 344 1026 z m 465 1267 b 529 1183 500 1267 529 1238 b 465 1093 529 1115 500 1093 b 400 1183 429 1093 400 1128 b 465 1267 400 1249 429 1267 z m 911 151 l 594 919 b 499 986 575 965 547 986 l 321 986 b 289 960 301 986 289 976 l 289 954 b 340 824 289 921 361 878 l 81 151 b 0 32 51 78 0 71 l 0 26 b 33 0 0 10 13 0 l 239 0 b 272 26 260 0 272 10 l 272 32 b 213 151 272 71 190 88 l 243 238 l 596 238 l 626 151 b 567 32 649 88 567 71 l 567 26 b 599 0 567 10 579 0 l 958 0 b 992 26 979 0 992 10 l 992 32 b 911 151 992 71 940 79 z m 281 342 l 419 729 l 558 342 z "},"Ã":{"ha":981,"x_min":0,"x_max":0,"o":"m 233 1069 l 249 1069 b 285 1094 271 1069 272 1078 b 339 1121 300 1113 317 1121 b 564 1051 408 1121 475 1051 b 725 1214 647 1051 704 1125 b 701 1246 729 1235 721 1246 l 692 1246 b 657 1226 675 1246 667 1239 b 594 1196 644 1207 629 1196 b 375 1261 535 1196 474 1261 b 211 1101 289 1261 228 1186 b 233 1069 207 1081 218 1069 z m 911 151 l 594 919 b 499 986 575 965 547 986 l 321 986 b 289 960 301 986 289 976 l 289 954 b 340 824 289 921 361 878 l 81 151 b 0 32 51 78 0 71 l 0 26 b 33 0 0 10 13 0 l 239 0 b 272 26 260 0 272 10 l 272 32 b 213 151 272 71 190 88 l 243 238 l 596 238 l 626 151 b 567 32 649 88 567 71 l 567 26 b 599 0 567 10 579 0 l 958 0 b 992 26 979 0 992 10 l 992 32 b 911 151 992 71 940 79 z m 281 342 l 419 729 l 558 342 z "},"Æ":{"ha":1346,"x_min":0,"x_max":0,"o":"m 1300 258 l 1288 258 b 1075 96 1214 258 1190 96 l 971 96 b 888 188 917 96 888 132 l 888 453 l 1001 453 b 1125 350 1076 453 1085 350 l 1138 350 b 1164 383 1154 350 1164 364 l 1164 632 b 1138 665 1164 651 1154 665 l 1125 665 b 1001 557 1085 665 1076 557 l 888 557 l 888 822 b 951 890 888 874 917 890 l 1036 890 b 1242 740 1138 890 1168 740 l 1250 740 b 1285 779 1274 740 1289 754 l 1256 943 b 1208 986 1250 974 1239 986 l 479 986 b 447 960 463 986 447 976 l 447 950 b 488 806 447 914 525 868 l 92 151 b -12 32 49 82 -12 71 l -12 26 b 21 0 -12 10 0 0 l 265 0 b 299 26 285 0 299 10 l 299 32 b 261 151 299 71 226 93 l 313 238 l 661 238 l 661 153 b 604 32 661 89 604 72 l 604 26 b 639 0 604 10 618 0 l 1244 0 b 1292 44 1275 0 1286 14 l 1326 226 b 1300 258 1331 244 1319 258 z m 375 342 l 660 818 l 661 342 z "},"Ǽ":{"ha":1346,"x_min":0,"x_max":0,"o":"m 722 1075 l 1017 1101 b 1061 1169 1057 1104 1072 1133 l 1033 1269 b 954 1301 1022 1306 994 1322 l 688 1158 b 669 1103 669 1147 661 1125 b 722 1075 678 1083 699 1074 z m 1300 258 l 1288 258 b 1075 96 1214 258 1190 96 l 971 96 b 888 188 917 96 888 132 l 888 453 l 1001 453 b 1125 350 1076 453 1085 350 l 1138 350 b 1164 383 1154 350 1164 364 l 1164 632 b 1138 665 1164 651 1154 665 l 1125 665 b 1001 557 1085 665 1076 557 l 888 557 l 888 822 b 951 890 888 874 917 890 l 1036 890 b 1242 740 1138 890 1168 740 l 1250 740 b 1285 779 1274 740 1289 754 l 1256 943 b 1208 986 1250 974 1239 986 l 479 986 b 447 960 463 986 447 976 l 447 950 b 488 806 447 914 525 868 l 92 151 b -12 32 49 82 -12 71 l -12 26 b 21 0 -12 10 0 0 l 265 0 b 299 26 285 0 299 10 l 299 32 b 261 151 299 71 226 93 l 313 238 l 661 238 l 661 153 b 604 32 661 89 604 72 l 604 26 b 639 0 604 10 618 0 l 1244 0 b 1292 44 1275 0 1286 14 l 1326 226 b 1300 258 1331 244 1319 258 z m 375 342 l 660 818 l 661 342 z "},"B":{"ha":965,"x_min":0,"x_max":0,"o":"m 678 531 b 839 736 775 556 839 632 b 475 986 839 875 725 986 l 90 986 b 57 960 71 986 57 976 l 57 954 b 113 835 57 915 113 899 l 113 151 b 57 32 113 88 57 71 l 57 26 b 90 0 57 10 71 0 l 471 0 b 936 278 792 0 936 114 b 678 531 936 411 838 508 z m 363 817 b 428 889 363 872 392 889 l 467 889 b 624 700 561 889 624 819 b 507 569 624 621 578 569 l 438 569 b 363 642 393 569 363 596 z m 533 97 l 467 97 b 363 215 403 97 363 149 l 363 472 l 421 472 b 672 242 588 472 672 344 b 533 97 672 156 622 97 z "},"C":{"ha":933,"x_min":0,"x_max":0,"o":"m 510 -14 b 901 333 771 -14 894 157 b 825 358 903 379 851 389 b 590 211 785 300 719 211 b 278 658 432 211 278 388 b 446 900 278 813 358 900 b 783 624 613 900 610 624 b 899 733 856 624 899 669 b 496 999 899 879 713 999 b 33 506 217 999 33 788 b 510 -14 33 236 232 -14 z "},"Ć":{"ha":933,"x_min":0,"x_max":0,"o":"m 353 1075 l 647 1101 b 693 1169 689 1104 703 1133 l 664 1269 b 586 1301 654 1306 625 1322 l 319 1158 b 300 1103 301 1147 292 1125 b 353 1075 308 1083 329 1074 z m 510 -14 b 901 333 771 -14 894 157 b 825 358 903 379 851 389 b 590 211 785 300 719 211 b 278 658 432 211 278 388 b 446 900 278 813 358 900 b 783 624 613 900 610 624 b 899 733 856 624 899 669 b 496 999 899 879 713 999 b 33 506 217 999 33 788 b 510 -14 33 236 232 -14 z "},"Č":{"ha":933,"x_min":0,"x_max":0,"o":"m 400 1068 b 465 1042 421 1049 439 1042 l 521 1042 b 586 1068 547 1042 567 1049 l 744 1213 b 694 1269 771 1238 728 1286 l 500 1174 l 301 1269 b 251 1213 272 1283 222 1242 z m 825 358 b 590 211 785 300 719 211 b 278 658 432 211 278 388 b 446 900 278 813 358 900 b 783 624 613 900 610 624 b 899 733 856 624 899 669 b 496 999 899 879 713 999 b 33 506 217 999 33 788 b 510 -14 33 236 232 -14 b 901 333 771 -14 894 157 b 825 358 903 379 851 389 z "},"Ç":{"ha":933,"x_min":0,"x_max":0,"o":"m 825 358 b 590 211 785 300 719 211 b 278 658 432 211 278 388 b 446 900 278 813 358 900 b 783 624 613 900 610 624 b 899 733 856 624 899 669 b 496 999 899 879 713 999 b 33 506 217 999 33 788 b 460 -11 33 253 208 17 l 443 -90 b 479 -132 438 -122 457 -132 b 561 -179 510 -132 561 -142 b 492 -231 563 -214 528 -231 b 411 -214 464 -231 428 -224 b 407 -294 381 -199 367 -275 b 529 -314 429 -304 469 -314 b 732 -189 635 -314 732 -275 b 556 -71 732 -101 640 -68 l 558 -12 b 901 333 786 8 894 168 b 825 358 903 379 851 389 z "},"Ċ":{"ha":933,"x_min":0,"x_max":0,"o":"m 475 1046 b 619 1175 561 1046 619 1103 b 475 1303 619 1247 561 1303 b 328 1175 388 1303 328 1247 b 475 1046 328 1103 388 1046 z m 510 -14 b 901 333 771 -14 894 157 b 825 358 903 379 851 389 b 590 211 785 300 719 211 b 278 658 432 211 278 388 b 446 900 278 813 358 900 b 783 624 613 900 610 624 b 899 733 856 624 899 669 b 496 999 899 879 713 999 b 33 506 217 999 33 788 b 510 -14 33 236 232 -14 z "},"D":{"ha":1068,"x_min":0,"x_max":0,"o":"m 90 0 l 488 0 b 1032 488 818 0 1032 199 b 418 986 1032 779 813 986 l 90 986 b 57 960 71 986 57 976 l 57 954 b 113 835 57 915 113 899 l 113 151 b 57 32 113 88 57 71 l 57 26 b 90 0 57 10 71 0 z m 482 97 b 361 240 406 97 361 150 l 361 822 b 424 889 361 872 390 889 l 439 889 b 768 371 629 889 768 642 b 538 97 768 189 668 97 z "},"Ð":{"ha":1074,"x_min":0,"x_max":0,"o":"m 422 986 l 94 986 b 61 960 75 986 61 976 l 61 954 b 117 835 61 915 117 899 l 117 551 l 56 551 b 32 528 42 551 32 544 l 32 481 b 56 458 32 463 42 458 l 117 458 l 117 151 b 61 32 117 88 61 71 l 61 26 b 94 0 61 10 75 0 l 492 0 b 1036 488 822 0 1036 199 b 422 986 1036 779 817 986 z m 542 97 l 486 97 b 365 240 410 97 365 150 l 365 458 l 497 458 b 522 486 511 458 522 467 l 522 528 b 497 551 522 542 511 551 l 365 551 l 365 822 b 428 889 365 872 394 889 l 443 889 b 772 371 633 889 772 642 b 542 97 772 189 672 97 z "},"Ď":{"ha":1069,"x_min":0,"x_max":0,"o":"m 394 1065 b 460 1039 415 1046 433 1039 l 515 1039 b 582 1064 542 1039 561 1046 l 739 1210 b 689 1267 765 1235 722 1283 l 494 1171 l 296 1267 b 246 1210 267 1281 217 1239 z m 418 986 l 90 986 b 57 960 71 986 57 976 l 57 954 b 113 835 57 915 113 899 l 113 151 b 57 32 113 88 57 71 l 57 26 b 90 0 57 10 71 0 l 488 0 b 1032 488 818 0 1032 199 b 418 986 1032 779 813 986 z m 538 97 l 482 97 b 361 240 406 97 361 150 l 361 822 b 424 889 361 872 390 889 l 439 889 b 768 371 629 889 768 642 b 538 97 768 189 668 97 z "},"Đ":{"ha":1074,"x_min":0,"x_max":0,"o":"m 422 986 l 94 986 b 61 960 75 986 61 976 l 61 954 b 117 835 61 915 117 899 l 117 551 l 56 551 b 32 528 42 551 32 544 l 32 481 b 56 458 32 463 42 458 l 117 458 l 117 151 b 61 32 117 88 61 71 l 61 26 b 94 0 61 10 75 0 l 492 0 b 1036 488 822 0 1036 199 b 422 986 1036 779 817 986 z m 542 97 l 486 97 b 365 240 410 97 365 150 l 365 458 l 497 458 b 522 486 511 458 522 467 l 522 528 b 497 551 522 542 511 551 l 365 551 l 365 822 b 428 889 365 872 394 889 l 443 889 b 772 371 633 889 772 642 b 542 97 772 189 672 97 z "},"E":{"ha":864,"x_min":0,"x_max":0,"o":"m 90 0 l 760 0 b 808 44 792 0 803 14 l 839 226 b 810 268 842 244 832 268 l 797 268 b 592 96 714 268 690 96 l 446 96 b 363 197 382 96 363 150 l 363 453 l 508 453 b 631 347 582 453 590 347 l 642 347 b 669 379 658 347 669 360 l 669 629 b 642 661 669 649 658 661 l 631 661 b 508 550 590 661 582 550 l 363 550 l 363 822 b 425 890 363 874 392 890 l 547 890 b 764 728 646 890 686 728 l 771 728 b 806 768 794 728 810 743 l 772 943 b 725 986 767 974 756 986 l 89 986 b 57 960 69 986 57 976 l 57 954 b 113 833 57 915 113 899 l 113 153 b 57 32 113 88 57 71 l 57 26 b 90 0 57 10 71 0 z "},"É":{"ha":864,"x_min":0,"x_max":0,"o":"m 304 1075 l 599 1101 b 643 1169 639 1104 654 1133 l 615 1269 b 536 1301 604 1306 575 1322 l 269 1158 b 251 1103 251 1147 242 1125 b 304 1075 260 1083 281 1074 z m 90 0 l 760 0 b 808 44 792 0 803 14 l 839 226 b 810 268 842 244 832 268 l 797 268 b 592 96 714 268 690 96 l 446 96 b 363 197 382 96 363 150 l 363 453 l 508 453 b 631 347 582 453 590 347 l 642 347 b 669 379 658 347 669 360 l 669 629 b 642 661 669 649 658 661 l 631 661 b 508 550 590 661 582 550 l 363 550 l 363 822 b 425 890 363 874 392 890 l 547 890 b 764 728 646 890 686 728 l 771 728 b 806 768 794 728 810 743 l 772 943 b 725 986 767 974 756 986 l 89 986 b 57 960 69 986 57 976 l 57 954 b 113 833 57 915 113 899 l 113 153 b 57 32 113 88 57 71 l 57 26 b 90 0 57 10 71 0 z "},"Ě":{"ha":864,"x_min":0,"x_max":0,"o":"m 328 1065 b 394 1039 349 1046 367 1039 l 450 1039 b 515 1064 476 1039 494 1046 l 674 1210 b 624 1267 700 1235 656 1283 l 428 1171 l 229 1267 b 179 1210 201 1281 151 1239 z m 810 268 l 797 268 b 592 96 714 268 690 96 l 446 96 b 363 197 382 96 363 150 l 363 453 l 508 453 b 631 347 582 453 590 347 l 642 347 b 669 379 658 347 669 360 l 669 629 b 642 661 669 649 658 661 l 631 661 b 508 550 590 661 582 550 l 363 550 l 363 822 b 425 890 363 874 392 890 l 547 890 b 764 728 646 890 686 728 l 771 728 b 806 768 794 728 810 743 l 772 943 b 725 986 767 974 756 986 l 89 986 b 57 960 69 986 57 976 l 57 954 b 113 833 57 915 113 899 l 113 153 b 57 32 113 88 57 71 l 57 26 b 90 0 57 10 71 0 l 760 0 b 808 44 792 0 803 14 l 839 226 b 810 268 842 244 832 268 z "},"Ê":{"ha":864,"x_min":0,"x_max":0,"o":"m 226 1054 l 413 1156 l 621 1054 b 678 1125 678 1026 721 1083 l 508 1285 b 442 1311 489 1304 469 1311 l 394 1311 b 328 1283 367 1311 349 1306 l 175 1125 b 226 1054 129 1076 193 1036 z m 810 268 l 797 268 b 592 96 714 268 690 96 l 446 96 b 363 197 382 96 363 150 l 363 453 l 508 453 b 631 347 582 453 590 347 l 642 347 b 669 379 658 347 669 360 l 669 629 b 642 661 669 649 658 661 l 631 661 b 508 550 590 661 582 550 l 363 550 l 363 822 b 425 890 363 874 392 890 l 547 890 b 764 728 646 890 686 728 l 771 728 b 806 768 794 728 810 743 l 772 943 b 725 986 767 974 756 986 l 89 986 b 57 960 69 986 57 976 l 57 954 b 113 833 57 915 113 899 l 113 153 b 57 32 113 88 57 71 l 57 26 b 90 0 57 10 71 0 l 760 0 b 808 44 792 0 803 14 l 839 226 b 810 268 842 244 832 268 z "},"Ë":{"ha":864,"x_min":0,"x_max":0,"o":"m 256 1065 b 397 1192 340 1065 397 1119 b 256 1317 397 1263 340 1317 b 113 1192 169 1317 113 1263 b 256 1065 113 1119 169 1065 z m 601 1065 b 744 1192 686 1065 744 1119 b 601 1317 744 1263 686 1317 b 460 1192 517 1317 460 1263 b 601 1065 460 1119 517 1065 z m 90 0 l 760 0 b 808 44 792 0 803 14 l 839 226 b 810 268 842 244 832 268 l 797 268 b 592 96 714 268 690 96 l 446 96 b 363 197 382 96 363 150 l 363 453 l 508 453 b 631 347 582 453 590 347 l 642 347 b 669 379 658 347 669 360 l 669 629 b 642 661 669 649 658 661 l 631 661 b 508 550 590 661 582 550 l 363 550 l 363 822 b 425 890 363 874 392 890 l 547 890 b 764 728 646 890 686 728 l 771 728 b 806 768 794 728 810 743 l 772 943 b 725 986 767 974 756 986 l 89 986 b 57 960 69 986 57 976 l 57 954 b 113 833 57 915 113 899 l 113 153 b 57 32 113 88 57 71 l 57 26 b 90 0 57 10 71 0 z "},"Ė":{"ha":864,"x_min":0,"x_max":0,"o":"m 438 1046 b 582 1175 524 1046 582 1103 b 438 1303 582 1247 524 1303 b 290 1175 349 1303 290 1247 b 438 1046 290 1103 349 1046 z m 90 0 l 760 0 b 808 44 792 0 803 14 l 839 226 b 810 268 842 244 832 268 l 797 268 b 592 96 714 268 690 96 l 446 96 b 363 197 382 96 363 150 l 363 453 l 508 453 b 631 347 582 453 590 347 l 642 347 b 669 379 658 347 669 360 l 669 629 b 642 661 669 649 658 661 l 631 661 b 508 550 590 661 582 550 l 363 550 l 363 822 b 425 890 363 874 392 890 l 547 890 b 764 728 646 890 686 728 l 771 728 b 806 768 794 728 810 743 l 772 943 b 725 986 767 974 756 986 l 89 986 b 57 960 69 986 57 976 l 57 954 b 113 833 57 915 113 899 l 113 153 b 57 32 113 88 57 71 l 57 26 b 90 0 57 10 71 0 z "},"È":{"ha":864,"x_min":0,"x_max":0,"o":"m 549 1065 b 601 1096 572 1065 593 1075 b 579 1150 608 1118 599 1140 l 308 1283 b 231 1249 268 1303 240 1286 l 206 1149 b 253 1082 197 1113 213 1082 z m 90 0 l 760 0 b 808 44 792 0 803 14 l 839 226 b 810 268 842 244 832 268 l 797 268 b 592 96 714 268 690 96 l 446 96 b 363 197 382 96 363 150 l 363 453 l 508 453 b 631 347 582 453 590 347 l 642 347 b 669 379 658 347 669 360 l 669 629 b 642 661 669 649 658 661 l 631 661 b 508 550 590 661 582 550 l 363 550 l 363 822 b 425 890 363 874 392 890 l 547 890 b 764 728 646 890 686 728 l 771 728 b 806 768 794 728 810 743 l 772 943 b 725 986 767 974 756 986 l 89 986 b 57 960 69 986 57 976 l 57 954 b 113 833 57 915 113 899 l 113 153 b 57 32 113 88 57 71 l 57 26 b 90 0 57 10 71 0 z "},"Ē":{"ha":864,"x_min":0,"x_max":0,"o":"m 229 1097 l 622 1097 b 656 1131 644 1097 656 1110 l 656 1215 b 622 1247 656 1236 644 1247 l 229 1247 b 196 1215 207 1247 196 1236 l 196 1131 b 229 1097 196 1110 207 1097 z m 90 0 l 760 0 b 808 44 792 0 803 14 l 839 226 b 810 268 842 244 832 268 l 797 268 b 592 96 714 268 690 96 l 446 96 b 363 197 382 96 363 150 l 363 453 l 508 453 b 631 347 582 453 590 347 l 642 347 b 669 379 658 347 669 360 l 669 629 b 642 661 669 649 658 661 l 631 661 b 508 550 590 661 582 550 l 363 550 l 363 822 b 425 890 363 874 392 890 l 547 890 b 764 728 646 890 686 728 l 771 728 b 806 768 794 728 810 743 l 772 943 b 725 986 767 974 756 986 l 89 986 b 57 960 69 986 57 976 l 57 954 b 113 833 57 915 113 899 l 113 153 b 57 32 113 88 57 71 l 57 26 b 90 0 57 10 71 0 z "},"Ę":{"ha":864,"x_min":0,"x_max":0,"o":"m 808 44 l 839 226 b 810 268 842 244 832 268 l 797 268 b 592 96 714 268 690 96 l 446 96 b 363 197 382 96 363 150 l 363 453 l 508 453 b 631 347 582 453 590 347 l 642 347 b 669 379 658 347 669 360 l 669 629 b 642 661 669 649 658 661 l 631 661 b 508 550 590 661 582 550 l 363 550 l 363 822 b 425 890 363 874 392 890 l 547 890 b 764 728 646 890 686 728 l 771 728 b 806 768 794 728 810 743 l 772 943 b 725 986 767 974 756 986 l 89 986 b 57 960 69 986 57 976 l 57 954 b 113 833 57 915 113 899 l 113 153 b 57 32 113 88 57 71 l 57 26 b 90 0 57 10 71 0 l 688 0 b 547 -185 585 -58 547 -119 b 715 -312 547 -283 640 -312 b 792 -300 747 -312 778 -307 b 783 -211 842 -281 829 -196 b 758 -215 774 -214 768 -215 b 718 -153 738 -215 718 -200 b 789 7 718 -114 742 -54 b 808 44 800 14 806 26 z "},"F":{"ha":838,"x_min":0,"x_max":0,"o":"m 90 0 l 396 0 b 429 26 415 0 429 10 l 429 32 b 367 151 429 71 367 88 l 367 414 l 522 414 b 646 310 586 414 606 310 l 658 310 b 685 342 675 310 685 322 l 685 592 b 658 624 685 611 675 624 l 646 624 b 522 511 606 624 586 511 l 367 511 l 367 822 b 431 889 367 872 397 889 l 564 889 b 781 726 663 889 703 726 l 788 726 b 822 767 811 726 826 742 l 789 942 b 742 986 783 972 772 986 l 89 986 b 57 960 69 986 57 976 l 57 954 b 113 835 57 915 113 899 l 113 151 b 57 32 113 88 57 71 l 57 26 b 90 0 57 10 71 0 z "},"G":{"ha":993,"x_min":0,"x_max":0,"o":"m 539 -14 b 850 86 679 -14 789 38 b 908 190 897 124 908 150 l 908 351 b 975 471 908 417 975 432 l 975 476 b 942 504 975 493 963 504 l 632 506 b 596 478 613 506 596 494 l 596 472 b 674 353 596 433 674 418 l 674 171 b 594 157 654 163 629 157 b 279 657 422 157 279 382 b 442 900 279 797 343 900 b 801 629 599 900 622 629 b 913 742 868 629 913 674 b 504 999 913 883 739 999 b 35 492 267 999 35 808 b 539 -14 35 231 240 -14 z "},"Ğ":{"ha":994,"x_min":0,"x_max":0,"o":"m 519 1054 b 764 1244 661 1054 750 1139 b 682 1274 768 1285 697 1296 b 519 1200 660 1228 593 1200 b 358 1274 450 1200 381 1228 b 276 1244 342 1300 271 1290 b 519 1054 290 1139 383 1054 z m 539 -14 b 850 86 679 -14 789 38 b 908 190 897 124 908 150 l 908 351 b 975 471 908 417 975 432 l 975 476 b 942 504 975 493 963 504 l 632 506 b 596 478 613 506 596 494 l 596 472 b 674 353 596 433 674 418 l 674 171 b 594 157 654 163 629 157 b 279 657 422 157 279 382 b 442 900 279 797 343 900 b 801 629 599 900 622 629 b 913 742 868 629 913 674 b 504 999 913 883 739 999 b 35 492 267 999 35 808 b 539 -14 35 231 240 -14 z "},"Ģ":{"ha":994,"x_min":0,"x_max":0,"o":"m 539 -14 b 850 86 679 -14 789 38 b 908 190 897 124 908 150 l 908 351 b 975 471 908 417 975 432 l 975 476 b 942 504 975 493 963 504 l 632 506 b 596 478 613 506 596 494 l 596 472 b 674 353 596 433 674 418 l 674 171 b 594 157 654 163 629 157 b 279 657 422 157 279 382 b 442 900 279 797 343 900 b 801 629 599 900 622 629 b 913 742 868 629 913 674 b 504 999 913 883 739 999 b 35 492 267 999 35 808 b 539 -14 35 231 240 -14 z m 471 -460 b 653 -190 594 -385 653 -294 b 522 -42 653 -94 590 -42 b 399 -172 446 -42 399 -94 b 486 -286 399 -239 439 -286 b 503 -314 501 -286 504 -297 b 432 -418 499 -349 478 -372 b 471 -460 410 -442 443 -476 z "},"Ġ":{"ha":994,"x_min":0,"x_max":0,"o":"m 531 1046 b 676 1175 618 1046 676 1103 b 531 1303 676 1247 618 1303 b 385 1175 443 1303 385 1247 b 531 1046 385 1103 443 1046 z m 539 -14 b 850 86 679 -14 789 38 b 908 190 897 124 908 150 l 908 351 b 975 471 908 417 975 432 l 975 476 b 942 504 975 493 963 504 l 632 506 b 596 478 613 506 596 494 l 596 472 b 674 353 596 433 674 418 l 674 171 b 594 157 654 163 629 157 b 279 657 422 157 279 382 b 442 900 279 797 343 900 b 801 629 599 900 622 629 b 913 742 868 629 913 674 b 504 999 913 883 739 999 b 35 492 267 999 35 808 b 539 -14 35 231 240 -14 z "},"H":{"ha":1103,"x_min":0,"x_max":0,"o":"m 90 0 l 393 0 b 426 26 414 0 426 10 l 426 32 b 365 151 426 71 365 88 l 367 443 l 731 443 l 732 151 b 678 32 732 88 678 71 l 678 26 b 710 0 678 10 689 0 l 1013 0 b 1046 26 1032 0 1046 10 l 1046 32 b 983 151 1046 71 983 88 l 983 835 b 1046 954 983 899 1046 915 l 1046 960 b 1013 986 1046 976 1032 986 l 710 986 b 678 960 689 986 678 976 l 678 954 b 732 835 678 915 732 899 l 731 551 l 365 551 l 367 835 b 426 954 367 899 426 915 l 426 960 b 393 986 426 976 414 986 l 90 986 b 57 960 71 986 57 976 l 57 954 b 113 835 57 915 113 899 l 113 151 b 57 32 113 88 57 71 l 57 26 b 90 0 57 10 71 0 z "},"Ħ":{"ha":1110,"x_min":0,"x_max":0,"o":"m 1060 781 l 988 781 l 988 835 b 1050 954 988 899 1050 915 l 1050 960 b 1017 986 1050 976 1036 986 l 713 986 b 681 960 693 986 681 976 l 681 954 b 735 835 681 915 735 899 l 735 781 l 369 781 l 369 835 b 431 954 369 899 431 915 l 431 960 b 397 986 431 976 417 986 l 94 986 b 61 960 74 986 61 976 l 61 954 b 117 835 61 915 117 899 l 117 781 l 49 781 b 15 754 29 781 15 771 l 15 715 b 49 689 15 700 29 689 l 117 689 l 117 151 b 61 32 117 88 61 71 l 61 26 b 94 0 61 10 74 0 l 397 0 b 431 26 417 0 431 10 l 431 32 b 368 151 431 71 368 88 l 369 443 l 735 443 l 735 151 b 681 32 735 88 681 71 l 681 26 b 713 0 681 10 693 0 l 1017 0 b 1050 26 1036 0 1050 10 l 1050 32 b 988 151 1050 71 988 88 l 988 689 l 1060 689 b 1094 715 1081 689 1094 700 l 1094 754 b 1060 781 1094 771 1081 781 z m 735 551 l 369 551 l 369 689 l 735 689 z "},"I":{"ha":482,"x_min":0,"x_max":0,"o":"m 57 26 b 90 0 57 10 71 0 l 392 0 b 425 26 413 0 425 10 l 425 32 b 364 151 425 71 364 88 l 364 835 b 425 954 364 899 425 915 l 425 960 b 392 986 425 976 413 986 l 90 986 b 57 960 71 986 57 976 l 57 954 b 113 835 57 915 113 899 l 113 151 b 57 32 113 88 57 71 z "},"Ĳ":{"ha":1254,"x_min":0,"x_max":0,"o":"m 57 26 b 90 0 57 10 71 0 l 392 0 b 425 26 413 0 425 10 l 425 32 b 364 151 425 71 364 88 l 364 835 b 425 954 364 899 425 915 l 425 960 b 392 986 425 976 413 986 l 90 986 b 57 960 71 986 57 976 l 57 954 b 113 835 57 915 113 899 l 113 151 b 57 32 113 88 57 71 z m 903 835 l 903 288 b 818 85 903 168 878 85 b 582 361 681 85 771 361 b 469 239 514 361 469 313 b 808 -14 469 139 539 -17 b 1157 442 1026 -11 1156 110 l 1157 835 b 1218 954 1157 899 1218 915 l 1218 960 b 1185 986 1218 976 1206 986 l 881 986 b 846 960 860 986 846 976 l 846 954 b 903 835 846 915 903 899 z "},"Í":{"ha":482,"x_min":0,"x_max":0,"o":"m 121 1075 l 415 1101 b 460 1169 456 1104 471 1133 l 432 1269 b 354 1301 421 1306 393 1322 l 88 1158 b 68 1103 69 1147 60 1125 b 121 1075 76 1083 97 1074 z m 57 26 b 90 0 57 10 71 0 l 392 0 b 425 26 413 0 425 10 l 425 32 b 364 151 425 71 364 88 l 364 835 b 425 954 364 899 425 915 l 425 960 b 392 986 425 976 413 986 l 90 986 b 57 960 71 986 57 976 l 57 954 b 113 835 57 915 113 899 l 113 151 b 57 32 113 88 57 71 z "},"Î":{"ha":482,"x_min":0,"x_max":0,"o":"m 494 1125 l 325 1285 b 258 1311 306 1304 286 1311 l 211 1311 b 144 1283 183 1311 165 1306 l -8 1125 b 43 1054 -54 1076 10 1036 l 229 1156 l 438 1054 b 494 1125 494 1026 538 1083 z m 392 986 l 90 986 b 57 960 71 986 57 976 l 57 954 b 113 835 57 915 113 899 l 113 151 b 57 32 113 88 57 71 l 57 26 b 90 0 57 10 71 0 l 392 0 b 425 26 413 0 425 10 l 425 32 b 364 151 425 71 364 88 l 364 835 b 425 954 364 899 425 915 l 425 960 b 392 986 425 976 413 986 z "},"Ï":{"ha":482,"x_min":0,"x_max":0,"o":"m 72 1065 b 214 1192 158 1065 214 1119 b 72 1317 214 1263 158 1317 b -71 1192 -12 1317 -71 1263 b 72 1065 -71 1119 -12 1065 z m 419 1065 b 561 1192 504 1065 561 1119 b 419 1317 561 1263 504 1317 b 276 1192 333 1317 276 1263 b 419 1065 276 1119 333 1065 z m 57 26 b 90 0 57 10 71 0 l 392 0 b 425 26 413 0 425 10 l 425 32 b 364 151 425 71 364 88 l 364 835 b 425 954 364 899 425 915 l 425 960 b 392 986 425 976 413 986 l 90 986 b 57 960 71 986 57 976 l 57 954 b 113 835 57 915 113 899 l 113 151 b 57 32 113 88 57 71 z "},"İ":{"ha":482,"x_min":0,"x_max":0,"o":"m 254 1046 b 399 1175 340 1046 399 1103 b 254 1303 399 1247 340 1303 b 107 1175 165 1303 107 1247 b 254 1046 107 1103 165 1046 z m 57 26 b 90 0 57 10 71 0 l 392 0 b 425 26 413 0 425 10 l 425 32 b 364 151 425 71 364 88 l 364 835 b 425 954 364 899 425 915 l 425 960 b 392 986 425 976 413 986 l 90 986 b 57 960 71 986 57 976 l 57 954 b 113 835 57 915 113 899 l 113 151 b 57 32 113 88 57 71 z "},"Ì":{"ha":482,"x_min":0,"x_max":0,"o":"m 365 1065 b 418 1096 389 1065 410 1075 b 396 1150 425 1118 415 1140 l 125 1283 b 47 1249 85 1303 57 1286 l 22 1149 b 69 1082 14 1113 29 1082 z m 57 26 b 90 0 57 10 71 0 l 392 0 b 425 26 413 0 425 10 l 425 32 b 364 151 425 71 364 88 l 364 835 b 425 954 364 899 425 915 l 425 960 b 392 986 425 976 413 986 l 90 986 b 57 960 71 986 57 976 l 57 954 b 113 835 57 915 113 899 l 113 151 b 57 32 113 88 57 71 z "},"Ī":{"ha":482,"x_min":0,"x_max":0,"o":"m 46 1097 l 439 1097 b 472 1131 461 1097 472 1110 l 472 1215 b 439 1247 472 1236 461 1247 l 46 1247 b 13 1215 25 1247 13 1236 l 13 1131 b 46 1097 13 1110 25 1097 z m 57 26 b 90 0 57 10 71 0 l 392 0 b 425 26 413 0 425 10 l 425 32 b 364 151 425 71 364 88 l 364 835 b 425 954 364 899 425 915 l 425 960 b 392 986 425 976 413 986 l 90 986 b 57 960 71 986 57 976 l 57 954 b 113 835 57 915 113 899 l 113 151 b 57 32 113 88 57 71 z "},"Į":{"ha":482,"x_min":0,"x_max":0,"o":"m 425 954 l 425 960 b 392 986 425 976 413 986 l 90 986 b 57 960 71 986 57 976 l 57 954 b 113 835 57 915 113 899 l 113 151 b 57 32 113 88 57 71 l 57 26 b 90 0 57 10 71 0 l 192 0 b 51 -185 89 -58 51 -119 b 219 -312 51 -283 144 -312 b 296 -300 250 -312 282 -307 b 288 -211 346 -281 332 -196 b 263 -215 278 -214 272 -215 b 222 -153 242 -215 221 -200 b 288 0 222 -115 243 -58 l 392 0 b 425 26 413 0 425 10 l 425 32 b 364 151 425 71 364 88 l 364 835 b 425 954 364 899 425 915 z "},"Ĩ":{"ha":482,"x_min":0,"x_max":0,"o":"m 161 1261 b -3 1101 74 1261 14 1186 b 18 1069 -7 1081 3 1069 l 35 1069 b 71 1094 57 1069 57 1078 b 125 1121 86 1113 103 1121 b 350 1051 194 1121 260 1051 b 510 1214 433 1051 490 1125 b 488 1246 514 1235 506 1246 l 478 1246 b 443 1226 460 1246 451 1239 b 381 1196 429 1207 414 1196 b 161 1261 321 1196 260 1261 z m 57 26 b 90 0 57 10 71 0 l 392 0 b 425 26 413 0 425 10 l 425 32 b 364 151 425 71 364 88 l 364 835 b 425 954 364 899 425 915 l 425 960 b 392 986 425 976 413 986 l 90 986 b 57 960 71 986 57 976 l 57 954 b 113 835 57 915 113 899 l 113 151 b 57 32 113 88 57 71 z "},"J":{"ha":794,"x_min":0,"x_max":0,"o":"m 443 835 l 443 288 b 358 85 443 168 418 85 b 124 361 221 85 311 361 b 11 239 56 361 11 313 b 349 -14 11 139 79 -17 b 697 442 567 -11 697 110 l 697 835 b 758 954 697 899 758 915 l 758 960 b 726 986 758 976 746 986 l 421 986 b 388 960 400 986 388 976 l 388 954 b 443 835 388 915 443 899 z "},"K":{"ha":1003,"x_min":0,"x_max":0,"o":"m 939 153 l 644 651 l 824 833 b 956 954 883 896 956 915 l 956 960 b 922 986 956 976 942 986 l 696 986 b 663 960 675 986 663 976 l 663 954 b 672 833 663 915 725 888 l 365 518 l 365 835 b 426 954 365 899 426 915 l 426 960 b 393 986 426 976 414 986 l 90 986 b 57 960 71 986 57 976 l 57 954 b 113 835 57 915 113 899 l 113 153 b 57 32 113 89 57 71 l 57 26 b 90 0 57 10 71 0 l 393 0 b 426 26 414 0 426 10 l 426 32 b 365 153 426 71 365 89 l 365 368 l 474 478 l 668 150 b 625 32 704 89 625 71 l 625 26 b 657 0 625 10 638 0 l 1000 0 b 1033 26 1021 0 1033 10 l 1033 32 b 939 153 1033 71 985 75 z "},"Ķ":{"ha":1003,"x_min":0,"x_max":0,"o":"m 939 153 l 644 651 l 824 833 b 956 954 883 896 956 915 l 956 960 b 922 986 956 976 942 986 l 696 986 b 663 960 675 986 663 976 l 663 954 b 672 833 663 915 725 888 l 365 518 l 365 835 b 426 954 365 899 426 915 l 426 960 b 393 986 426 976 414 986 l 90 986 b 57 960 71 986 57 976 l 57 954 b 113 835 57 915 113 899 l 113 153 b 57 32 113 89 57 71 l 57 26 b 90 0 57 10 71 0 l 393 0 b 426 26 414 0 426 10 l 426 32 b 365 153 426 71 365 89 l 365 368 l 474 478 l 668 150 b 625 32 704 89 625 71 l 625 26 b 657 0 625 10 638 0 l 1000 0 b 1033 26 1021 0 1033 10 l 1033 32 b 939 153 1033 71 985 75 z m 540 -42 b 417 -172 464 -42 417 -94 b 504 -286 417 -239 457 -286 b 521 -314 519 -286 522 -297 b 450 -418 517 -349 496 -372 b 489 -460 428 -442 461 -476 b 671 -190 613 -385 671 -294 b 540 -42 671 -94 608 -42 z "},"L":{"ha":844,"x_min":0,"x_max":0,"o":"m 90 0 l 746 0 b 794 44 776 0 789 14 l 831 260 b 803 294 835 281 824 294 l 783 294 b 579 97 718 294 696 97 l 435 97 b 367 188 388 97 367 142 l 367 835 b 429 954 367 899 429 915 l 429 960 b 396 986 429 976 415 986 l 90 986 b 57 960 71 986 57 976 l 57 954 b 113 835 57 915 113 899 l 113 151 b 57 32 113 88 57 71 l 57 26 b 90 0 57 10 71 0 z "},"Ĺ":{"ha":844,"x_min":0,"x_max":0,"o":"m 131 1075 l 425 1101 b 469 1169 465 1104 481 1133 l 442 1269 b 363 1301 431 1306 401 1322 l 96 1158 b 76 1103 78 1147 68 1125 b 131 1075 86 1083 107 1074 z m 90 0 l 746 0 b 794 44 776 0 789 14 l 831 260 b 803 294 835 281 824 294 l 783 294 b 579 97 718 294 696 97 l 435 97 b 367 188 388 97 367 142 l 367 835 b 429 954 367 899 429 915 l 429 960 b 396 986 429 976 415 986 l 90 986 b 57 960 71 986 57 976 l 57 954 b 113 835 57 915 113 899 l 113 151 b 57 32 113 88 57 71 l 57 26 b 90 0 57 10 71 0 z "},"Ľ":{"ha":851,"x_min":0,"x_max":0,"o":"m 554 733 b 610 735 572 721 594 726 b 776 1053 697 788 776 904 b 735 1093 776 1078 760 1093 l 640 1093 b 604 1053 619 1093 604 1074 b 535 790 604 968 592 864 b 539 743 521 771 526 753 z m 90 0 l 746 0 b 794 44 776 0 789 14 l 831 260 b 803 294 835 281 824 294 l 783 294 b 579 97 718 294 696 97 l 435 97 b 367 188 388 97 367 142 l 367 835 b 429 954 367 899 429 915 l 429 960 b 396 986 429 976 415 986 l 90 986 b 57 960 71 986 57 976 l 57 954 b 113 835 57 915 113 899 l 113 151 b 57 32 113 88 57 71 l 57 26 b 90 0 57 10 71 0 z "},"Ļ":{"ha":844,"x_min":0,"x_max":0,"o":"m 90 0 l 746 0 b 794 44 776 0 789 14 l 831 260 b 803 294 835 281 824 294 l 783 294 b 579 97 718 294 696 97 l 435 97 b 367 188 388 97 367 142 l 367 835 b 429 954 367 899 429 915 l 429 960 b 396 986 429 976 415 986 l 90 986 b 57 960 71 986 57 976 l 57 954 b 113 835 57 915 113 899 l 113 151 b 57 32 113 88 57 71 l 57 26 b 90 0 57 10 71 0 z m 386 -460 b 568 -190 510 -385 568 -294 b 438 -42 568 -94 506 -42 b 314 -172 361 -42 314 -94 b 401 -286 314 -239 354 -286 b 417 -314 417 -286 419 -297 b 347 -418 414 -349 392 -372 b 386 -460 324 -442 358 -476 z "},"Ŀ":{"ha":853,"x_min":0,"x_max":0,"o":"m 90 0 l 746 0 b 794 44 776 0 789 14 l 831 260 b 803 294 835 281 824 294 l 783 294 b 579 97 718 294 696 97 l 435 97 b 367 188 388 97 367 142 l 367 835 b 429 954 367 899 429 915 l 429 960 b 396 986 429 976 415 986 l 90 986 b 57 960 71 986 57 976 l 57 954 b 113 835 57 915 113 899 l 113 151 b 57 32 113 88 57 71 l 57 26 b 90 0 57 10 71 0 z m 649 399 b 796 531 728 399 796 439 b 649 661 796 621 728 661 b 501 531 569 661 501 621 b 649 399 501 439 569 399 z "},"Ł":{"ha":881,"x_min":0,"x_max":0,"o":"m 839 294 l 819 294 b 615 97 754 294 732 97 l 471 97 b 403 188 424 97 403 142 l 403 465 l 547 529 b 565 571 567 538 574 549 l 556 596 b 513 614 547 617 533 624 l 403 565 l 403 835 b 465 954 403 899 465 915 l 465 960 b 432 986 465 976 451 986 l 126 986 b 93 960 107 986 93 976 l 93 954 b 149 835 93 915 149 899 l 149 451 l 39 403 b 19 363 19 396 13 382 l 32 335 b 74 318 39 315 53 310 l 149 351 l 149 151 b 93 32 149 88 93 71 l 93 26 b 126 0 93 10 107 0 l 782 0 b 831 44 813 0 825 14 l 867 260 b 839 294 871 281 860 294 z "},"M":{"ha":1251,"x_min":0,"x_max":0,"o":"m 1181 153 l 1053 831 b 1107 954 1040 897 1107 915 l 1107 960 b 1075 986 1107 976 1094 986 l 886 986 b 814 933 850 986 826 968 l 619 347 l 418 936 b 343 986 406 969 381 986 l 160 986 b 128 960 140 986 128 976 l 128 954 b 182 833 128 914 192 897 l 76 153 b 19 32 67 88 19 71 l 19 26 b 53 0 19 10 32 0 l 225 0 b 258 26 244 0 258 10 l 258 32 b 208 153 258 71 199 88 l 283 660 l 526 40 b 585 1 539 13 556 1 b 635 42 613 1 625 14 l 847 638 l 931 153 b 882 32 942 89 882 71 l 882 26 b 915 0 882 10 894 0 l 1204 0 b 1238 26 1224 0 1238 10 l 1238 32 b 1181 153 1238 71 1193 88 z "},"N":{"ha":1054,"x_min":0,"x_max":0,"o":"m 978 986 l 796 986 b 763 960 776 986 763 976 l 763 954 b 824 835 763 915 824 899 l 824 314 l 372 942 b 297 986 351 971 332 986 l 90 986 b 57 960 69 986 57 976 l 57 954 b 113 833 57 914 113 897 l 113 153 b 57 32 113 89 57 71 l 57 26 b 90 0 57 10 69 0 l 268 0 b 303 26 289 0 303 10 l 303 32 b 238 153 303 71 238 89 l 238 704 l 733 46 b 806 0 754 17 774 0 l 885 0 b 949 65 925 0 949 24 l 949 835 b 1011 954 949 899 1011 915 l 1011 960 b 978 986 1011 976 997 986 z "},"Ń":{"ha":1054,"x_min":0,"x_max":0,"o":"m 415 1075 l 710 1101 b 754 1169 750 1104 765 1133 l 726 1269 b 647 1301 715 1306 688 1322 l 381 1158 b 363 1103 363 1147 354 1125 b 415 1075 371 1083 392 1074 z m 978 986 l 796 986 b 763 960 776 986 763 976 l 763 954 b 824 835 763 915 824 899 l 824 314 l 372 942 b 297 986 351 971 332 986 l 90 986 b 57 960 69 986 57 976 l 57 954 b 113 833 57 914 113 897 l 113 153 b 57 32 113 89 57 71 l 57 26 b 90 0 57 10 69 0 l 268 0 b 303 26 289 0 303 10 l 303 32 b 238 153 303 71 238 89 l 238 704 l 733 46 b 806 0 754 17 774 0 l 885 0 b 949 65 925 0 949 24 l 949 835 b 1011 954 949 899 1011 915 l 1011 960 b 978 986 1011 976 997 986 z "},"Ň":{"ha":1054,"x_min":0,"x_max":0,"o":"m 436 1065 b 503 1039 457 1046 476 1039 l 558 1039 b 624 1064 585 1039 603 1046 l 782 1210 b 732 1267 808 1235 764 1283 l 538 1169 l 339 1267 b 288 1210 310 1281 260 1239 z m 978 986 l 796 986 b 763 960 776 986 763 976 l 763 954 b 824 835 763 915 824 899 l 824 314 l 372 942 b 297 986 351 971 332 986 l 90 986 b 57 960 69 986 57 976 l 57 954 b 113 833 57 914 113 897 l 113 153 b 57 32 113 89 57 71 l 57 26 b 90 0 57 10 69 0 l 268 0 b 303 26 289 0 303 10 l 303 32 b 238 153 303 71 238 89 l 238 704 l 733 46 b 806 0 754 17 774 0 l 885 0 b 949 65 925 0 949 24 l 949 835 b 1011 954 949 899 1011 915 l 1011 960 b 978 986 1011 976 997 986 z "},"Ņ":{"ha":1054,"x_min":0,"x_max":0,"o":"m 978 986 l 796 986 b 763 960 776 986 763 976 l 763 954 b 824 835 763 915 824 899 l 824 314 l 372 942 b 297 986 351 971 332 986 l 90 986 b 57 960 69 986 57 976 l 57 954 b 113 833 57 914 113 897 l 113 153 b 57 32 113 89 57 71 l 57 26 b 90 0 57 10 69 0 l 268 0 b 303 26 289 0 303 10 l 303 32 b 238 153 303 71 238 89 l 238 704 l 733 46 b 806 0 754 17 774 0 l 885 0 b 949 65 925 0 949 24 l 949 835 b 1011 954 949 899 1011 915 l 1011 960 b 978 986 1011 976 997 986 z m 538 -42 b 414 -172 461 -42 414 -94 b 501 -286 414 -239 454 -286 b 518 -314 517 -286 519 -297 b 447 -418 514 -349 493 -372 b 486 -460 425 -442 458 -476 b 668 -190 610 -385 668 -294 b 538 -42 668 -94 606 -42 z "},"Ŋ":{"ha":1057,"x_min":0,"x_max":0,"o":"m 978 986 l 800 986 b 767 960 781 986 767 976 l 767 954 b 824 833 767 915 824 897 l 824 283 l 344 942 b 271 986 325 969 304 986 l 90 986 b 57 960 69 986 57 976 l 57 954 b 113 833 57 915 113 897 l 113 153 b 57 32 113 89 57 71 l 57 26 b 90 0 57 10 69 0 l 268 0 b 301 26 289 0 301 10 l 301 32 b 238 153 301 71 238 89 l 238 731 l 824 -12 l 824 -33 b 718 -224 824 -136 794 -224 b 510 43 588 -224 675 43 b 393 -82 442 43 393 -3 b 682 -311 393 -172 474 -312 b 949 -12 879 -308 949 -189 l 949 833 b 1011 954 949 897 1011 915 l 1011 960 b 978 986 1011 976 997 986 z "},"Ñ":{"ha":1054,"x_min":0,"x_max":0,"o":"m 314 1069 l 329 1069 b 367 1094 351 1069 353 1078 b 419 1121 382 1113 397 1121 b 644 1051 490 1121 556 1051 b 806 1214 728 1051 786 1125 b 782 1246 810 1235 801 1246 l 772 1246 b 738 1226 756 1246 747 1239 b 676 1196 725 1207 710 1196 b 456 1261 617 1196 554 1261 b 292 1101 369 1261 308 1186 b 314 1069 288 1081 299 1069 z m 978 986 l 796 986 b 763 960 776 986 763 976 l 763 954 b 824 835 763 915 824 899 l 824 314 l 372 942 b 297 986 351 971 332 986 l 90 986 b 57 960 69 986 57 976 l 57 954 b 113 833 57 914 113 897 l 113 153 b 57 32 113 89 57 71 l 57 26 b 90 0 57 10 69 0 l 268 0 b 303 26 289 0 303 10 l 303 32 b 238 153 303 71 238 89 l 238 704 l 733 46 b 806 0 754 17 774 0 l 885 0 b 949 65 925 0 949 24 l 949 835 b 1011 954 949 899 1011 915 l 1011 960 b 978 986 1011 976 997 986 z "},"O":{"ha":1053,"x_min":0,"x_max":0,"o":"m 528 -14 b 1017 486 799 -14 1017 185 b 526 1000 1017 785 793 1000 b 36 488 233 1000 36 792 b 528 -14 36 190 264 -14 z m 600 90 b 281 693 433 90 281 429 b 436 896 281 822 338 896 b 758 289 603 896 758 526 b 600 90 758 167 701 90 z "},"Ó":{"ha":1053,"x_min":0,"x_max":0,"o":"m 397 1075 l 692 1101 b 736 1169 732 1104 747 1133 l 708 1269 b 629 1301 697 1306 668 1322 l 363 1158 b 344 1103 344 1147 335 1125 b 397 1075 353 1083 374 1074 z m 528 -14 b 1017 486 799 -14 1017 185 b 526 1000 1017 785 793 1000 b 36 488 233 1000 36 792 b 528 -14 36 190 264 -14 z m 600 90 b 281 693 433 90 281 429 b 436 896 281 822 338 896 b 758 289 603 896 758 526 b 600 90 758 167 701 90 z "},"Ô":{"ha":1053,"x_min":0,"x_max":0,"o":"m 319 1054 l 506 1156 l 714 1054 b 771 1125 771 1026 814 1083 l 601 1285 b 535 1311 582 1304 563 1311 l 488 1311 b 421 1283 460 1311 442 1306 l 268 1125 b 319 1054 222 1076 286 1036 z m 526 1000 b 36 488 233 1000 36 792 b 528 -14 36 190 264 -14 b 1017 486 799 -14 1017 185 b 526 1000 1017 785 793 1000 z m 600 90 b 281 693 433 90 281 429 b 436 896 281 822 338 896 b 758 289 603 896 758 526 b 600 90 758 167 701 90 z "},"Ö":{"ha":1053,"x_min":0,"x_max":0,"o":"m 349 1065 b 490 1192 435 1065 490 1119 b 349 1317 490 1263 435 1317 b 206 1192 264 1317 206 1263 b 349 1065 206 1119 264 1065 z m 696 1065 b 838 1192 781 1065 838 1119 b 696 1317 838 1263 781 1317 b 553 1192 610 1317 553 1263 b 696 1065 553 1119 610 1065 z m 528 -14 b 1017 486 799 -14 1017 185 b 526 1000 1017 785 793 1000 b 36 488 233 1000 36 792 b 528 -14 36 190 264 -14 z m 600 90 b 281 693 433 90 281 429 b 436 896 281 822 338 896 b 758 289 603 896 758 526 b 600 90 758 167 701 90 z "},"Ò":{"ha":1053,"x_min":0,"x_max":0,"o":"m 642 1065 b 694 1096 665 1065 686 1075 b 672 1150 701 1118 692 1140 l 401 1283 b 324 1249 361 1303 333 1286 l 299 1149 b 346 1082 290 1113 306 1082 z m 528 -14 b 1017 486 799 -14 1017 185 b 526 1000 1017 785 793 1000 b 36 488 233 1000 36 792 b 528 -14 36 190 264 -14 z m 600 90 b 281 693 433 90 281 429 b 436 896 281 822 338 896 b 758 289 603 896 758 526 b 600 90 758 167 701 90 z "},"Ő":{"ha":1053,"x_min":0,"x_max":0,"o":"m 307 1017 b 351 1021 319 1006 335 1008 l 586 1194 b 585 1276 619 1217 615 1250 l 535 1324 b 454 1308 507 1351 476 1346 l 310 1063 b 307 1017 299 1043 296 1026 z m 604 1017 b 650 1021 617 1006 633 1008 l 883 1194 b 882 1276 915 1217 913 1249 l 833 1324 b 751 1308 804 1351 775 1346 l 607 1063 b 604 1017 596 1043 592 1028 z m 528 -14 b 1017 486 799 -14 1017 185 b 526 1000 1017 785 793 1000 b 36 488 233 1000 36 792 b 528 -14 36 190 264 -14 z m 600 90 b 281 693 433 90 281 429 b 436 896 281 822 338 896 b 758 289 603 896 758 526 b 600 90 758 167 701 90 z "},"Ō":{"ha":1053,"x_min":0,"x_max":0,"o":"m 322 1097 l 715 1097 b 749 1131 738 1097 749 1110 l 749 1215 b 715 1247 749 1236 738 1247 l 322 1247 b 289 1215 300 1247 289 1236 l 289 1131 b 322 1097 289 1110 300 1097 z m 528 -14 b 1017 486 799 -14 1017 185 b 526 1000 1017 785 793 1000 b 36 488 233 1000 36 792 b 528 -14 36 190 264 -14 z m 600 90 b 281 693 433 90 281 429 b 436 896 281 822 338 896 b 758 289 603 896 758 526 b 600 90 758 167 701 90 z "},"Ǫ":{"ha":1053,"x_min":0,"x_max":0,"o":"m 672 6 b 1017 486 872 63 1017 240 b 526 1000 1017 785 793 1000 b 36 488 233 1000 36 792 b 528 -14 36 190 264 -14 l 547 -14 b 429 -185 463 -68 429 -126 b 597 -312 429 -283 522 -312 b 674 -301 629 -312 661 -307 b 665 -211 725 -281 711 -196 b 640 -217 656 -214 650 -217 b 601 -154 619 -217 600 -200 b 672 6 601 -114 624 -56 z m 281 693 b 436 896 281 822 338 896 b 758 289 603 896 758 526 b 600 90 758 167 701 90 b 281 693 433 90 281 429 z "},"Ø":{"ha":1068,"x_min":0,"x_max":0,"o":"m 1014 899 b 1019 938 1026 911 1029 926 l 983 971 b 940 965 972 982 954 979 l 851 881 b 533 1000 765 956 654 1000 b 44 488 242 1000 44 792 b 135 192 44 374 78 272 l 50 111 b 43 69 35 96 32 81 l 79 38 b 117 38 90 28 106 28 l 200 117 b 536 -14 289 35 408 -14 b 1024 486 807 -14 1024 185 b 919 808 1024 611 985 722 z m 289 693 b 444 896 289 822 344 896 b 660 697 524 896 601 811 l 343 393 b 289 693 310 489 289 596 z m 767 289 b 608 90 767 167 708 90 b 385 294 525 90 444 176 l 703 600 b 767 289 743 496 767 382 z "},"Ǿ":{"ha":1068,"x_min":0,"x_max":0,"o":"m 407 1075 l 701 1101 b 746 1169 742 1104 757 1133 l 718 1269 b 639 1301 707 1306 678 1322 l 372 1158 b 354 1103 354 1147 344 1125 b 407 1075 363 1083 383 1074 z m 1014 899 b 1019 938 1026 911 1029 926 l 983 971 b 940 965 972 982 954 979 l 851 881 b 533 1000 765 956 654 1000 b 44 488 242 1000 44 792 b 135 192 44 374 78 272 l 50 111 b 43 69 35 96 32 81 l 79 38 b 117 38 90 28 106 28 l 200 117 b 536 -14 289 35 408 -14 b 1024 486 807 -14 1024 185 b 919 808 1024 611 985 722 z m 289 693 b 444 896 289 822 344 896 b 660 697 524 896 601 811 l 343 393 b 289 693 310 489 289 596 z m 767 289 b 608 90 767 167 708 90 b 385 294 525 90 444 176 l 703 600 b 767 289 743 496 767 382 z "},"Õ":{"ha":1053,"x_min":0,"x_max":0,"o":"m 439 1261 b 274 1101 351 1261 290 1186 b 296 1069 271 1081 281 1069 l 311 1069 b 349 1094 333 1069 335 1078 b 403 1121 364 1113 381 1121 b 626 1051 472 1121 538 1051 b 788 1214 710 1051 768 1125 b 765 1246 792 1235 783 1246 l 754 1246 b 721 1226 738 1246 729 1239 b 658 1196 707 1207 692 1196 b 439 1261 599 1196 538 1261 z m 528 -14 b 1017 486 799 -14 1017 185 b 526 1000 1017 785 793 1000 b 36 488 233 1000 36 792 b 528 -14 36 190 264 -14 z m 600 90 b 281 693 433 90 281 429 b 436 896 281 822 338 896 b 758 289 603 896 758 526 b 600 90 758 167 701 90 z "},"Œ":{"ha":1444,"x_min":0,"x_max":0,"o":"m 1399 258 l 1374 258 b 1176 97 1313 258 1293 97 l 1033 97 b 951 186 971 97 951 140 l 951 446 l 1103 446 b 1224 340 1178 446 1185 340 l 1236 340 b 1263 374 1253 340 1263 353 l 1263 621 b 1236 654 1263 642 1253 654 l 1224 654 b 1103 543 1185 654 1178 543 l 951 543 l 951 824 b 1014 890 951 874 981 890 l 1146 890 b 1333 740 1240 890 1268 740 l 1349 740 b 1383 779 1374 740 1388 754 l 1356 943 b 1307 986 1350 974 1338 986 l 756 986 b 722 960 735 986 722 976 l 722 954 b 725 938 722 949 724 943 b 489 1000 656 978 575 1000 b 35 488 217 1000 35 793 b 514 -14 35 183 271 -14 b 724 42 590 -14 661 6 b 722 32 722 39 722 35 l 722 26 b 756 0 722 10 735 0 l 1343 0 b 1390 44 1374 0 1386 14 l 1425 226 b 1399 258 1429 244 1418 258 z m 599 90 b 279 693 439 90 279 442 b 433 896 279 822 336 896 b 757 289 594 896 757 507 b 599 90 757 161 699 90 z "},"P":{"ha":903,"x_min":0,"x_max":0,"o":"m 90 0 l 396 0 b 429 26 415 0 429 10 l 429 32 b 367 151 429 71 367 88 l 367 313 l 482 313 b 879 657 722 313 879 449 b 436 986 879 892 688 986 l 90 986 b 57 960 69 986 57 976 l 57 954 b 113 835 57 915 113 897 l 113 151 b 57 32 113 88 57 71 l 57 26 b 90 0 57 10 69 0 z m 431 410 b 367 476 385 410 367 433 l 367 824 b 417 890 367 865 385 890 l 436 890 b 618 599 522 890 618 781 b 482 410 618 499 574 410 z "},"Þ":{"ha":913,"x_min":0,"x_max":0,"o":"m 90 0 l 392 0 b 425 26 413 0 425 10 l 425 32 b 364 153 425 71 364 89 l 364 190 l 454 190 b 885 503 701 190 885 296 b 432 810 885 710 697 810 l 364 810 l 364 833 b 425 954 364 899 425 915 l 425 960 b 392 986 425 976 413 986 l 90 986 b 57 960 71 986 57 976 l 57 954 b 113 833 57 915 113 899 l 113 153 b 57 32 113 89 57 71 l 57 26 b 90 0 57 10 71 0 z m 414 288 b 364 338 382 288 364 306 l 364 661 b 414 713 364 693 382 713 l 444 713 b 624 468 529 713 624 621 b 478 288 624 344 564 288 z "},"Q":{"ha":1053,"x_min":0,"x_max":0,"o":"m 1057 -68 b 871 -96 1025 -71 990 -96 b 586 -11 743 -96 664 -51 b 1017 486 829 15 1017 207 b 526 1000 1017 785 793 1000 b 36 488 233 1000 36 792 b 290 46 36 286 140 128 b 138 -60 217 28 165 -15 b 156 -131 117 -92 125 -132 b 322 -101 183 -125 242 -101 b 818 -258 535 -101 611 -258 b 1076 -92 956 -258 1071 -178 b 1057 -68 1079 -76 1068 -67 z m 436 896 b 758 289 603 896 758 526 b 600 90 758 167 701 90 b 281 693 433 90 281 429 b 436 896 281 822 338 896 z "},"R":{"ha":975,"x_min":0,"x_max":0,"o":"m 876 151 l 711 411 b 885 672 828 467 885 571 b 464 986 883 881 718 986 l 90 986 b 57 960 71 986 57 976 l 57 954 b 113 835 57 915 113 899 l 113 151 b 57 32 113 88 57 71 l 57 26 b 90 0 57 10 71 0 l 396 0 b 429 26 415 0 429 10 l 429 32 b 367 151 429 71 367 88 l 367 368 l 494 371 l 613 151 b 578 32 647 83 578 71 l 578 26 b 611 0 578 10 592 0 l 950 0 b 983 26 971 0 983 10 l 983 32 b 876 151 983 71 925 76 z m 367 574 l 367 817 b 419 889 367 858 388 889 l 444 889 b 622 646 529 889 622 796 b 496 467 622 519 565 467 l 454 467 b 367 574 397 467 367 493 z "},"Ŕ":{"ha":975,"x_min":0,"x_max":0,"o":"m 347 1075 l 642 1101 b 686 1169 682 1104 697 1133 l 658 1269 b 579 1301 647 1306 619 1322 l 313 1158 b 294 1103 294 1147 286 1125 b 347 1075 303 1083 324 1074 z m 876 151 l 711 411 b 885 672 828 467 885 571 b 464 986 883 881 718 986 l 90 986 b 57 960 71 986 57 976 l 57 954 b 113 835 57 915 113 899 l 113 151 b 57 32 113 88 57 71 l 57 26 b 90 0 57 10 71 0 l 396 0 b 429 26 415 0 429 10 l 429 32 b 367 151 429 71 367 88 l 367 368 l 494 371 l 613 151 b 578 32 647 83 578 71 l 578 26 b 611 0 578 10 592 0 l 950 0 b 983 26 971 0 983 10 l 983 32 b 876 151 983 71 925 76 z m 367 574 l 367 817 b 419 889 367 858 388 889 l 444 889 b 622 646 529 889 622 796 b 496 467 622 519 565 467 l 454 467 b 367 574 397 467 367 493 z "},"Ř":{"ha":975,"x_min":0,"x_max":0,"o":"m 371 1065 b 438 1039 392 1046 410 1039 l 492 1039 b 558 1064 519 1039 538 1046 l 717 1210 b 667 1267 743 1235 699 1283 l 471 1171 l 272 1267 b 222 1210 243 1281 194 1239 z m 876 151 l 711 411 b 885 672 828 467 885 571 b 464 986 883 881 718 986 l 90 986 b 57 960 71 986 57 976 l 57 954 b 113 835 57 915 113 899 l 113 151 b 57 32 113 88 57 71 l 57 26 b 90 0 57 10 71 0 l 396 0 b 429 26 415 0 429 10 l 429 32 b 367 151 429 71 367 88 l 367 368 l 494 371 l 613 151 b 578 32 647 83 578 71 l 578 26 b 611 0 578 10 592 0 l 950 0 b 983 26 971 0 983 10 l 983 32 b 876 151 983 71 925 76 z m 367 574 l 367 817 b 419 889 367 858 388 889 l 444 889 b 622 646 529 889 622 796 b 496 467 622 519 565 467 l 454 467 b 367 574 397 467 367 493 z "},"Ŗ":{"ha":975,"x_min":0,"x_max":0,"o":"m 876 151 l 711 411 b 885 672 828 467 885 571 b 464 986 883 881 718 986 l 90 986 b 57 960 71 986 57 976 l 57 954 b 113 835 57 915 113 899 l 113 151 b 57 32 113 88 57 71 l 57 26 b 90 0 57 10 71 0 l 396 0 b 429 26 415 0 429 10 l 429 32 b 367 151 429 71 367 88 l 367 368 l 494 371 l 613 151 b 578 32 647 83 578 71 l 578 26 b 611 0 578 10 592 0 l 950 0 b 983 26 971 0 983 10 l 983 32 b 876 151 983 71 925 76 z m 367 574 l 367 817 b 419 889 367 858 388 889 l 444 889 b 622 646 529 889 622 796 b 496 467 622 519 565 467 l 454 467 b 367 574 397 467 367 493 z m 494 -17 b 371 -149 419 -17 371 -71 b 460 -262 371 -215 411 -262 b 475 -289 474 -262 476 -274 b 404 -394 472 -325 450 -349 b 443 -436 382 -417 415 -453 b 625 -165 568 -361 625 -269 b 494 -17 625 -71 563 -17 z "},"S":{"ha":881,"x_min":0,"x_max":0,"o":"m 458 -14 b 840 274 664 -14 840 90 b 297 786 840 663 297 489 b 426 908 297 854 339 908 b 724 649 599 908 556 649 b 829 750 794 649 829 689 b 431 999 831 876 661 999 b 54 699 201 999 54 875 b 600 193 56 292 600 464 b 468 78 600 121 549 78 b 138 338 260 78 288 336 b 38 239 68 338 38 297 b 458 -14 38 115 204 -14 z "},"Ś":{"ha":882,"x_min":0,"x_max":0,"o":"m 326 1075 l 621 1101 b 667 1169 663 1104 676 1133 l 638 1269 b 560 1301 628 1306 599 1322 l 293 1158 b 274 1103 275 1147 265 1125 b 326 1075 282 1083 304 1074 z m 458 -14 b 840 274 664 -14 840 90 b 297 786 840 663 297 489 b 426 908 297 854 339 908 b 724 649 599 908 556 649 b 829 750 794 649 829 689 b 431 999 831 876 661 999 b 54 699 201 999 54 875 b 600 193 56 292 600 464 b 468 78 600 121 549 78 b 138 338 260 78 288 336 b 38 239 68 338 38 297 b 458 -14 38 115 204 -14 z "},"Š":{"ha":882,"x_min":0,"x_max":0,"o":"m 346 1065 b 413 1039 367 1046 386 1039 l 468 1039 b 533 1064 494 1039 513 1046 l 692 1210 b 642 1267 718 1235 674 1283 l 447 1169 l 249 1267 b 197 1210 219 1281 169 1239 z m 297 786 b 426 908 297 854 339 908 b 724 649 599 908 556 649 b 829 750 794 649 829 689 b 431 999 831 876 661 999 b 54 699 201 999 54 875 b 600 193 56 292 600 464 b 468 78 600 121 549 78 b 138 338 260 78 288 336 b 38 239 68 338 38 297 b 458 -14 38 115 204 -14 b 840 274 664 -14 840 90 b 297 786 840 663 297 489 z "},"Ş":{"ha":882,"x_min":0,"x_max":0,"o":"m 840 274 b 297 786 840 663 297 489 b 426 908 297 854 339 908 b 724 649 599 908 556 649 b 829 750 794 649 829 689 b 431 999 831 876 661 999 b 54 699 201 999 54 875 b 600 193 56 292 600 464 b 468 78 600 121 549 78 b 138 338 260 78 288 336 b 38 239 68 338 38 297 b 400 -11 38 125 179 6 l 385 -90 b 421 -132 379 -122 397 -132 b 503 -179 451 -132 503 -142 b 432 -231 503 -214 469 -231 b 351 -214 406 -231 369 -224 b 349 -294 322 -199 308 -275 b 471 -314 371 -304 411 -314 b 674 -189 576 -314 674 -275 b 497 -71 674 -101 582 -68 l 500 -12 b 840 274 688 0 840 103 z "},"Ș":{"ha":882,"x_min":0,"x_max":0,"o":"m 458 -14 b 840 274 664 -14 840 90 b 297 786 840 663 297 489 b 426 908 297 854 339 908 b 724 649 599 908 556 649 b 829 750 794 649 829 689 b 431 999 831 876 661 999 b 54 699 201 999 54 875 b 600 193 56 292 600 464 b 468 78 600 121 549 78 b 138 338 260 78 288 336 b 38 239 68 338 38 297 b 458 -14 38 115 204 -14 z m 394 -460 b 576 -190 518 -385 576 -294 b 446 -42 576 -94 514 -42 b 322 -172 369 -42 322 -94 b 410 -286 322 -239 363 -286 b 426 -314 425 -286 428 -297 b 356 -418 422 -349 401 -372 b 394 -460 333 -442 367 -476 z "},"ẞ":{"ha":979,"x_min":0,"x_max":0,"o":"m 664 542 l 861 688 b 896 769 888 708 901 735 b 521 1000 872 908 707 1000 b 83 640 247 1000 83 858 l 83 153 b 28 32 83 88 28 71 l 28 26 b 60 0 28 10 40 0 l 367 0 b 399 26 386 0 399 -4 l 399 32 b 344 153 399 78 344 88 l 344 696 b 507 896 344 818 408 896 b 683 753 622 896 683 818 l 529 578 b 557 474 499 542 511 474 b 688 276 638 474 688 386 b 544 97 688 160 632 97 b 553 0 493 97 486 0 b 951 279 797 0 951 110 b 664 542 951 425 836 522 z "},"T":{"ha":890,"x_min":0,"x_max":0,"o":"m 292 0 l 596 0 b 629 26 617 0 629 10 l 629 32 b 569 151 629 71 569 88 l 569 882 l 642 882 b 819 714 736 882 754 714 l 843 714 b 878 753 867 714 882 729 l 849 943 b 801 986 844 974 832 986 l 88 986 b 40 943 57 986 43 974 l 13 754 b 47 714 10 729 24 714 l 71 714 b 246 882 136 714 153 882 l 319 882 l 319 151 b 260 32 319 88 260 71 l 260 26 b 292 0 260 10 272 0 z "},"Ŧ":{"ha":892,"x_min":0,"x_max":0,"o":"m 878 753 l 850 943 b 801 986 846 974 832 986 l 89 986 b 40 943 57 986 44 974 l 14 754 b 49 714 10 729 25 714 l 72 714 b 247 882 138 714 153 882 l 319 882 l 319 551 l 222 551 b 199 528 210 551 199 544 l 199 481 b 222 458 199 463 210 458 l 319 458 l 319 151 b 261 32 319 88 261 71 l 261 26 b 293 0 261 10 274 0 l 597 0 b 631 26 618 0 631 10 l 631 32 b 569 151 631 71 569 88 l 569 458 l 664 458 b 689 486 679 458 689 467 l 689 528 b 664 551 689 542 679 551 l 569 551 l 569 882 l 643 882 b 821 714 736 882 754 714 l 844 714 b 878 753 868 714 882 729 z "},"Ť":{"ha":890,"x_min":0,"x_max":0,"o":"m 347 1065 b 413 1039 367 1046 386 1039 l 468 1039 b 533 1064 494 1039 513 1046 l 692 1210 b 642 1267 718 1235 675 1283 l 447 1169 l 249 1267 b 199 1210 219 1281 169 1239 z m 878 753 l 849 943 b 801 986 844 974 832 986 l 88 986 b 40 943 57 986 43 974 l 13 754 b 47 714 10 729 24 714 l 71 714 b 246 882 136 714 153 882 l 319 882 l 319 151 b 260 32 319 88 260 71 l 260 26 b 292 0 260 10 272 0 l 596 0 b 629 26 617 0 629 10 l 629 32 b 569 151 629 71 569 88 l 569 882 l 642 882 b 819 714 736 882 754 714 l 843 714 b 878 753 867 714 882 729 z "},"Ţ":{"ha":890,"x_min":0,"x_max":0,"o":"m 878 753 l 849 943 b 801 986 844 974 832 986 l 88 986 b 40 943 57 986 43 974 l 13 754 b 47 714 10 729 24 714 l 71 714 b 246 882 136 714 153 882 l 319 882 l 319 151 b 260 32 319 88 260 71 l 260 26 b 292 0 260 10 272 0 l 400 0 l 382 -90 b 418 -132 376 -122 394 -132 b 500 -179 449 -132 500 -142 b 429 -231 500 -214 467 -231 b 349 -214 403 -231 367 -224 b 346 -294 319 -199 306 -275 b 468 -314 368 -304 408 -314 b 671 -189 574 -314 671 -275 b 494 -71 671 -101 579 -68 l 497 0 l 596 0 b 629 26 617 0 629 10 l 629 32 b 569 151 629 71 569 88 l 569 882 l 642 882 b 819 714 736 882 754 714 l 843 714 b 878 753 867 714 882 729 z "},"Ț":{"ha":890,"x_min":0,"x_max":0,"o":"m 292 0 l 596 0 b 629 26 617 0 629 10 l 629 32 b 569 151 629 71 569 88 l 569 882 l 642 882 b 819 714 736 882 754 714 l 843 714 b 878 753 867 714 882 729 l 849 943 b 801 986 844 974 832 986 l 88 986 b 40 943 57 986 43 974 l 13 754 b 47 714 10 729 24 714 l 71 714 b 246 882 136 714 153 882 l 319 882 l 319 151 b 260 32 319 88 260 71 l 260 26 b 292 0 260 10 272 0 z m 393 -460 b 575 -190 517 -385 575 -294 b 444 -42 575 -94 513 -42 b 321 -172 368 -42 321 -94 b 408 -286 321 -239 361 -286 b 425 -314 424 -286 426 -297 b 354 -418 421 -349 400 -372 b 393 -460 332 -442 365 -476 z "},"U":{"ha":1001,"x_min":0,"x_max":0,"o":"m 518 -14 b 904 369 747 -14 904 118 l 904 835 b 967 954 904 899 967 915 l 967 960 b 933 986 967 976 954 986 l 757 986 b 724 960 738 986 724 976 l 724 954 b 781 835 724 915 781 899 l 781 372 b 575 90 781 146 660 90 b 350 372 431 90 350 181 l 350 835 b 411 954 350 899 411 915 l 411 960 b 378 986 411 976 399 986 l 72 986 b 39 960 53 986 39 976 l 39 954 b 94 835 39 915 94 899 l 94 372 b 518 -14 94 118 269 -14 z "},"Ú":{"ha":1001,"x_min":0,"x_max":0,"o":"m 388 1075 l 682 1101 b 728 1169 724 1104 738 1133 l 699 1269 b 621 1301 689 1306 660 1322 l 354 1158 b 335 1103 336 1147 326 1125 b 388 1075 343 1083 364 1074 z m 518 -14 b 904 369 747 -14 904 118 l 904 835 b 967 954 904 899 967 915 l 967 960 b 933 986 967 976 954 986 l 757 986 b 724 960 738 986 724 976 l 724 954 b 781 835 724 915 781 899 l 781 372 b 575 90 781 146 660 90 b 350 372 431 90 350 181 l 350 835 b 411 954 350 899 411 915 l 411 960 b 378 986 411 976 399 986 l 72 986 b 39 960 53 986 39 976 l 39 954 b 94 835 39 915 94 899 l 94 372 b 518 -14 94 118 269 -14 z "},"Û":{"ha":1001,"x_min":0,"x_max":0,"o":"m 310 1054 l 494 1156 l 703 1054 b 760 1125 761 1026 803 1083 l 590 1285 b 525 1311 571 1304 551 1311 l 476 1311 b 411 1283 450 1311 432 1306 l 258 1125 b 310 1054 211 1076 276 1036 z m 933 986 l 757 986 b 724 960 738 986 724 976 l 724 954 b 781 835 724 915 781 899 l 781 372 b 575 90 781 146 660 90 b 350 372 431 90 350 181 l 350 835 b 411 954 350 899 411 915 l 411 960 b 378 986 411 976 399 986 l 72 986 b 39 960 53 986 39 976 l 39 954 b 94 835 39 915 94 899 l 94 372 b 518 -14 94 118 269 -14 b 904 369 747 -14 904 118 l 904 835 b 967 954 904 899 967 915 l 967 960 b 933 986 967 976 954 986 z "},"Ü":{"ha":1001,"x_min":0,"x_max":0,"o":"m 340 1065 b 482 1192 425 1065 482 1119 b 340 1317 482 1263 425 1317 b 197 1192 254 1317 197 1263 b 340 1065 197 1119 254 1065 z m 686 1065 b 829 1192 771 1065 829 1119 b 686 1317 829 1263 771 1317 b 544 1192 601 1317 544 1263 b 686 1065 544 1119 601 1065 z m 518 -14 b 904 369 747 -14 904 118 l 904 835 b 967 954 904 899 967 915 l 967 960 b 933 986 967 976 954 986 l 757 986 b 724 960 738 986 724 976 l 724 954 b 781 835 724 915 781 899 l 781 372 b 575 90 781 146 660 90 b 350 372 431 90 350 181 l 350 835 b 411 954 350 899 411 915 l 411 960 b 378 986 411 976 399 986 l 72 986 b 39 960 53 986 39 976 l 39 954 b 94 835 39 915 94 899 l 94 372 b 518 -14 94 118 269 -14 z "},"Ù":{"ha":1001,"x_min":0,"x_max":0,"o":"m 642 1065 b 693 1096 665 1065 686 1075 b 672 1150 701 1118 692 1140 l 401 1283 b 324 1249 361 1303 332 1286 l 299 1149 b 346 1082 290 1113 306 1082 z m 518 -14 b 904 369 747 -14 904 118 l 904 835 b 967 954 904 899 967 915 l 967 960 b 933 986 967 976 954 986 l 757 986 b 724 960 738 986 724 976 l 724 954 b 781 835 724 915 781 899 l 781 372 b 575 90 781 146 660 90 b 350 372 431 90 350 181 l 350 835 b 411 954 350 899 411 915 l 411 960 b 378 986 411 976 399 986 l 72 986 b 39 960 53 986 39 976 l 39 954 b 94 835 39 915 94 899 l 94 372 b 518 -14 94 118 269 -14 z "},"Ű":{"ha":1001,"x_min":0,"x_max":0,"o":"m 297 1017 b 343 1021 310 1006 326 1008 l 576 1194 b 575 1276 610 1217 606 1250 l 526 1324 b 444 1308 497 1351 468 1346 l 300 1063 b 297 1017 289 1043 286 1026 z m 594 1017 b 640 1021 607 1006 624 1008 l 874 1194 b 874 1276 907 1217 903 1249 l 824 1324 b 743 1308 794 1351 765 1346 l 597 1063 b 594 1017 588 1043 583 1028 z m 518 -14 b 904 369 747 -14 904 118 l 904 835 b 967 954 904 899 967 915 l 967 960 b 933 986 967 976 954 986 l 757 986 b 724 960 738 986 724 976 l 724 954 b 781 835 724 915 781 899 l 781 372 b 575 90 781 146 660 90 b 350 372 431 90 350 181 l 350 835 b 411 954 350 899 411 915 l 411 960 b 378 986 411 976 399 986 l 72 986 b 39 960 53 986 39 976 l 39 954 b 94 835 39 915 94 899 l 94 372 b 518 -14 94 118 269 -14 z "},"Ū":{"ha":1001,"x_min":0,"x_max":0,"o":"m 314 1097 l 706 1097 b 740 1131 728 1097 740 1110 l 740 1215 b 706 1247 740 1236 728 1247 l 314 1247 b 281 1215 292 1247 281 1236 l 281 1131 b 314 1097 281 1110 292 1097 z m 518 -14 b 904 369 747 -14 904 118 l 904 835 b 967 954 904 899 967 915 l 967 960 b 933 986 967 976 954 986 l 757 986 b 724 960 738 986 724 976 l 724 954 b 781 835 724 915 781 899 l 781 372 b 575 90 781 146 660 90 b 350 372 431 90 350 181 l 350 835 b 411 954 350 899 411 915 l 411 960 b 378 986 411 976 399 986 l 72 986 b 39 960 53 986 39 976 l 39 954 b 94 835 39 915 94 899 l 94 372 b 518 -14 94 118 269 -14 z "},"Ų":{"ha":1001,"x_min":0,"x_max":0,"o":"m 933 986 l 757 986 b 724 960 738 986 724 976 l 724 954 b 781 835 724 915 781 899 l 781 372 b 575 90 781 146 660 90 b 350 372 431 90 350 181 l 350 835 b 411 954 350 899 411 915 l 411 960 b 378 986 411 976 399 986 l 72 986 b 39 960 53 986 39 976 l 39 954 b 94 835 39 915 94 899 l 94 372 b 493 -14 94 126 258 -6 b 381 -182 413 -68 381 -124 b 549 -310 381 -279 474 -310 b 625 -297 581 -310 613 -304 b 617 -208 676 -278 663 -193 b 592 -212 607 -211 601 -212 b 553 -150 571 -212 551 -197 b 611 -6 553 -115 571 -62 b 904 369 789 26 904 154 l 904 835 b 967 954 904 899 967 915 l 967 960 b 933 986 967 976 954 986 z "},"Ů":{"ha":1001,"x_min":0,"x_max":0,"o":"m 519 1026 b 729 1188 647 1026 729 1090 b 521 1338 729 1275 640 1338 b 314 1178 399 1338 314 1276 b 519 1026 314 1092 401 1026 z m 521 1093 b 456 1183 486 1093 456 1128 b 521 1267 456 1249 486 1267 b 586 1183 557 1267 586 1238 b 521 1093 586 1115 557 1093 z m 518 -14 b 904 369 747 -14 904 118 l 904 835 b 967 954 904 899 967 915 l 967 960 b 933 986 967 976 954 986 l 757 986 b 724 960 738 986 724 976 l 724 954 b 781 835 724 915 781 899 l 781 372 b 575 90 781 146 660 90 b 350 372 431 90 350 181 l 350 835 b 411 954 350 899 411 915 l 411 960 b 378 986 411 976 399 986 l 72 986 b 39 960 53 986 39 976 l 39 954 b 94 835 39 915 94 899 l 94 372 b 518 -14 94 118 269 -14 z "},"Ũ":{"ha":1001,"x_min":0,"x_max":0,"o":"m 433 1261 b 268 1101 346 1261 285 1186 b 290 1069 265 1081 275 1069 l 306 1069 b 343 1094 328 1069 329 1078 b 397 1121 358 1113 375 1121 b 621 1051 467 1121 532 1051 b 782 1214 704 1051 763 1125 b 760 1246 786 1235 778 1246 l 749 1246 b 715 1226 732 1246 724 1239 b 653 1196 701 1207 686 1196 b 433 1261 593 1196 532 1261 z m 518 -14 b 904 369 747 -14 904 118 l 904 835 b 967 954 904 899 967 915 l 967 960 b 933 986 967 976 954 986 l 757 986 b 724 960 738 986 724 976 l 724 954 b 781 835 724 915 781 899 l 781 372 b 575 90 781 146 660 90 b 350 372 431 90 350 181 l 350 835 b 411 954 350 899 411 915 l 411 960 b 378 986 411 976 399 986 l 72 986 b 39 960 53 986 39 976 l 39 954 b 94 835 39 915 94 899 l 94 372 b 518 -14 94 118 269 -14 z "},"V":{"ha":1008,"x_min":0,"x_max":0,"o":"m 982 986 l 769 986 b 736 960 749 986 736 976 l 736 954 b 799 835 736 915 824 899 l 586 281 l 363 833 b 424 954 338 897 424 915 l 424 960 b 390 986 424 976 410 986 l 19 986 b -14 960 0 986 -14 976 l -14 954 b 67 833 -14 915 33 904 l 422 64 b 514 0 443 21 468 0 b 611 69 563 0 592 21 l 933 835 b 1014 954 967 911 1014 915 l 1014 960 b 982 986 1014 976 1001 986 z "},"W":{"ha":1417,"x_min":0,"x_max":0,"o":"m 1385 986 l 1175 986 b 1142 960 1154 986 1142 976 l 1142 954 b 1199 835 1142 915 1219 899 l 1033 313 l 883 835 b 946 956 863 908 946 915 l 946 960 b 913 986 946 976 932 986 l 576 986 b 544 960 557 986 544 976 l 544 956 b 635 835 544 915 617 894 l 668 731 l 531 308 l 338 833 b 389 954 314 899 389 915 l 389 960 b 357 986 389 976 376 986 l 15 986 b -18 960 -6 986 -18 976 l -18 956 b 72 833 -18 915 40 907 l 397 64 b 488 0 415 21 436 0 b 571 69 526 0 556 22 l 729 546 l 886 64 b 978 0 900 21 933 0 b 1071 69 1021 0 1054 21 l 1333 835 b 1417 954 1358 910 1417 915 l 1417 960 b 1385 986 1417 976 1404 986 z "},"Ẃ":{"ha":1417,"x_min":0,"x_max":0,"o":"m 636 1075 l 931 1101 b 976 1169 972 1104 986 1133 l 947 1269 b 869 1301 938 1306 908 1322 l 603 1158 b 583 1103 585 1147 575 1125 b 636 1075 592 1083 614 1074 z m 1385 986 l 1175 986 b 1142 960 1154 986 1142 976 l 1142 954 b 1199 835 1142 915 1219 899 l 1033 313 l 883 835 b 946 956 863 908 946 915 l 946 960 b 913 986 946 976 932 986 l 576 986 b 544 960 557 986 544 976 l 544 956 b 635 835 544 915 617 894 l 668 731 l 531 308 l 338 833 b 389 954 314 899 389 915 l 389 960 b 357 986 389 976 376 986 l 15 986 b -18 960 -6 986 -18 976 l -18 956 b 72 833 -18 915 40 907 l 397 64 b 488 0 415 21 436 0 b 571 69 526 0 556 22 l 729 546 l 886 64 b 978 0 900 21 933 0 b 1071 69 1021 0 1054 21 l 1333 835 b 1417 954 1358 910 1417 915 l 1417 960 b 1385 986 1417 976 1404 986 z "},"Ŵ":{"ha":1417,"x_min":0,"x_max":0,"o":"m 560 1054 l 744 1156 l 953 1054 b 1010 1125 1011 1026 1053 1083 l 840 1285 b 775 1311 821 1304 801 1311 l 726 1311 b 661 1283 700 1311 681 1306 l 508 1125 b 560 1054 461 1076 525 1036 z m 1385 986 l 1175 986 b 1142 960 1154 986 1142 976 l 1142 954 b 1199 835 1142 915 1219 899 l 1033 313 l 883 835 b 946 956 863 908 946 915 l 946 960 b 913 986 946 976 932 986 l 576 986 b 544 960 557 986 544 976 l 544 956 b 635 835 544 915 617 894 l 668 731 l 531 308 l 338 833 b 389 954 314 899 389 915 l 389 960 b 357 986 389 976 376 986 l 15 986 b -18 960 -6 986 -18 976 l -18 956 b 72 833 -18 915 40 907 l 397 64 b 488 0 415 21 436 0 b 571 69 526 0 556 22 l 729 546 l 886 64 b 978 0 900 21 933 0 b 1071 69 1021 0 1054 21 l 1333 835 b 1417 954 1358 910 1417 915 l 1417 960 b 1385 986 1417 976 1404 986 z "},"Ẅ":{"ha":1417,"x_min":0,"x_max":0,"o":"m 589 1065 b 731 1192 674 1065 731 1119 b 589 1317 731 1263 674 1317 b 446 1192 503 1317 446 1263 b 589 1065 446 1119 503 1065 z m 935 1065 b 1078 1192 1019 1065 1078 1119 b 935 1317 1078 1263 1019 1317 b 793 1192 850 1317 793 1263 b 935 1065 793 1119 850 1065 z m 1385 986 l 1175 986 b 1142 960 1154 986 1142 976 l 1142 954 b 1199 835 1142 915 1219 899 l 1033 313 l 883 835 b 946 956 863 908 946 915 l 946 960 b 913 986 946 976 932 986 l 576 986 b 544 960 557 986 544 976 l 544 956 b 635 835 544 915 617 894 l 668 731 l 531 308 l 338 833 b 389 954 314 899 389 915 l 389 960 b 357 986 389 976 376 986 l 15 986 b -18 960 -6 986 -18 976 l -18 956 b 72 833 -18 915 40 907 l 397 64 b 488 0 415 21 436 0 b 571 69 526 0 556 22 l 729 546 l 886 64 b 978 0 900 21 933 0 b 1071 69 1021 0 1054 21 l 1333 835 b 1417 954 1358 910 1417 915 l 1417 960 b 1385 986 1417 976 1404 986 z "},"Ẁ":{"ha":1417,"x_min":0,"x_max":0,"o":"m 586 1082 l 882 1065 b 933 1096 904 1065 926 1075 b 913 1150 942 1118 932 1140 l 642 1283 b 564 1249 601 1303 572 1286 l 539 1149 b 586 1082 531 1113 546 1082 z m 1385 986 l 1175 986 b 1142 960 1154 986 1142 976 l 1142 954 b 1199 835 1142 915 1219 899 l 1033 313 l 883 835 b 946 956 863 908 946 915 l 946 960 b 913 986 946 976 932 986 l 576 986 b 544 960 557 986 544 976 l 544 956 b 635 835 544 915 617 894 l 668 731 l 531 308 l 338 833 b 389 954 314 899 389 915 l 389 960 b 357 986 389 976 376 986 l 15 986 b -18 960 -6 986 -18 976 l -18 956 b 72 833 -18 915 40 907 l 397 64 b 488 0 415 21 436 0 b 571 69 526 0 556 22 l 729 546 l 886 64 b 978 0 900 21 933 0 b 1071 69 1021 0 1054 21 l 1333 835 b 1417 954 1358 910 1417 915 l 1417 960 b 1385 986 1417 976 1404 986 z "},"X":{"ha":1008,"x_min":0,"x_max":0,"o":"m 904 151 l 643 507 l 874 835 b 1003 954 921 901 1003 915 l 1003 960 b 969 986 1003 976 989 986 l 714 986 b 681 960 693 986 681 976 l 681 954 b 725 835 681 915 763 889 l 571 604 l 401 835 b 436 954 361 889 436 915 l 436 960 b 403 986 436 976 424 986 l 38 986 b 4 960 18 986 4 976 l 4 954 b 111 835 4 915 60 904 l 364 486 l 119 151 b 1 32 72 88 1 71 l 1 26 b 35 0 1 10 14 0 l 268 0 b 301 26 288 0 301 10 l 301 32 b 278 151 301 71 242 96 l 435 389 l 607 151 b 572 32 647 96 572 71 l 572 26 b 606 0 572 10 585 0 l 978 0 b 1011 26 997 0 1011 10 l 1011 32 b 904 151 1011 71 953 83 z "},"Y":{"ha":967,"x_min":0,"x_max":0,"o":"m 926 986 l 719 986 b 686 960 700 986 686 976 l 686 954 b 746 835 686 915 781 899 l 563 501 l 378 835 b 438 954 344 894 438 915 l 438 960 b 404 986 438 976 424 986 l 28 986 b -6 960 8 986 -6 976 l -6 954 b 90 835 -6 915 47 903 l 371 382 l 371 151 b 315 32 371 88 315 71 l 315 26 b 349 0 315 10 329 0 l 654 0 b 688 26 675 0 688 10 l 688 32 b 626 151 688 71 626 88 l 626 404 l 867 835 b 958 954 907 908 958 915 l 958 960 b 926 986 958 976 946 986 z "},"Ý":{"ha":967,"x_min":0,"x_max":0,"o":"m 383 1075 l 678 1101 b 724 1169 719 1104 733 1133 l 694 1269 b 617 1301 685 1306 656 1322 l 350 1158 b 331 1103 332 1147 322 1125 b 383 1075 339 1083 360 1074 z m 926 986 l 719 986 b 686 960 700 986 686 976 l 686 954 b 746 835 686 915 781 899 l 563 501 l 378 835 b 438 954 344 894 438 915 l 438 960 b 404 986 438 976 424 986 l 28 986 b -6 960 8 986 -6 976 l -6 954 b 90 835 -6 915 47 903 l 371 382 l 371 151 b 315 32 371 88 315 71 l 315 26 b 349 0 315 10 329 0 l 654 0 b 688 26 675 0 688 10 l 688 32 b 626 151 688 71 626 88 l 626 404 l 867 835 b 958 954 907 908 958 915 l 958 960 b 926 986 958 976 946 986 z "},"Ŷ":{"ha":967,"x_min":0,"x_max":0,"o":"m 306 1054 l 492 1156 l 700 1054 b 757 1125 758 1026 800 1083 l 588 1285 b 522 1311 568 1304 549 1311 l 474 1311 b 407 1283 447 1311 428 1306 l 254 1125 b 306 1054 208 1076 272 1036 z m 926 986 l 719 986 b 686 960 700 986 686 976 l 686 954 b 746 835 686 915 781 899 l 563 501 l 378 835 b 438 954 344 894 438 915 l 438 960 b 404 986 438 976 424 986 l 28 986 b -6 960 8 986 -6 976 l -6 954 b 90 835 -6 915 47 903 l 371 382 l 371 151 b 315 32 371 88 315 71 l 315 26 b 349 0 315 10 329 0 l 654 0 b 688 26 675 0 688 10 l 688 32 b 626 151 688 71 626 88 l 626 404 l 867 835 b 958 954 907 908 958 915 l 958 960 b 926 986 958 976 946 986 z "},"Ÿ":{"ha":967,"x_min":0,"x_max":0,"o":"m 336 1065 b 478 1192 421 1065 478 1119 b 336 1317 478 1263 421 1317 b 193 1192 250 1317 193 1263 b 336 1065 193 1119 250 1065 z m 682 1065 b 825 1192 767 1065 825 1119 b 682 1317 825 1263 767 1317 b 540 1192 597 1317 540 1263 b 682 1065 540 1119 597 1065 z m 926 986 l 719 986 b 686 960 700 986 686 976 l 686 954 b 746 835 686 915 781 899 l 563 501 l 378 835 b 438 954 344 894 438 915 l 438 960 b 404 986 438 976 424 986 l 28 986 b -6 960 8 986 -6 976 l -6 954 b 90 835 -6 915 47 903 l 371 382 l 371 151 b 315 32 371 88 315 71 l 315 26 b 349 0 315 10 329 0 l 654 0 b 688 26 675 0 688 10 l 688 32 b 626 151 688 71 626 88 l 626 404 l 867 835 b 958 954 907 908 958 915 l 958 960 b 926 986 958 976 946 986 z "},"Ỳ":{"ha":967,"x_min":0,"x_max":0,"o":"m 333 1082 l 629 1065 b 681 1096 651 1065 672 1075 b 660 1150 689 1118 678 1140 l 388 1283 b 311 1249 347 1303 319 1286 l 286 1149 b 333 1082 276 1113 292 1082 z m 926 986 l 719 986 b 686 960 700 986 686 976 l 686 954 b 746 835 686 915 781 899 l 563 501 l 378 835 b 438 954 344 894 438 915 l 438 960 b 404 986 438 976 424 986 l 28 986 b -6 960 8 986 -6 976 l -6 954 b 90 835 -6 915 47 903 l 371 382 l 371 151 b 315 32 371 88 315 71 l 315 26 b 349 0 315 10 329 0 l 654 0 b 688 26 675 0 688 10 l 688 32 b 626 151 688 71 626 88 l 626 404 l 867 835 b 958 954 907 908 958 915 l 958 960 b 926 986 958 976 946 986 z "},"Ỹ":{"ha":967,"x_min":0,"x_max":0,"o":"m 282 1069 l 297 1069 b 335 1094 319 1069 321 1078 b 389 1121 350 1113 367 1121 b 613 1051 458 1121 524 1051 b 774 1214 697 1051 754 1125 b 751 1246 778 1235 769 1246 l 740 1246 b 707 1226 724 1246 715 1239 b 644 1196 693 1207 678 1196 b 425 1261 585 1196 524 1261 b 260 1101 338 1261 278 1186 b 282 1069 257 1081 267 1069 z m 926 986 l 719 986 b 686 960 700 986 686 976 l 686 954 b 746 835 686 915 781 899 l 563 501 l 378 835 b 438 954 344 894 438 915 l 438 960 b 404 986 438 976 424 986 l 28 986 b -6 960 8 986 -6 976 l -6 954 b 90 835 -6 915 47 903 l 371 382 l 371 151 b 315 32 371 88 315 71 l 315 26 b 349 0 315 10 329 0 l 654 0 b 688 26 675 0 688 10 l 688 32 b 626 151 688 71 626 88 l 626 404 l 867 835 b 958 954 907 908 958 915 l 958 960 b 926 986 958 976 946 986 z "},"Z":{"ha":878,"x_min":0,"x_max":0,"o":"m 835 282 l 829 282 b 603 96 756 282 708 96 l 339 96 l 800 864 b 836 935 817 893 836 925 l 836 953 b 803 986 836 972 822 986 l 114 986 b 65 943 82 986 72 972 l 26 769 b 64 718 18 735 35 718 l 72 718 b 268 890 156 718 190 890 l 528 890 l 51 108 b 22 51 42 92 22 69 l 22 33 b 58 0 22 14 40 0 l 789 0 b 824 33 807 0 818 15 l 867 243 b 835 282 872 267 863 282 z "},"Ź":{"ha":878,"x_min":0,"x_max":0,"o":"m 336 1075 l 631 1101 b 676 1169 672 1104 686 1133 l 647 1269 b 569 1301 638 1306 608 1322 l 303 1158 b 283 1103 285 1147 275 1125 b 336 1075 292 1083 314 1074 z m 835 282 l 829 282 b 603 96 756 282 708 96 l 339 96 l 800 864 b 836 935 817 893 836 925 l 836 953 b 803 986 836 972 822 986 l 114 986 b 65 943 82 986 72 972 l 26 769 b 64 718 18 735 35 718 l 72 718 b 268 890 156 718 190 890 l 528 890 l 51 108 b 22 51 42 92 22 69 l 22 33 b 58 0 22 14 40 0 l 789 0 b 824 33 807 0 818 15 l 867 243 b 835 282 872 267 863 282 z "},"Ž":{"ha":878,"x_min":0,"x_max":0,"o":"m 361 1065 b 426 1039 381 1046 400 1039 l 482 1039 b 547 1064 508 1039 526 1046 l 706 1210 b 656 1267 732 1235 689 1283 l 461 1169 l 263 1267 b 213 1210 233 1281 183 1239 z m 835 282 l 829 282 b 603 96 756 282 708 96 l 339 96 l 800 864 b 836 935 817 893 836 925 l 836 953 b 803 986 836 972 822 986 l 114 986 b 65 943 82 986 72 972 l 26 769 b 64 718 18 735 35 718 l 72 718 b 268 890 156 718 190 890 l 528 890 l 51 108 b 22 51 42 92 22 69 l 22 33 b 58 0 22 14 40 0 l 789 0 b 824 33 807 0 818 15 l 867 243 b 835 282 872 267 863 282 z "},"Ż":{"ha":878,"x_min":0,"x_max":0,"o":"m 469 1046 b 615 1175 557 1046 615 1103 b 469 1303 615 1247 557 1303 b 324 1175 382 1303 324 1247 b 469 1046 324 1103 382 1046 z m 835 282 l 829 282 b 603 96 756 282 708 96 l 339 96 l 800 864 b 836 935 817 893 836 925 l 836 953 b 803 986 836 972 822 986 l 114 986 b 65 943 82 986 72 972 l 26 769 b 64 718 18 735 35 718 l 72 718 b 268 890 156 718 190 890 l 528 890 l 51 108 b 22 51 42 92 22 69 l 22 33 b 58 0 22 14 40 0 l 789 0 b 824 33 807 0 818 15 l 867 243 b 835 282 872 267 863 282 z "},"a":{"ha":765,"x_min":0,"x_max":0,"o":"m 694 151 l 664 400 b 326 681 642 572 513 681 b 49 518 185 681 49 632 b 146 428 49 464 88 428 b 326 614 269 428 231 614 b 425 379 399 614 408 543 l 425 375 b 285 410 390 396 343 410 b 35 197 153 410 35 338 b 297 -14 35 54 149 -14 b 474 58 389 -14 444 18 b 608 -8 485 8 525 -8 b 765 38 685 -8 765 1 b 694 151 765 76 707 53 z m 374 57 b 283 242 317 57 283 143 b 354 336 283 299 313 336 b 440 221 394 336 431 304 l 446 157 b 374 57 446 110 419 57 z "},"á":{"ha":765,"x_min":0,"x_max":0,"o":"m 226 758 l 513 835 b 544 910 551 844 561 876 l 500 1004 b 417 1021 483 1038 451 1049 l 179 835 b 169 776 163 821 157 797 b 226 758 181 758 204 753 z m 694 151 l 664 400 b 326 681 642 572 513 681 b 49 518 185 681 49 632 b 146 428 49 464 88 428 b 326 614 269 428 231 614 b 425 379 399 614 408 543 l 425 375 b 285 410 390 396 343 410 b 35 197 153 410 35 338 b 297 -14 35 54 149 -14 b 474 58 389 -14 444 18 b 608 -8 485 8 525 -8 b 765 38 685 -8 765 1 b 694 151 765 76 707 53 z m 374 57 b 283 242 317 57 283 143 b 354 336 283 299 313 336 b 440 221 394 336 431 304 l 446 157 b 374 57 446 110 419 57 z "},"ă":{"ha":765,"x_min":0,"x_max":0,"o":"m 349 758 b 593 947 490 758 579 843 b 511 976 597 989 526 1000 b 349 904 489 932 422 904 b 188 976 279 904 210 932 b 106 947 171 1003 100 994 b 349 758 119 843 213 758 z m 694 151 l 664 400 b 326 681 642 572 513 681 b 49 518 185 681 49 632 b 146 428 49 464 88 428 b 326 614 269 428 231 614 b 425 379 399 614 408 543 l 425 375 b 285 410 390 396 343 410 b 35 197 153 410 35 338 b 297 -14 35 54 149 -14 b 474 58 389 -14 444 18 b 608 -8 485 8 525 -8 b 765 38 685 -8 765 1 b 694 151 765 76 707 53 z m 374 57 b 283 242 317 57 283 143 b 354 336 283 299 313 336 b 440 221 394 336 431 304 l 446 157 b 374 57 446 110 419 57 z "},"â":{"ha":765,"x_min":0,"x_max":0,"o":"m 151 756 l 336 857 l 544 756 b 601 826 603 726 644 783 l 432 985 b 367 1013 413 1004 393 1013 l 318 1013 b 253 983 292 1013 274 1007 l 100 826 b 151 756 53 776 118 738 z m 694 151 l 664 400 b 326 681 642 572 513 681 b 49 518 185 681 49 632 b 146 428 49 464 88 428 b 326 614 269 428 231 614 b 425 379 399 614 408 543 l 425 375 b 285 410 390 396 343 410 b 35 197 153 410 35 338 b 297 -14 35 54 149 -14 b 474 58 389 -14 444 18 b 608 -8 485 8 525 -8 b 765 38 685 -8 765 1 b 694 151 765 76 707 53 z m 374 57 b 283 242 317 57 283 143 b 354 336 283 299 313 336 b 440 221 394 336 431 304 l 446 157 b 374 57 446 110 419 57 z "},"ä":{"ha":765,"x_min":0,"x_max":0,"o":"m 178 756 b 319 882 263 756 319 811 b 178 1007 319 953 263 1007 b 35 882 92 1007 35 953 b 178 756 35 811 92 756 z m 524 756 b 667 882 608 756 667 811 b 524 1007 667 953 608 1007 b 382 882 439 1007 382 953 b 524 756 382 811 439 756 z m 694 151 l 664 400 b 326 681 642 572 513 681 b 49 518 185 681 49 632 b 146 428 49 464 88 428 b 326 614 269 428 231 614 b 425 379 399 614 408 543 l 425 375 b 285 410 390 396 343 410 b 35 197 153 410 35 338 b 297 -14 35 54 149 -14 b 474 58 389 -14 444 18 b 608 -8 485 8 525 -8 b 765 38 685 -8 765 1 b 694 151 765 76 707 53 z m 374 57 b 283 242 317 57 283 143 b 354 336 283 299 313 336 b 440 221 394 336 431 304 l 446 157 b 374 57 446 110 419 57 z "},"à":{"ha":765,"x_min":0,"x_max":0,"o":"m 178 826 l 464 750 b 521 768 488 744 510 750 b 513 825 533 788 528 813 l 274 1013 b 192 996 239 1040 208 1029 l 146 901 b 178 826 129 868 139 836 z m 694 151 l 664 400 b 326 681 642 572 513 681 b 49 518 185 681 49 632 b 146 428 49 464 88 428 b 326 614 269 428 231 614 b 425 379 399 614 408 543 l 425 375 b 285 410 390 396 343 410 b 35 197 153 410 35 338 b 297 -14 35 54 149 -14 b 474 58 389 -14 444 18 b 608 -8 485 8 525 -8 b 765 38 685 -8 765 1 b 694 151 765 76 707 53 z m 374 57 b 283 242 317 57 283 143 b 354 336 283 299 313 336 b 440 221 394 336 431 304 l 446 157 b 374 57 446 110 419 57 z "},"ā":{"ha":765,"x_min":0,"x_max":0,"o":"m 154 801 l 547 801 b 581 835 568 801 581 814 l 581 918 b 547 951 581 940 568 951 l 154 951 b 121 918 132 951 121 940 l 121 835 b 154 801 121 814 132 801 z m 694 151 l 664 400 b 326 681 642 572 513 681 b 49 518 185 681 49 632 b 146 428 49 464 88 428 b 326 614 269 428 231 614 b 425 379 399 614 408 543 l 425 375 b 285 410 390 396 343 410 b 35 197 153 410 35 338 b 297 -14 35 54 149 -14 b 474 58 389 -14 444 18 b 608 -8 485 8 525 -8 b 765 38 685 -8 765 1 b 694 151 765 76 707 53 z m 374 57 b 283 242 317 57 283 143 b 354 336 283 299 313 336 b 440 221 394 336 431 304 l 446 157 b 374 57 446 110 419 57 z "},"ą":{"ha":765,"x_min":0,"x_max":0,"o":"m 683 -4 b 765 38 729 1 765 14 b 694 151 765 76 707 53 l 664 400 b 326 681 642 572 513 681 b 49 518 185 681 49 632 b 146 428 49 464 88 428 b 326 614 269 428 231 614 b 425 379 399 614 408 543 l 425 375 b 285 410 390 396 343 410 b 35 197 153 410 35 338 b 297 -14 35 54 149 -14 b 474 58 389 -14 444 18 b 574 -7 483 15 514 -3 b 454 -179 488 -62 454 -119 b 622 -307 454 -278 547 -307 b 699 -296 653 -307 685 -301 b 690 -206 749 -276 735 -190 b 665 -211 681 -210 675 -211 b 625 -149 644 -211 624 -194 b 683 -4 625 -112 643 -60 z m 374 57 b 283 242 317 57 283 143 b 354 336 283 299 313 336 b 440 221 394 336 431 304 l 446 157 b 374 57 446 110 419 57 z "},"å":{"ha":765,"x_min":0,"x_max":0,"o":"m 349 739 b 558 900 476 739 558 804 b 350 1050 558 988 469 1050 b 143 890 228 1050 143 989 b 349 739 143 806 231 739 z m 350 981 b 415 896 386 981 415 951 b 350 806 415 829 386 806 b 286 896 315 806 286 840 b 350 981 286 963 315 981 z m 694 151 l 664 400 b 326 681 642 572 513 681 b 49 518 185 681 49 632 b 146 428 49 464 88 428 b 326 614 269 428 231 614 b 425 379 399 614 408 543 l 425 375 b 285 410 390 396 343 410 b 35 197 153 410 35 338 b 297 -14 35 54 149 -14 b 474 58 389 -14 444 18 b 608 -8 485 8 525 -8 b 765 38 685 -8 765 1 b 694 151 765 76 707 53 z m 374 57 b 283 242 317 57 283 143 b 354 336 283 299 313 336 b 440 221 394 336 431 304 l 446 157 b 374 57 446 110 419 57 z "},"ã":{"ha":765,"x_min":0,"x_max":0,"o":"m 113 811 l 129 811 b 165 836 151 811 151 819 b 219 863 181 854 197 863 b 444 793 289 863 356 793 b 604 956 528 793 585 867 b 582 988 608 976 601 988 l 572 988 b 538 968 556 988 547 981 b 475 938 524 949 510 938 b 256 1003 415 938 354 1003 b 92 843 169 1003 108 928 b 113 811 88 822 99 811 z m 694 151 l 664 400 b 326 681 642 572 513 681 b 49 518 185 681 49 632 b 146 428 49 464 88 428 b 326 614 269 428 231 614 b 425 379 399 614 408 543 l 425 375 b 285 410 390 396 343 410 b 35 197 153 410 35 338 b 297 -14 35 54 149 -14 b 474 58 389 -14 444 18 b 608 -8 485 8 525 -8 b 765 38 685 -8 765 1 b 694 151 765 76 707 53 z m 374 57 b 283 242 317 57 283 143 b 354 336 283 299 313 336 b 440 221 394 336 431 304 l 446 157 b 374 57 446 110 419 57 z "},"æ":{"ha":1085,"x_min":0,"x_max":0,"o":"m 1011 221 b 871 160 982 190 931 160 b 714 251 803 160 750 193 l 989 406 b 1043 492 1022 422 1043 450 b 778 682 1043 579 961 682 b 557 603 696 682 618 654 b 326 681 499 653 419 681 b 49 518 189 681 49 633 b 146 428 49 465 88 428 b 326 614 271 428 231 614 b 425 379 399 614 410 543 l 425 374 b 285 410 390 396 343 410 b 35 197 151 410 35 336 b 297 -14 35 56 150 -14 b 501 122 432 -14 489 56 b 781 -12 563 38 661 -12 b 1063 201 963 -12 1058 125 b 1011 221 1063 232 1029 242 z m 754 614 b 846 471 824 614 846 515 b 810 400 846 442 833 415 l 681 322 b 661 468 668 365 661 414 b 754 614 661 549 696 614 z m 374 57 b 283 244 317 57 283 143 b 354 336 283 299 313 336 b 440 219 394 336 432 304 l 446 165 b 374 57 447 122 426 57 z "},"ǽ":{"ha":1086,"x_min":0,"x_max":0,"o":"m 471 757 l 757 833 b 789 908 796 843 806 875 l 744 1003 b 661 1019 728 1036 696 1047 l 424 833 b 414 775 407 819 401 796 b 471 757 425 757 449 751 z m 1011 221 b 871 160 982 190 931 160 b 714 251 803 160 750 193 l 989 406 b 1043 492 1022 422 1043 450 b 778 682 1043 579 961 682 b 557 603 696 682 618 654 b 326 681 499 653 419 681 b 49 518 189 681 49 633 b 146 428 49 465 88 428 b 326 614 271 428 231 614 b 425 379 399 614 410 543 l 425 374 b 285 410 390 396 343 410 b 35 197 151 410 35 336 b 297 -14 35 56 150 -14 b 501 122 432 -14 489 56 b 781 -12 563 38 661 -12 b 1063 201 963 -12 1058 125 b 1011 221 1063 232 1029 242 z m 754 614 b 846 471 824 614 846 515 b 810 400 846 442 833 415 l 681 322 b 661 468 668 365 661 414 b 754 614 661 549 696 614 z m 374 57 b 283 244 317 57 283 143 b 354 336 283 299 313 336 b 440 219 394 336 432 304 l 446 165 b 374 57 447 122 426 57 z "},"b":{"ha":831,"x_min":0,"x_max":0,"o":"m 474 681 b 332 639 417 681 368 667 l 332 1011 b 267 1043 332 1051 301 1060 l 53 944 b 15 906 22 931 15 922 l 15 900 b 83 785 15 861 83 850 l 83 153 b 28 32 83 88 28 71 l 28 26 b 60 0 28 10 40 0 l 269 -1 b 306 35 294 -1 306 8 l 306 47 b 474 -14 347 8 400 -14 b 801 346 646 -14 801 126 b 474 681 801 571 631 681 z m 451 54 b 332 221 390 54 332 136 l 332 490 b 415 613 332 568 365 613 b 557 229 517 613 557 379 b 451 54 557 115 522 54 z "},"c":{"ha":706,"x_min":0,"x_max":0,"o":"m 388 -14 b 678 222 578 -14 674 101 b 625 238 678 253 643 260 b 471 157 596 199 549 157 b 244 457 333 157 244 276 b 342 613 244 542 283 611 b 574 394 444 614 432 403 b 675 475 649 392 675 433 b 379 681 675 599 542 682 b 26 335 190 679 26 551 b 388 -14 26 153 169 -14 z "},"ć":{"ha":706,"x_min":0,"x_max":0,"o":"m 232 758 l 518 835 b 551 910 558 844 568 876 l 506 1004 b 424 1021 489 1038 458 1049 l 185 835 b 175 776 169 821 164 797 b 232 758 188 758 210 753 z m 388 -14 b 678 222 578 -14 674 101 b 625 238 678 253 643 260 b 471 157 596 199 549 157 b 244 457 333 157 244 276 b 342 613 244 542 283 611 b 574 394 444 614 432 403 b 675 475 649 392 675 433 b 379 681 675 599 542 682 b 26 335 190 679 26 551 b 388 -14 26 153 169 -14 z "},"č":{"ha":706,"x_min":0,"x_max":0,"o":"m 258 783 b 325 756 279 763 299 756 l 381 756 b 446 782 407 756 425 763 l 604 939 b 554 999 631 964 586 1015 l 360 896 l 161 999 b 110 939 132 1013 82 969 z m 625 238 b 471 157 596 199 549 157 b 244 457 333 157 244 276 b 342 613 244 542 283 611 b 574 394 444 614 432 403 b 675 475 649 392 675 433 b 379 681 675 599 542 682 b 26 335 190 679 26 551 b 388 -14 26 153 169 -14 b 678 222 578 -14 674 101 b 625 238 678 253 643 260 z "},"ç":{"ha":706,"x_min":0,"x_max":0,"o":"m 678 222 b 625 238 678 253 643 260 b 471 157 596 199 549 157 b 244 457 333 157 244 276 b 342 613 244 542 283 611 b 574 394 444 614 432 403 b 675 475 649 392 675 433 b 379 681 675 599 542 682 b 26 335 190 679 26 551 b 313 -7 26 175 138 26 l 296 -90 b 332 -132 290 -122 308 -132 b 414 -179 363 -132 414 -142 b 343 -231 414 -214 381 -231 b 263 -214 317 -231 281 -224 b 260 -294 233 -199 219 -275 b 382 -314 282 -304 322 -314 b 585 -189 488 -314 585 -275 b 408 -71 585 -101 493 -68 l 411 -14 b 678 222 586 -4 674 107 z "},"ċ":{"ha":706,"x_min":0,"x_max":0,"o":"m 354 749 b 513 888 450 749 513 810 b 354 1026 513 967 450 1026 b 196 888 260 1026 196 967 b 354 749 196 810 260 749 z m 388 -14 b 678 222 578 -14 674 101 b 625 238 678 253 643 260 b 471 157 596 199 549 157 b 244 457 333 157 244 276 b 342 613 244 542 283 611 b 574 394 444 614 432 403 b 675 475 649 392 675 433 b 379 681 675 599 542 682 b 26 335 190 679 26 551 b 388 -14 26 153 169 -14 z "},"d":{"ha":819,"x_min":0,"x_max":0,"o":"m 739 151 l 739 1013 b 678 1046 739 1050 718 1058 l 461 981 b 429 944 442 975 429 960 l 429 940 b 503 826 429 900 503 892 l 503 642 b 360 681 465 667 418 681 b 31 333 185 681 31 540 b 358 -14 31 106 190 -14 b 528 47 426 -14 486 8 l 528 35 b 564 0 528 14 542 0 l 763 0 b 794 26 782 0 794 10 l 794 32 b 739 151 794 71 739 88 z m 414 54 b 268 442 310 58 264 325 b 378 613 272 553 310 613 b 503 439 442 613 503 528 l 503 171 b 414 54 503 96 461 53 z "},"ð":{"ha":819,"x_min":0,"x_max":0,"o":"m 585 867 l 690 906 b 710 940 708 911 717 926 l 694 976 b 661 988 689 988 676 993 l 511 933 b 246 1051 419 1004 321 1044 b 225 969 215 1053 181 1013 b 332 868 265 932 300 899 l 210 824 b 192 785 193 817 182 808 l 207 753 b 240 740 211 742 224 733 l 397 797 b 493 626 442 746 472 694 b 342 681 453 661 403 681 b 31 335 167 681 31 540 b 411 -14 31 129 204 -14 b 786 344 649 -14 786 125 b 585 867 786 575 697 749 z m 442 54 b 276 439 331 54 276 318 b 368 613 276 549 300 613 b 532 228 433 613 510 518 l 532 222 b 442 54 532 110 504 54 z "},"ď":{"ha":844,"x_min":0,"x_max":0,"o":"m 996 1113 l 900 1113 b 865 1072 881 1113 865 1093 b 796 808 865 988 851 883 b 799 763 781 790 786 771 l 814 751 b 869 753 833 739 854 744 b 1036 1072 957 807 1036 924 b 996 1113 1036 1096 1021 1113 z m 739 1013 b 678 1046 739 1050 718 1058 l 461 981 b 429 944 442 975 429 960 l 429 940 b 503 826 429 900 503 892 l 503 642 b 360 681 465 667 418 681 b 31 333 185 681 31 540 b 358 -14 31 106 190 -14 b 528 47 426 -14 486 8 l 528 35 b 564 0 528 14 542 0 l 763 0 b 794 26 782 0 794 10 l 794 32 b 739 151 794 71 739 88 z m 414 54 b 268 442 310 58 264 325 b 378 613 272 553 310 613 b 503 439 442 613 503 528 l 503 171 b 414 54 503 96 461 53 z "},"đ":{"ha":819,"x_min":0,"x_max":0,"o":"m 822 821 l 739 821 l 739 1013 b 678 1046 739 1050 718 1058 l 461 981 b 429 944 442 975 429 960 l 429 940 b 503 826 429 900 503 892 l 503 821 l 381 821 b 357 797 368 821 357 815 l 357 750 b 381 728 357 732 368 728 l 503 728 l 503 642 b 360 681 465 667 418 681 b 31 333 185 681 31 540 b 358 -14 31 106 190 -14 b 528 47 426 -14 486 8 l 528 35 b 564 0 528 14 542 0 l 763 0 b 794 26 782 0 794 10 l 794 32 b 739 151 794 71 739 88 l 739 728 l 822 728 b 847 756 838 728 847 736 l 847 797 b 822 821 847 811 838 821 z m 414 54 b 268 442 310 58 264 325 b 378 613 272 553 310 613 b 503 439 442 613 503 528 l 503 171 b 414 54 503 96 461 53 z "},"e":{"ha":679,"x_min":0,"x_max":0,"o":"m 604 219 b 465 158 579 186 525 158 b 307 249 397 158 343 192 l 583 404 b 638 490 615 421 638 449 b 372 681 638 578 554 681 b 31 338 190 681 31 543 b 374 -14 31 126 172 -14 b 656 200 556 -14 653 124 b 604 219 657 231 624 239 z m 347 613 b 440 469 418 613 440 514 b 404 399 440 440 426 414 l 275 321 b 254 467 261 363 254 413 b 347 613 254 547 290 613 z "},"é":{"ha":679,"x_min":0,"x_max":0,"o":"m 224 758 l 510 835 b 542 910 549 844 558 876 l 497 1004 b 414 1021 481 1038 449 1049 l 176 835 b 167 776 160 821 154 797 b 224 758 178 758 201 753 z m 604 219 b 465 158 579 186 525 158 b 307 249 397 158 343 192 l 583 404 b 638 490 615 421 638 449 b 372 681 638 578 554 681 b 31 338 190 681 31 543 b 374 -14 31 126 172 -14 b 656 200 556 -14 653 124 b 604 219 657 231 624 239 z m 347 613 b 440 469 418 613 440 514 b 404 399 440 440 426 414 l 275 321 b 254 467 261 363 254 413 b 347 613 254 547 290 613 z "},"ě":{"ha":679,"x_min":0,"x_max":0,"o":"m 250 783 b 317 756 271 763 289 756 l 371 756 b 438 782 399 756 417 763 l 596 939 b 546 999 622 964 578 1015 l 350 896 l 151 999 b 101 939 122 1013 74 969 z m 604 219 b 465 158 579 186 525 158 b 307 249 397 158 343 192 l 583 404 b 638 490 615 421 638 449 b 372 681 638 578 554 681 b 31 338 190 681 31 543 b 374 -14 31 126 172 -14 b 656 200 556 -14 653 124 b 604 219 657 231 624 239 z m 347 613 b 440 469 418 613 440 514 b 404 399 440 440 426 414 l 275 321 b 254 467 261 363 254 413 b 347 613 254 547 290 613 z "},"ê":{"ha":679,"x_min":0,"x_max":0,"o":"m 149 756 l 335 857 l 543 756 b 600 826 600 726 643 783 l 431 985 b 364 1013 411 1004 392 1013 l 317 1013 b 250 983 289 1013 271 1007 l 97 826 b 149 756 51 776 115 738 z m 604 219 b 465 158 579 186 525 158 b 307 249 397 158 343 192 l 583 404 b 638 490 615 421 638 449 b 372 681 638 578 554 681 b 31 338 190 681 31 543 b 374 -14 31 126 172 -14 b 656 200 556 -14 653 124 b 604 219 657 231 624 239 z m 347 613 b 440 469 418 613 440 514 b 404 399 440 440 426 414 l 275 321 b 254 467 261 363 254 413 b 347 613 254 547 290 613 z "},"ë":{"ha":679,"x_min":0,"x_max":0,"o":"m 175 756 b 317 882 260 756 317 811 b 175 1007 317 953 260 1007 b 32 882 89 1007 32 953 b 175 756 32 811 89 756 z m 521 756 b 664 882 606 756 664 811 b 521 1007 664 953 606 1007 b 379 882 436 1007 379 953 b 521 756 379 811 436 756 z m 604 219 b 465 158 579 186 525 158 b 307 249 397 158 343 192 l 583 404 b 638 490 615 421 638 449 b 372 681 638 578 554 681 b 31 338 190 681 31 543 b 374 -14 31 126 172 -14 b 656 200 556 -14 653 124 b 604 219 657 231 624 239 z m 347 613 b 440 469 418 613 440 514 b 404 399 440 440 426 414 l 275 321 b 254 467 261 363 254 413 b 347 613 254 547 290 613 z "},"ė":{"ha":679,"x_min":0,"x_max":0,"o":"m 346 749 b 504 888 440 749 504 810 b 346 1026 504 967 440 1026 b 188 888 250 1026 188 967 b 346 749 188 810 250 749 z m 604 219 b 465 158 579 186 525 158 b 307 249 397 158 343 192 l 583 404 b 638 490 615 421 638 449 b 372 681 638 578 554 681 b 31 338 190 681 31 543 b 374 -14 31 126 172 -14 b 656 200 556 -14 653 124 b 604 219 657 231 624 239 z m 347 613 b 440 469 418 613 440 514 b 404 399 440 440 426 414 l 275 321 b 254 467 261 363 254 413 b 347 613 254 547 290 613 z "},"è":{"ha":679,"x_min":0,"x_max":0,"o":"m 176 826 l 463 750 b 519 768 485 744 507 750 b 510 825 531 788 526 813 l 272 1013 b 189 996 236 1040 206 1029 l 143 901 b 176 826 128 868 136 836 z m 604 219 b 465 158 579 186 525 158 b 307 249 397 158 343 192 l 583 404 b 638 490 615 421 638 449 b 372 681 638 578 554 681 b 31 338 190 681 31 543 b 374 -14 31 126 172 -14 b 656 200 556 -14 653 124 b 604 219 657 231 624 239 z m 347 613 b 440 469 418 613 440 514 b 404 399 440 440 426 414 l 275 321 b 254 467 261 363 254 413 b 347 613 254 547 290 613 z "},"ē":{"ha":679,"x_min":0,"x_max":0,"o":"m 151 801 l 544 801 b 578 835 565 801 578 814 l 578 918 b 544 951 578 940 565 951 l 151 951 b 118 918 129 951 118 940 l 118 835 b 151 801 118 814 129 801 z m 604 219 b 465 158 579 186 525 158 b 307 249 397 158 343 192 l 583 404 b 638 490 615 421 638 449 b 372 681 638 578 554 681 b 31 338 190 681 31 543 b 374 -14 31 126 172 -14 b 656 200 556 -14 653 124 b 604 219 657 231 624 239 z m 347 613 b 440 469 418 613 440 514 b 404 399 440 440 426 414 l 275 321 b 254 467 261 363 254 413 b 347 613 254 547 290 613 z "},"ę":{"ha":679,"x_min":0,"x_max":0,"o":"m 604 219 b 465 158 579 186 525 158 b 307 249 397 158 343 192 l 583 404 b 638 490 615 421 638 449 b 372 681 638 578 554 681 b 31 338 190 681 31 543 b 374 -14 31 126 172 -14 l 378 -14 b 292 -162 317 -61 292 -111 b 461 -290 292 -261 386 -290 b 538 -279 492 -290 524 -285 b 528 -189 588 -258 574 -174 b 504 -194 518 -192 513 -194 b 464 -132 483 -194 463 -178 b 535 29 464 -92 486 -33 b 656 200 613 76 654 151 b 604 219 657 231 624 239 z m 347 613 b 440 469 418 613 440 514 b 404 399 440 440 426 414 l 275 321 b 254 467 261 363 254 413 b 347 613 254 547 290 613 z "},"f":{"ha":539,"x_min":0,"x_max":0,"o":"m 363 949 b 546 756 463 949 382 756 b 636 839 607 756 636 801 b 414 1015 636 933 538 1015 b 126 736 213 1015 126 890 l 126 667 l 36 667 b 4 635 18 667 4 653 l 4 604 b 36 572 4 586 18 572 l 126 572 l 126 153 b 71 32 126 88 71 71 l 71 26 b 103 0 71 10 83 0 l 408 0 b 440 26 428 0 440 10 l 440 32 b 365 153 440 71 365 88 l 365 572 l 517 572 b 549 604 535 572 549 586 l 549 635 b 517 667 549 653 535 667 l 360 667 b 363 949 322 733 260 949 z "},"g":{"ha":771,"x_min":0,"x_max":0,"o":"m 644 667 b 372 681 519 667 460 681 b 32 385 172 681 32 561 b 369 106 32 219 175 106 b 419 108 386 106 404 107 b 478 -4 458 97 478 56 b 363 -121 478 -74 436 -122 b 129 86 235 -119 256 86 b 33 -6 64 86 33 38 b 361 -187 33 -124 163 -187 b 724 -1 564 -187 724 -112 b 560 147 724 68 685 121 b 710 386 653 194 710 279 b 642 558 710 451 682 513 b 746 621 686 572 740 567 b 644 667 750 653 735 667 z m 264 496 b 336 613 264 569 292 613 b 479 292 419 613 479 407 b 404 175 479 219 451 175 b 264 496 329 175 264 357 z "},"ğ":{"ha":771,"x_min":0,"x_max":0,"o":"m 404 756 b 649 946 546 756 635 842 b 567 975 653 986 582 997 b 404 901 543 931 476 901 b 242 975 335 901 265 931 b 161 946 225 1001 156 992 b 404 756 175 842 268 756 z m 644 667 b 372 681 519 667 460 681 b 32 385 172 681 32 561 b 369 106 32 219 175 106 b 419 108 386 106 404 107 b 478 -4 458 97 478 56 b 363 -121 478 -74 436 -122 b 129 86 235 -119 256 86 b 33 -6 64 86 33 38 b 361 -187 33 -124 163 -187 b 724 -1 564 -187 724 -112 b 560 147 724 68 685 121 b 710 386 653 194 710 279 b 642 558 710 451 682 513 b 746 621 686 572 740 567 b 644 667 750 653 735 667 z m 264 496 b 336 613 264 569 292 613 b 479 292 419 613 479 407 b 404 175 479 219 451 175 b 264 496 329 175 264 357 z "},"ģ":{"ha":771,"x_min":0,"x_max":0,"o":"m 383 742 b 513 878 463 742 513 797 b 421 997 513 947 471 997 b 404 1025 406 997 403 1008 b 478 1135 408 1063 431 1086 b 438 1178 501 1158 467 1196 b 247 896 308 1100 247 1004 b 383 742 247 797 313 742 z m 644 667 b 372 681 519 667 460 681 b 32 385 172 681 32 561 b 369 106 32 219 175 106 b 419 108 386 106 404 107 b 478 -4 458 97 478 56 b 363 -121 478 -74 436 -122 b 129 86 235 -119 256 86 b 33 -6 64 86 33 38 b 361 -187 33 -124 163 -187 b 724 -1 564 -187 724 -112 b 560 147 724 68 685 121 b 710 386 653 194 710 279 b 642 558 710 451 682 513 b 746 621 686 572 740 567 b 644 667 750 653 735 667 z m 264 496 b 336 613 264 569 292 613 b 479 292 419 613 479 407 b 404 175 479 219 451 175 b 264 496 329 175 264 357 z "},"ġ":{"ha":771,"x_min":0,"x_max":0,"o":"m 404 746 b 561 886 499 746 561 807 b 404 1025 561 965 499 1025 b 244 886 308 1025 244 965 b 404 746 244 807 308 746 z m 644 667 b 372 681 519 667 460 681 b 32 385 172 681 32 561 b 369 106 32 219 175 106 b 419 108 386 106 404 107 b 478 -4 458 97 478 56 b 363 -121 478 -74 436 -122 b 129 86 235 -119 256 86 b 33 -6 64 86 33 38 b 361 -187 33 -124 163 -187 b 724 -1 564 -187 724 -112 b 560 147 724 68 685 121 b 710 386 653 194 710 279 b 642 558 710 451 682 513 b 746 621 686 572 740 567 b 644 667 750 653 735 667 z m 264 496 b 336 613 264 569 292 613 b 479 292 419 613 479 407 b 404 175 479 219 451 175 b 264 496 329 175 264 357 z "},"h":{"ha":843,"x_min":0,"x_max":0,"o":"m 775 153 l 757 403 b 493 681 742 613 614 681 b 324 615 422 681 364 657 l 324 1018 b 271 1047 324 1050 303 1061 l 51 950 b 19 911 32 942 19 928 l 19 907 b 88 796 19 868 88 861 l 88 151 b 26 32 88 88 26 72 l 26 26 b 58 0 26 10 39 0 l 360 0 b 393 26 379 0 393 10 l 393 32 b 331 151 393 72 331 88 l 331 454 b 421 589 331 535 360 589 b 518 411 485 589 511 538 l 532 153 b 482 32 535 89 482 72 l 482 26 b 515 0 482 10 494 0 l 792 0 b 825 26 813 0 825 10 l 825 32 b 775 153 825 72 781 89 z "},"ħ":{"ha":843,"x_min":0,"x_max":0,"o":"m 775 153 l 757 403 b 493 681 742 613 614 681 b 324 615 422 681 364 657 l 324 719 l 463 719 b 488 747 476 719 488 728 l 488 789 b 463 814 488 803 476 814 l 324 814 l 324 1018 b 271 1047 324 1050 303 1061 l 51 950 b 19 911 32 942 19 928 l 19 907 b 86 814 19 872 75 863 l 21 814 b -3 789 7 814 -3 807 l -3 743 b 21 719 -3 724 7 719 l 88 719 l 88 151 b 26 32 88 88 26 72 l 26 26 b 58 0 26 10 39 0 l 360 0 b 393 26 379 0 393 10 l 393 32 b 331 151 393 72 331 88 l 331 454 b 421 589 331 535 360 589 b 518 411 485 589 511 538 l 532 153 b 482 32 535 89 482 72 l 482 26 b 515 0 482 10 494 0 l 792 0 b 825 26 813 0 825 10 l 825 32 b 775 153 825 72 781 89 z "},"i":{"ha":431,"x_min":0,"x_max":0,"o":"m 221 749 b 379 888 315 749 379 810 b 221 1026 379 967 315 1026 b 61 888 125 1026 61 967 b 221 749 61 810 125 749 z m 72 0 l 371 0 b 406 26 392 0 406 10 l 406 32 b 343 153 406 72 343 89 l 343 644 b 281 674 343 671 319 693 l 71 571 b 39 539 51 561 39 554 l 39 533 b 94 417 39 500 94 481 l 94 153 b 39 32 94 89 39 72 l 39 26 b 72 0 39 10 51 0 z "},"ı":{"ha":429,"x_min":0,"x_max":0,"o":"m 72 0 l 371 0 b 406 26 392 0 406 10 l 406 32 b 343 153 406 72 343 89 l 343 644 b 281 674 343 671 319 693 l 71 571 b 39 539 51 561 39 554 l 39 533 b 94 417 39 500 94 481 l 94 153 b 39 32 94 89 39 72 l 39 26 b 72 0 39 10 51 0 z "},"í":{"ha":431,"x_min":0,"x_max":0,"o":"m 101 758 l 386 835 b 419 910 426 844 436 876 l 374 1004 b 292 1021 357 1038 326 1049 l 53 835 b 44 776 38 821 32 797 b 101 758 56 758 78 753 z m 72 0 l 371 0 b 406 26 392 0 406 10 l 406 32 b 343 153 406 72 343 89 l 343 644 b 281 674 343 671 319 693 l 71 571 b 39 539 51 561 39 554 l 39 533 b 94 417 39 500 94 481 l 94 153 b 39 32 94 89 39 72 l 39 26 b 72 0 39 10 51 0 z "},"î":{"ha":431,"x_min":0,"x_max":0,"o":"m 476 826 l 307 985 b 242 1013 288 1004 268 1013 l 193 1013 b 128 983 167 1013 147 1007 l -25 826 b 26 756 -72 776 -8 738 l 211 857 l 419 756 b 476 826 478 726 519 783 z m 343 644 b 281 674 343 671 319 693 l 71 571 b 39 539 51 561 39 554 l 39 533 b 94 417 39 500 94 481 l 94 153 b 39 32 94 89 39 72 l 39 26 b 72 0 39 10 51 0 l 371 0 b 406 26 392 0 406 10 l 406 32 b 343 153 406 72 343 89 z "},"ï":{"ha":431,"x_min":0,"x_max":0,"o":"m 51 756 b 193 882 138 756 193 811 b 51 1007 193 953 138 1007 b -92 882 -33 1007 -92 953 b 51 756 -92 811 -33 756 z m 397 756 b 540 882 483 756 540 811 b 397 1007 540 953 483 1007 b 256 882 313 1007 256 953 b 397 756 256 811 313 756 z m 72 0 l 371 0 b 406 26 392 0 406 10 l 406 32 b 343 153 406 72 343 89 l 343 644 b 281 674 343 671 319 693 l 71 571 b 39 539 51 561 39 554 l 39 533 b 94 417 39 500 94 481 l 94 153 b 39 32 94 89 39 72 l 39 26 b 72 0 39 10 51 0 z "},"ì":{"ha":431,"x_min":0,"x_max":0,"o":"m 339 750 b 396 768 361 744 385 750 b 386 825 408 788 403 813 l 149 1013 b 65 996 114 1040 82 1029 l 21 901 b 53 826 4 868 14 836 z m 72 0 l 371 0 b 406 26 392 0 406 10 l 406 32 b 343 153 406 72 343 89 l 343 644 b 281 674 343 671 319 693 l 71 571 b 39 539 51 561 39 554 l 39 533 b 94 417 39 500 94 481 l 94 153 b 39 32 94 89 39 72 l 39 26 b 72 0 39 10 51 0 z "},"ĳ":{"ha":839,"x_min":0,"x_max":0,"o":"m 221 749 b 379 888 315 749 379 810 b 221 1026 379 967 315 1026 b 61 888 125 1026 61 967 b 221 749 61 810 125 749 z m 635 749 b 793 888 731 749 793 810 b 635 1026 793 967 731 1026 b 476 888 540 1026 476 967 b 635 749 476 810 540 749 z m 72 0 l 371 0 b 406 26 392 0 406 10 l 406 32 b 343 153 406 72 343 89 l 343 644 b 281 674 343 671 319 693 l 71 571 b 39 539 51 561 39 554 l 39 533 b 94 417 39 500 94 481 l 94 153 b 39 32 94 89 39 72 l 39 26 b 72 0 39 10 51 0 z m 517 -276 b 722 -186 617 -276 674 -243 b 776 -10 757 -144 776 -79 l 776 644 b 713 674 776 671 751 693 l 501 571 b 471 539 483 561 471 554 l 471 533 b 526 417 471 499 526 482 l 526 69 b 618 -140 526 -17 618 -35 b 567 -199 618 -174 597 -199 b 397 -28 481 -199 540 -28 b 294 -128 339 -28 294 -68 b 517 -276 294 -231 386 -276 z "},"ī":{"ha":431,"x_min":0,"x_max":0,"o":"m 28 801 l 421 801 b 454 835 443 801 454 814 l 454 918 b 421 951 454 940 443 951 l 28 951 b -6 918 7 951 -6 940 l -6 835 b 28 801 -6 814 7 801 z m 72 0 l 371 0 b 406 26 392 0 406 10 l 406 32 b 343 153 406 72 343 89 l 343 644 b 281 674 343 671 319 693 l 71 571 b 39 539 51 561 39 554 l 39 533 b 94 417 39 500 94 481 l 94 153 b 39 32 94 89 39 72 l 39 26 b 72 0 39 10 51 0 z "},"į":{"ha":431,"x_min":0,"x_max":0,"o":"m 221 749 b 379 888 315 749 379 810 b 221 1026 379 967 315 1026 b 61 888 125 1026 61 967 b 221 749 61 810 125 749 z m 343 153 l 343 644 b 281 674 343 671 319 693 l 71 571 b 39 539 51 561 39 554 l 39 533 b 94 417 39 500 94 481 l 94 153 b 39 32 94 89 39 72 l 39 26 b 72 0 39 10 51 0 l 208 0 b 69 -183 108 -58 69 -121 b 238 -311 69 -282 163 -311 b 314 -300 269 -311 301 -306 b 306 -210 365 -279 351 -194 b 282 -215 296 -212 290 -215 b 242 -153 261 -215 240 -199 b 307 0 242 -115 261 -58 l 371 0 b 406 26 392 0 406 10 l 406 32 b 343 153 406 72 343 89 z "},"ĩ":{"ha":431,"x_min":0,"x_max":0,"o":"m 131 1003 b -35 843 43 1003 -18 928 b -12 811 -37 822 -28 811 l 3 811 b 40 836 25 811 26 819 b 94 863 56 854 72 863 b 318 793 164 863 229 793 b 479 956 401 793 460 867 b 457 988 483 976 475 988 l 446 988 b 413 968 429 988 421 981 b 350 938 399 949 383 938 b 131 1003 290 938 229 1003 z m 72 0 l 371 0 b 406 26 392 0 406 10 l 406 32 b 343 153 406 72 343 89 l 343 644 b 281 674 343 671 319 693 l 71 571 b 39 539 51 561 39 554 l 39 533 b 94 417 39 500 94 481 l 94 153 b 39 32 94 89 39 72 l 39 26 b 72 0 39 10 51 0 z "},"j":{"ha":408,"x_min":0,"x_max":0,"o":"m 204 749 b 363 888 300 749 363 810 b 204 1026 363 967 300 1026 b 46 888 110 1026 46 967 b 204 749 46 810 110 749 z m 86 -276 b 292 -186 186 -276 243 -243 b 346 -10 326 -144 346 -79 l 346 644 b 282 674 346 671 321 693 l 71 571 b 40 539 53 561 40 554 l 40 533 b 96 417 40 499 96 482 l 96 69 b 188 -140 96 -17 188 -35 b 136 -199 188 -174 167 -199 b -33 -28 50 -199 110 -28 b -136 -128 -92 -28 -136 -68 b 86 -276 -136 -231 -44 -276 z "},"ȷ":{"ha":408,"x_min":0,"x_max":0,"o":"m 86 -276 b 292 -186 186 -276 243 -243 b 346 -10 326 -144 346 -79 l 346 644 b 282 674 346 671 321 693 l 71 571 b 40 539 53 561 40 554 l 40 533 b 96 417 40 499 96 482 l 96 69 b 188 -140 96 -17 188 -35 b 136 -199 188 -174 167 -199 b -33 -28 50 -199 110 -28 b -136 -128 -92 -28 -136 -68 b 86 -276 -136 -231 -44 -276 z "},"k":{"ha":824,"x_min":0,"x_max":0,"o":"m 772 117 l 549 436 l 638 518 b 768 635 693 569 768 596 l 768 640 b 736 667 768 657 756 667 l 517 667 b 485 639 497 667 485 656 l 485 633 b 519 517 485 596 563 553 l 332 356 l 332 1015 b 269 1044 332 1040 308 1063 l 47 942 b 17 910 29 932 17 925 l 17 904 b 83 786 17 869 83 851 l 83 151 b 28 32 83 88 28 72 l 28 26 b 61 0 28 10 42 0 l 361 0 b 394 26 381 0 394 10 l 394 32 b 332 151 394 72 332 88 l 332 235 l 401 299 l 524 117 b 494 32 546 82 494 71 l 494 28 b 526 0 494 11 507 0 l 818 0 b 850 26 838 0 850 10 l 850 32 b 772 117 850 71 793 86 z "},"ķ":{"ha":825,"x_min":0,"x_max":0,"o":"m 772 117 l 549 436 l 638 518 b 768 635 693 569 768 596 l 768 640 b 736 667 768 657 756 667 l 517 667 b 485 639 497 667 485 656 l 485 633 b 519 517 485 596 563 553 l 332 356 l 332 1015 b 269 1044 332 1040 308 1063 l 47 942 b 17 910 29 932 17 925 l 17 904 b 83 786 17 869 83 851 l 83 151 b 28 32 83 88 28 72 l 28 26 b 61 0 28 10 42 0 l 361 0 b 394 26 381 0 394 10 l 394 32 b 332 151 394 72 332 88 l 332 235 l 401 299 l 524 117 b 494 32 546 82 494 71 l 494 28 b 526 0 494 11 507 0 l 818 0 b 850 26 838 0 850 10 l 850 32 b 772 117 850 71 793 86 z m 414 -42 b 290 -172 338 -42 290 -94 b 378 -286 290 -239 331 -286 b 394 -314 393 -286 396 -297 b 324 -418 390 -349 369 -372 b 363 -460 300 -442 335 -476 b 544 -190 486 -385 544 -294 b 414 -42 544 -94 482 -42 z "},"ĸ":{"ha":842,"x_min":0,"x_max":0,"o":"m 792 117 l 567 436 l 656 518 b 786 635 711 569 786 596 l 786 640 b 754 667 786 657 774 667 l 535 667 b 503 639 515 667 503 656 l 503 633 b 542 517 503 596 583 551 l 350 357 l 350 789 b 288 818 350 814 326 836 l 65 714 b 33 682 46 706 33 697 l 33 678 b 100 560 33 643 100 625 l 100 151 b 44 32 100 88 44 72 l 44 26 b 78 0 44 10 58 0 l 379 0 b 413 26 399 0 413 10 l 413 32 b 350 151 413 72 350 88 l 350 235 l 421 300 l 543 117 b 515 32 565 82 515 71 l 515 28 b 547 0 515 11 528 0 l 836 0 b 868 26 856 0 868 10 l 868 32 b 792 117 868 71 814 85 z "},"l":{"ha":421,"x_min":0,"x_max":0,"o":"m 61 0 l 361 0 b 394 26 381 0 394 10 l 394 32 b 333 151 394 72 333 88 l 333 1015 b 269 1044 333 1040 308 1064 l 60 942 b 29 910 42 932 29 925 l 29 904 b 83 786 29 869 83 851 l 83 151 b 29 32 83 88 29 72 l 29 26 b 61 0 29 10 42 0 z "},"ĺ":{"ha":422,"x_min":0,"x_max":0,"o":"m 22 1106 l 318 1131 b 363 1200 358 1133 372 1164 l 335 1300 b 256 1331 324 1336 294 1351 l -11 1188 b -31 1133 -29 1176 -39 1154 b 22 1106 -22 1113 0 1104 z m 61 0 l 361 0 b 394 26 381 0 394 10 l 394 32 b 333 151 394 72 333 88 l 333 1015 b 269 1044 333 1040 308 1064 l 60 942 b 29 910 42 932 29 925 l 29 904 b 83 786 29 869 83 851 l 83 151 b 29 32 83 88 29 72 l 29 26 b 61 0 29 10 42 0 z "},"ľ":{"ha":443,"x_min":0,"x_max":0,"o":"m 408 753 b 464 754 428 740 450 746 b 632 1072 551 808 632 924 b 590 1113 632 1097 615 1113 l 494 1113 b 460 1072 475 1113 460 1093 b 390 810 460 989 446 883 b 394 763 376 792 381 772 z m 61 0 l 361 0 b 394 26 381 0 394 10 l 394 32 b 333 151 394 72 333 88 l 333 1015 b 269 1044 333 1040 308 1064 l 60 942 b 29 910 42 932 29 925 l 29 904 b 83 786 29 869 83 851 l 83 151 b 29 32 83 88 29 72 l 29 26 b 61 0 29 10 42 0 z "},"ļ":{"ha":422,"x_min":0,"x_max":0,"o":"m 61 0 l 361 0 b 394 26 381 0 394 10 l 394 32 b 333 151 394 72 333 88 l 333 1015 b 269 1044 333 1040 308 1064 l 60 942 b 29 910 42 932 29 925 l 29 904 b 83 786 29 869 83 851 l 83 151 b 29 32 83 88 29 72 l 29 26 b 61 0 29 10 42 0 z m 158 -456 b 340 -185 282 -381 340 -289 b 210 -36 340 -90 278 -36 b 86 -168 133 -36 86 -90 b 174 -282 86 -235 126 -282 b 190 -308 189 -282 192 -293 b 119 -414 186 -344 165 -368 b 158 -456 97 -436 131 -472 z "},"ŀ":{"ha":711,"x_min":0,"x_max":0,"o":"m 61 0 l 361 0 b 394 26 381 0 394 10 l 394 32 b 333 151 394 72 333 88 l 333 1015 b 269 1044 333 1040 308 1064 l 60 942 b 29 910 42 932 29 925 l 29 904 b 83 786 29 869 83 851 l 83 151 b 29 32 83 88 29 72 l 29 26 b 61 0 29 10 42 0 z m 563 404 b 708 536 642 404 708 446 b 563 668 708 626 642 668 b 415 536 482 668 415 626 b 563 404 415 446 482 404 z "},"ł":{"ha":533,"x_min":0,"x_max":0,"o":"m 529 621 l 501 665 b 461 671 493 679 476 682 l 403 633 l 403 1015 b 340 1044 403 1040 379 1064 l 131 942 b 99 910 111 932 99 925 l 99 904 b 154 786 99 869 154 851 l 154 471 l 22 385 b 13 350 8 375 3 365 l 43 303 b 75 297 50 293 61 289 l 154 349 l 154 151 b 99 32 154 88 99 72 l 99 26 b 132 0 99 10 111 0 l 431 0 b 464 26 451 0 464 10 l 464 32 b 403 151 464 72 403 88 l 403 510 l 521 586 b 529 621 535 596 536 610 z "},"m":{"ha":1278,"x_min":0,"x_max":0,"o":"m 1211 151 l 1193 389 b 938 681 1176 614 1057 681 b 732 567 846 681 769 639 b 504 681 683 642 600 681 b 319 592 425 681 360 647 l 319 642 b 267 675 319 669 301 692 l 58 579 b 25 544 39 569 25 561 l 25 540 b 99 425 25 500 99 490 l 99 151 b 38 31 99 88 38 69 l 38 25 b 71 -1 38 8 50 -1 l 371 -1 b 404 25 392 -1 404 8 l 404 31 b 343 151 404 69 343 88 l 343 457 b 436 589 343 532 372 589 b 531 415 494 589 531 533 l 531 151 b 482 31 531 88 482 69 l 482 25 b 515 -1 482 8 494 -1 l 792 -1 b 825 25 811 -1 825 8 l 825 31 b 775 151 825 69 775 88 l 775 399 b 771 457 775 419 774 438 b 857 589 771 533 800 589 b 953 397 917 589 946 538 l 967 151 b 917 31 971 88 917 69 l 917 25 b 950 -1 917 8 931 -1 l 1228 -1 b 1261 25 1247 -1 1261 8 l 1261 31 b 1211 151 1261 69 1215 88 z "},"n":{"ha":856,"x_min":0,"x_max":0,"o":"m 789 151 l 771 392 b 506 681 754 613 626 681 b 307 576 414 681 344 643 l 307 642 b 254 675 307 669 289 693 l 60 579 b 26 544 40 569 26 561 l 26 540 b 100 425 26 500 100 492 l 100 151 b 39 31 100 88 39 71 l 39 25 b 72 -1 39 8 51 -1 l 372 -1 b 406 25 393 -1 406 8 l 406 31 b 344 151 406 71 344 88 l 344 454 b 435 589 344 535 374 589 b 531 400 497 589 524 538 l 544 151 b 494 31 549 88 494 71 l 494 25 b 528 -1 494 8 507 -1 l 806 -1 b 839 25 825 -1 839 8 l 839 31 b 789 151 839 71 793 88 z "},"ń":{"ha":856,"x_min":0,"x_max":0,"o":"m 342 758 l 628 835 b 660 910 668 844 676 876 l 615 1004 b 532 1021 599 1038 567 1049 l 294 835 b 285 776 278 821 272 797 b 342 758 297 758 319 753 z m 789 151 l 771 392 b 506 681 754 613 626 681 b 307 576 414 681 344 643 l 307 642 b 254 675 307 669 289 693 l 60 579 b 26 544 40 569 26 561 l 26 540 b 100 425 26 500 100 492 l 100 151 b 39 31 100 88 39 71 l 39 25 b 72 -1 39 8 51 -1 l 372 -1 b 406 25 393 -1 406 8 l 406 31 b 344 151 406 71 344 88 l 344 454 b 435 589 344 535 374 589 b 531 400 497 589 524 538 l 544 151 b 494 31 549 88 494 71 l 494 25 b 528 -1 494 8 507 -1 l 806 -1 b 839 25 825 -1 839 8 l 839 31 b 789 151 839 71 793 88 z "},"ŉ":{"ha":983,"x_min":0,"x_max":0,"o":"m 83 1115 b -58 967 -4 1115 -58 1054 b 42 838 -58 890 -12 838 b 60 807 60 838 63 825 b -19 688 56 765 32 739 b 24 640 -46 661 -7 621 b 231 946 165 725 231 828 b 83 1115 231 1054 160 1115 z m 917 151 l 899 392 b 633 681 882 613 754 681 b 435 576 542 681 472 643 l 435 642 b 382 675 435 669 417 693 l 188 579 b 154 544 168 569 154 561 l 154 540 b 228 425 154 500 228 492 l 228 151 b 167 31 228 88 167 71 l 167 25 b 200 -1 167 8 179 -1 l 500 -1 b 533 25 521 -1 533 8 l 533 31 b 472 151 533 71 472 88 l 472 454 b 563 589 472 535 501 589 b 658 400 625 589 651 538 l 672 151 b 622 31 676 88 622 71 l 622 25 b 656 -1 622 8 635 -1 l 933 -1 b 967 25 953 -1 967 8 l 967 31 b 917 151 967 71 921 88 z "},"ň":{"ha":856,"x_min":0,"x_max":0,"o":"m 368 783 b 435 756 389 763 408 756 l 490 756 b 556 782 517 756 535 763 l 714 939 b 664 999 740 964 696 1015 l 469 896 l 271 999 b 219 939 242 1013 192 969 z m 789 151 l 771 392 b 506 681 754 613 626 681 b 307 576 414 681 344 643 l 307 642 b 254 675 307 669 289 693 l 60 579 b 26 544 40 569 26 561 l 26 540 b 100 425 26 500 100 492 l 100 151 b 39 31 100 88 39 71 l 39 25 b 72 -1 39 8 51 -1 l 372 -1 b 406 25 393 -1 406 8 l 406 31 b 344 151 406 71 344 88 l 344 454 b 435 589 344 535 374 589 b 531 400 497 589 524 538 l 544 151 b 494 31 549 88 494 71 l 494 25 b 528 -1 494 8 507 -1 l 806 -1 b 839 25 825 -1 839 8 l 839 31 b 789 151 839 71 793 88 z "},"ņ":{"ha":856,"x_min":0,"x_max":0,"o":"m 789 151 l 771 392 b 506 681 754 613 626 681 b 307 576 414 681 344 643 l 307 642 b 254 675 307 669 289 693 l 60 579 b 26 544 40 569 26 561 l 26 540 b 100 425 26 500 100 492 l 100 151 b 39 31 100 88 39 71 l 39 25 b 72 -1 39 8 51 -1 l 372 -1 b 406 25 393 -1 406 8 l 406 31 b 344 151 406 71 344 88 l 344 454 b 435 589 344 535 374 589 b 531 400 497 589 524 538 l 544 151 b 494 31 549 88 494 71 l 494 25 b 528 -1 494 8 507 -1 l 806 -1 b 839 25 825 -1 839 8 l 839 31 b 789 151 839 71 793 88 z m 432 -42 b 308 -172 356 -42 308 -94 b 396 -286 308 -239 349 -286 b 413 -314 411 -286 414 -297 b 342 -418 408 -349 388 -372 b 381 -460 318 -442 353 -476 b 563 -190 504 -385 563 -294 b 432 -42 563 -94 500 -42 z "},"ŋ":{"ha":836,"x_min":0,"x_max":0,"o":"m 797 33 l 771 389 b 506 681 754 611 626 681 b 307 578 414 681 344 644 l 307 642 b 254 675 307 669 289 693 l 60 579 b 26 544 40 569 26 561 l 26 540 b 100 424 26 500 100 489 l 100 153 b 39 32 100 89 39 71 l 39 26 b 72 0 39 10 51 0 l 372 0 b 406 26 392 0 406 10 l 406 32 b 344 153 406 71 344 89 l 344 483 b 433 589 351 547 381 589 b 531 397 497 589 522 536 l 549 106 b 643 -140 558 -46 643 -37 b 592 -199 643 -175 622 -199 b 426 -43 506 -199 557 -43 b 324 -135 368 -43 324 -76 b 542 -278 324 -215 414 -278 b 747 -186 643 -278 699 -243 b 797 33 782 -144 804 -61 z "},"ñ":{"ha":856,"x_min":0,"x_max":0,"o":"m 228 811 l 244 811 b 281 836 267 811 267 819 b 335 863 296 854 313 863 b 560 793 404 863 471 793 b 719 956 643 793 700 867 b 697 988 724 976 717 988 l 688 988 b 653 968 671 988 663 981 b 590 938 639 949 625 938 b 371 1003 531 938 469 1003 b 207 843 285 1003 224 928 b 228 811 203 822 214 811 z m 789 151 l 771 392 b 506 681 754 613 626 681 b 307 576 414 681 344 643 l 307 642 b 254 675 307 669 289 693 l 60 579 b 26 544 40 569 26 561 l 26 540 b 100 425 26 500 100 492 l 100 151 b 39 31 100 88 39 71 l 39 25 b 72 -1 39 8 51 -1 l 372 -1 b 406 25 393 -1 406 8 l 406 31 b 344 151 406 71 344 88 l 344 454 b 435 589 344 535 374 589 b 531 400 497 589 524 538 l 544 151 b 494 31 549 88 494 71 l 494 25 b 528 -1 494 8 507 -1 l 806 -1 b 839 25 825 -1 839 8 l 839 31 b 789 151 839 71 793 88 z "},"o":{"ha":815,"x_min":0,"x_max":0,"o":"m 414 -14 b 785 332 617 -14 785 129 b 404 681 785 536 613 681 b 29 335 206 681 29 540 b 414 -14 29 133 201 -14 z m 443 54 b 275 439 331 54 275 326 b 365 613 275 551 299 613 b 532 225 475 613 532 333 b 443 54 532 121 508 54 z "},"ó":{"ha":815,"x_min":0,"x_max":0,"o":"m 283 758 l 569 835 b 603 910 610 844 618 876 l 557 1004 b 474 1021 540 1038 510 1049 l 236 835 b 226 776 219 821 214 797 b 283 758 239 758 261 753 z m 414 -14 b 785 332 617 -14 785 129 b 404 681 785 536 613 681 b 29 335 206 681 29 540 b 414 -14 29 133 201 -14 z m 443 54 b 275 439 331 54 275 326 b 365 613 275 551 299 613 b 532 225 475 613 532 333 b 443 54 532 121 508 54 z "},"ô":{"ha":815,"x_min":0,"x_max":0,"o":"m 208 756 l 394 857 l 603 756 b 660 826 660 726 703 783 l 490 985 b 424 1013 471 1004 451 1013 l 376 1013 b 310 983 349 1013 331 1007 l 157 826 b 208 756 111 776 175 738 z m 404 681 b 29 335 206 681 29 540 b 414 -14 29 133 201 -14 b 785 332 617 -14 785 129 b 404 681 785 536 613 681 z m 443 54 b 275 439 331 54 275 326 b 365 613 275 551 299 613 b 532 225 475 613 532 333 b 443 54 532 121 508 54 z "},"ö":{"ha":815,"x_min":0,"x_max":0,"o":"m 235 756 b 376 882 319 756 376 811 b 235 1007 376 953 319 1007 b 92 882 149 1007 92 953 b 235 756 92 811 149 756 z m 581 756 b 724 882 665 756 724 811 b 581 1007 724 953 665 1007 b 439 882 496 1007 439 953 b 581 756 439 811 496 756 z m 414 -14 b 785 332 617 -14 785 129 b 404 681 785 536 613 681 b 29 335 206 681 29 540 b 414 -14 29 133 201 -14 z m 443 54 b 275 439 331 54 275 326 b 365 613 275 551 299 613 b 532 225 475 613 532 333 b 443 54 532 121 508 54 z "},"ò":{"ha":815,"x_min":0,"x_max":0,"o":"m 522 750 b 579 768 544 744 567 750 b 569 825 592 788 586 813 l 332 1013 b 249 996 296 1040 265 1029 l 203 901 b 236 826 188 868 196 836 z m 414 -14 b 785 332 617 -14 785 129 b 404 681 785 536 613 681 b 29 335 206 681 29 540 b 414 -14 29 133 201 -14 z m 443 54 b 275 439 331 54 275 326 b 365 613 275 551 299 613 b 532 225 475 613 532 333 b 443 54 532 121 508 54 z "},"ő":{"ha":815,"x_min":0,"x_max":0,"o":"m 142 747 b 188 751 154 736 171 739 l 421 925 b 419 1007 454 947 450 981 l 371 1054 b 290 1039 342 1082 313 1076 l 144 793 b 142 747 135 774 132 757 z m 439 747 b 485 751 451 736 468 739 l 719 925 b 718 1007 751 947 749 979 l 668 1054 b 588 1039 639 1082 610 1076 l 442 793 b 439 747 432 774 428 758 z m 414 -14 b 785 332 617 -14 785 129 b 404 681 785 536 613 681 b 29 335 206 681 29 540 b 414 -14 29 133 201 -14 z m 443 54 b 275 439 331 54 275 326 b 365 613 275 551 299 613 b 532 225 475 613 532 333 b 443 54 532 121 508 54 z "},"ō":{"ha":815,"x_min":0,"x_max":0,"o":"m 211 801 l 604 801 b 638 835 626 801 638 814 l 638 918 b 604 951 638 940 626 951 l 211 951 b 178 918 190 951 178 940 l 178 835 b 211 801 178 814 190 801 z m 414 -14 b 785 332 617 -14 785 129 b 404 681 785 536 613 681 b 29 335 206 681 29 540 b 414 -14 29 133 201 -14 z m 443 54 b 275 439 331 54 275 326 b 365 613 275 551 299 613 b 532 225 475 613 532 333 b 443 54 532 121 508 54 z "},"ǫ":{"ha":815,"x_min":0,"x_max":0,"o":"m 479 -8 b 785 332 651 18 785 151 b 404 681 785 536 613 681 b 29 335 206 681 29 540 b 368 -11 29 149 176 8 b 251 -181 283 -65 251 -121 b 421 -308 251 -279 346 -308 b 497 -296 451 -308 483 -303 b 488 -207 547 -276 533 -192 b 464 -211 479 -210 472 -211 b 424 -149 443 -211 422 -196 b 479 -8 424 -114 440 -62 z m 365 613 b 532 225 475 613 532 333 b 443 54 532 121 508 54 b 275 439 331 54 275 326 b 365 613 275 551 299 613 z "},"ø":{"ha":821,"x_min":0,"x_max":0,"o":"m 701 560 l 772 628 b 775 664 785 639 786 654 l 744 693 b 704 690 735 704 718 703 l 629 618 b 408 681 567 658 490 681 b 33 335 208 681 33 540 b 111 121 33 253 63 179 l 43 56 b 40 18 32 43 31 29 l 75 -14 b 106 -14 85 -24 96 -24 l 181 58 b 417 -14 246 13 328 -14 b 789 332 621 -14 789 129 b 701 560 789 422 756 500 z m 278 439 b 369 613 278 551 303 613 b 486 481 419 613 458 554 l 294 297 b 278 439 283 351 278 403 z m 447 54 b 324 196 393 54 351 118 l 515 381 b 536 225 529 321 536 263 b 447 54 536 121 511 54 z "},"ǿ":{"ha":821,"x_min":0,"x_max":0,"o":"m 258 758 l 543 835 b 576 910 583 844 593 876 l 531 1004 b 449 1021 514 1038 483 1049 l 210 835 b 201 776 194 821 189 797 b 258 758 213 758 235 753 z m 701 560 l 772 628 b 775 664 785 639 786 654 l 744 693 b 704 690 735 704 718 703 l 629 618 b 408 681 567 658 490 681 b 33 335 208 681 33 540 b 111 121 33 253 63 179 l 43 56 b 40 18 32 43 31 29 l 75 -14 b 106 -14 85 -24 96 -24 l 181 58 b 417 -14 246 13 328 -14 b 789 332 621 -14 789 129 b 701 560 789 422 756 500 z m 278 439 b 369 613 278 551 303 613 b 486 481 419 613 458 554 l 294 297 b 278 439 283 351 278 403 z m 447 54 b 324 196 393 54 351 118 l 515 381 b 536 225 529 321 536 263 b 447 54 536 121 511 54 z "},"õ":{"ha":815,"x_min":0,"x_max":0,"o":"m 313 1003 b 149 843 226 1003 165 928 b 171 811 144 822 156 811 l 186 811 b 222 836 208 811 210 819 b 276 863 238 854 254 863 b 501 793 346 863 413 793 b 663 956 585 793 642 867 b 639 988 667 976 658 988 l 629 988 b 594 968 613 988 604 981 b 532 938 582 949 567 938 b 313 1003 472 938 411 1003 z m 414 -14 b 785 332 617 -14 785 129 b 404 681 785 536 613 681 b 29 335 206 681 29 540 b 414 -14 29 133 201 -14 z m 443 54 b 275 439 331 54 275 326 b 365 613 275 551 299 613 b 532 225 475 613 532 333 b 443 54 532 121 508 54 z "},"œ":{"ha":1179,"x_min":0,"x_max":0,"o":"m 1104 219 b 965 158 1076 189 1025 158 b 807 249 897 158 843 192 l 1083 404 b 1138 490 1115 421 1138 449 b 868 681 1138 578 1051 681 b 639 594 781 681 700 649 b 408 681 575 649 492 681 b 29 335 207 681 29 540 b 410 -14 29 128 210 -14 b 639 71 493 -14 575 17 b 874 -14 699 17 779 -14 b 1156 200 1056 -14 1151 124 b 1104 219 1157 231 1124 239 z m 847 613 b 940 469 917 613 940 514 b 904 396 940 440 926 411 l 775 319 b 754 467 761 363 754 413 b 847 613 754 547 790 613 z m 443 56 b 275 443 331 56 275 325 b 364 611 275 546 297 611 b 532 222 478 611 532 318 b 443 56 532 125 510 56 z "},"p":{"ha":826,"x_min":0,"x_max":0,"o":"m 467 681 b 289 604 388 681 324 653 l 289 644 b 231 672 289 672 272 692 l 47 582 b 15 542 28 571 15 558 l 15 535 b 82 428 15 494 82 488 l 82 -142 b 26 -261 82 -206 26 -222 l 26 -267 b 60 -293 26 -283 40 -293 l 354 -293 b 388 -267 374 -293 388 -283 l 388 -261 b 325 -142 388 -222 325 -206 l 325 26 b 467 -14 363 0 408 -14 b 794 344 639 -14 794 125 b 467 681 794 571 624 681 z m 444 54 b 325 251 383 54 325 133 l 325 503 b 408 613 325 568 358 613 b 550 229 510 613 550 379 b 444 54 550 115 515 54 z "},"þ":{"ha":806,"x_min":0,"x_max":0,"o":"m 446 681 b 306 640 390 681 342 667 l 306 1018 b 246 1046 306 1046 289 1065 l 26 940 b -6 901 8 932 -6 918 l -6 894 b 63 786 -6 854 63 847 l 63 -142 b 7 -261 63 -206 7 -222 l 7 -267 b 40 -293 7 -283 19 -293 l 333 -293 b 367 -267 354 -293 367 -283 l 367 -261 b 306 -142 367 -222 306 -206 l 306 25 b 447 -14 343 0 389 -14 b 774 344 619 -14 774 125 b 446 681 774 571 603 681 z m 425 54 b 306 221 364 54 306 136 l 306 525 b 389 613 313 578 344 613 b 531 229 490 613 531 379 b 425 54 531 115 494 54 z "},"q":{"ha":822,"x_min":0,"x_max":0,"o":"m 800 601 l 800 607 b 767 646 800 628 788 643 l 594 671 b 528 631 554 676 528 661 l 528 622 b 360 681 486 660 432 681 b 31 333 185 681 31 540 b 358 -14 31 106 190 -14 b 503 28 414 -14 464 1 l 503 -142 b 442 -262 503 -206 442 -222 l 442 -267 b 475 -293 442 -283 454 -293 l 761 -293 b 794 -267 781 -293 794 -283 l 794 -262 b 739 -142 794 -222 739 -206 l 739 476 b 800 601 739 553 800 572 z m 414 54 b 268 442 310 58 264 325 b 378 613 272 553 310 613 b 503 439 442 613 503 543 l 503 171 b 414 54 503 96 461 53 z "},"r":{"ha":631,"x_min":0,"x_max":0,"o":"m 500 681 b 308 543 404 681 339 632 l 308 644 b 258 675 308 672 294 692 l 63 583 b 31 543 42 572 31 560 l 31 539 b 97 428 31 499 97 493 l 97 151 b 42 32 97 88 42 71 l 42 26 b 75 0 42 10 56 0 l 374 0 b 407 26 393 0 407 10 l 407 32 b 333 151 407 71 333 88 l 333 410 b 385 543 333 471 340 543 b 524 413 454 543 397 413 b 631 543 604 413 631 474 b 500 681 631 621 582 681 z "},"ŕ":{"ha":631,"x_min":0,"x_max":0,"o":"m 211 758 l 497 835 b 529 910 536 844 546 876 l 485 1004 b 401 1021 468 1038 436 1049 l 164 835 b 154 776 147 821 142 797 b 211 758 165 758 189 753 z m 500 681 b 308 543 404 681 339 632 l 308 644 b 258 675 308 672 294 692 l 63 583 b 31 543 42 572 31 560 l 31 539 b 97 428 31 499 97 493 l 97 151 b 42 32 97 88 42 71 l 42 26 b 75 0 42 10 56 0 l 374 0 b 407 26 393 0 407 10 l 407 32 b 333 151 407 71 333 88 l 333 410 b 385 543 333 471 340 543 b 524 413 454 543 397 413 b 631 543 604 413 631 474 b 500 681 631 621 582 681 z "},"ř":{"ha":631,"x_min":0,"x_max":0,"o":"m 238 783 b 304 756 258 763 276 756 l 358 756 b 425 782 386 756 404 763 l 583 939 b 533 999 610 964 565 1015 l 338 896 l 139 999 b 89 939 110 1013 61 969 z m 500 681 b 308 543 404 681 339 632 l 308 644 b 258 675 308 672 294 692 l 63 583 b 31 543 42 572 31 560 l 31 539 b 97 428 31 499 97 493 l 97 151 b 42 32 97 88 42 71 l 42 26 b 75 0 42 10 56 0 l 374 0 b 407 26 393 0 407 10 l 407 32 b 333 151 407 71 333 88 l 333 410 b 385 543 333 471 340 543 b 524 413 454 543 397 413 b 631 543 604 413 631 474 b 500 681 631 621 582 681 z "},"ŗ":{"ha":631,"x_min":0,"x_max":0,"o":"m 500 681 b 308 543 404 681 339 632 l 308 644 b 258 675 308 672 294 692 l 63 583 b 31 543 42 572 31 560 l 31 539 b 97 428 31 499 97 493 l 97 151 b 42 32 97 88 42 71 l 42 26 b 75 0 42 10 56 0 l 374 0 b 407 26 393 0 407 10 l 407 32 b 333 151 407 71 333 88 l 333 410 b 385 543 333 471 340 543 b 524 413 454 543 397 413 b 631 543 604 413 631 474 b 500 681 631 621 582 681 z m 215 -42 b 92 -172 139 -42 92 -94 b 179 -286 92 -239 132 -286 b 196 -314 194 -286 197 -297 b 125 -418 192 -349 171 -372 b 164 -460 103 -442 136 -476 b 346 -190 288 -385 346 -294 b 215 -42 346 -94 283 -42 z "},"s":{"ha":672,"x_min":0,"x_max":0,"o":"m 338 -12 b 640 192 531 -12 640 76 b 285 538 640 447 285 347 b 350 617 285 578 307 617 b 536 429 446 617 401 429 b 629 514 588 429 629 465 b 338 681 629 604 514 681 b 44 469 164 681 44 593 b 413 125 44 200 413 307 b 338 49 413 69 379 49 b 131 239 222 49 269 239 b 32 150 75 239 32 213 b 338 -12 32 53 163 -12 z "},"ś":{"ha":672,"x_min":0,"x_max":0,"o":"m 211 758 l 497 835 b 529 910 536 844 546 876 l 485 1004 b 401 1021 468 1038 436 1049 l 164 835 b 154 776 147 821 142 797 b 211 758 165 758 189 753 z m 338 -12 b 640 192 531 -12 640 76 b 285 538 640 447 285 347 b 350 617 285 578 307 617 b 536 429 446 617 401 429 b 629 514 588 429 629 465 b 338 681 629 604 514 681 b 44 469 164 681 44 593 b 413 125 44 200 413 307 b 338 49 413 69 379 49 b 131 239 222 49 269 239 b 32 150 75 239 32 213 b 338 -12 32 53 163 -12 z "},"š":{"ha":672,"x_min":0,"x_max":0,"o":"m 238 783 b 304 756 258 763 276 756 l 358 756 b 425 782 386 756 404 763 l 583 939 b 533 999 610 964 565 1015 l 338 896 l 139 999 b 89 939 110 1013 61 969 z m 285 538 b 350 617 285 578 307 617 b 536 429 446 617 401 429 b 629 514 588 429 629 465 b 338 681 629 604 514 681 b 44 469 164 681 44 593 b 413 125 44 200 413 307 b 338 49 413 69 379 49 b 131 239 222 49 269 239 b 32 150 75 239 32 213 b 338 -12 32 53 163 -12 b 640 192 531 -12 640 76 b 285 538 640 447 285 347 z "},"ş":{"ha":672,"x_min":0,"x_max":0,"o":"m 640 192 b 285 538 640 447 285 347 b 350 617 285 578 307 617 b 536 429 446 617 401 429 b 629 514 588 429 629 465 b 338 681 629 604 514 681 b 44 469 164 681 44 593 b 413 125 44 200 413 307 b 338 49 413 69 379 49 b 131 239 222 49 269 239 b 32 150 75 239 32 213 b 294 -11 32 61 142 -1 l 278 -90 b 314 -132 272 -122 292 -132 b 396 -179 344 -132 396 -142 b 325 -231 396 -214 363 -231 b 246 -214 299 -231 263 -224 b 242 -294 215 -199 201 -275 b 364 -314 264 -304 304 -314 b 567 -189 469 -314 567 -275 b 390 -71 567 -101 475 -68 l 393 -10 b 640 192 551 6 640 88 z "},"ș":{"ha":672,"x_min":0,"x_max":0,"o":"m 338 -12 b 640 192 531 -12 640 76 b 285 538 640 447 285 347 b 350 617 285 578 307 617 b 536 429 446 617 401 429 b 629 514 588 429 629 465 b 338 681 629 604 514 681 b 44 469 164 681 44 593 b 413 125 44 200 413 307 b 338 49 413 69 379 49 b 131 239 222 49 269 239 b 32 150 75 239 32 213 b 338 -12 32 53 163 -12 z m 288 -460 b 469 -190 411 -385 469 -294 b 339 -42 469 -94 407 -42 b 215 -172 263 -42 215 -94 b 303 -286 215 -239 256 -286 b 319 -314 318 -286 321 -297 b 249 -418 315 -349 294 -372 b 288 -460 226 -442 260 -476 z "},"ß":{"ha":840,"x_min":0,"x_max":0,"o":"m 590 542 b 728 742 665 572 728 642 b 422 1017 728 914 585 1017 b 83 713 207 1017 83 888 l 83 153 b 28 32 83 88 28 71 l 28 26 b 60 0 28 10 40 0 l 364 0 b 396 26 383 0 396 -4 l 396 32 b 322 153 396 78 322 88 l 322 825 b 407 949 322 882 343 949 b 514 714 483 949 514 865 b 426 571 514 613 471 571 b 426 489 375 571 378 489 b 585 224 524 489 585 382 b 483 67 585 131 540 67 b 492 0 443 67 436 0 b 813 265 667 0 813 96 b 590 542 813 410 724 513 z "},"t":{"ha":560,"x_min":0,"x_max":0,"o":"m 324 -14 b 554 206 475 -14 554 99 b 501 215 554 232 521 240 b 410 164 486 190 464 164 b 347 239 375 164 347 192 l 347 572 l 490 572 b 522 604 508 572 522 586 l 522 635 b 490 667 522 653 508 667 l 347 667 l 347 807 b 310 843 347 829 332 843 l 278 843 b 240 807 260 843 244 829 b 71 667 222 722 156 667 l 44 667 b 13 635 25 667 13 654 l 13 604 b 44 572 13 586 26 572 l 97 572 l 97 243 b 324 -14 97 75 186 -14 z "},"ŧ":{"ha":571,"x_min":0,"x_max":0,"o":"m 508 215 b 418 164 494 190 471 164 b 354 239 382 164 354 192 l 354 358 l 489 358 b 514 386 504 358 514 367 l 514 428 b 489 451 514 442 504 451 l 354 451 l 354 572 l 497 572 b 529 604 515 572 529 586 l 529 635 b 497 667 529 653 515 667 l 354 667 l 354 807 b 318 843 354 829 340 843 l 285 843 b 247 807 267 843 251 829 b 78 667 229 722 164 667 l 51 667 b 21 635 33 667 21 654 l 21 604 b 51 572 21 586 35 572 l 104 572 l 104 451 l 47 451 b 24 428 35 451 24 446 l 24 381 b 47 358 24 363 35 358 l 104 358 l 104 243 b 331 -14 104 75 194 -14 b 561 206 482 -14 561 99 b 508 215 561 232 528 240 z "},"ť":{"ha":560,"x_min":0,"x_max":0,"o":"m 444 743 b 500 744 463 731 485 736 b 667 1063 588 797 667 914 b 625 1103 667 1088 650 1103 l 531 1103 b 494 1063 510 1103 494 1083 b 425 800 494 979 482 874 b 429 753 411 782 417 763 z m 324 -14 b 554 206 475 -14 554 99 b 501 215 554 232 521 240 b 410 164 486 190 464 164 b 347 239 375 164 347 192 l 347 572 l 490 572 b 522 604 508 572 522 586 l 522 635 b 490 667 522 653 508 667 l 347 667 l 347 807 b 310 843 347 829 332 843 l 278 843 b 240 807 260 843 244 829 b 71 667 222 722 156 667 l 44 667 b 13 635 25 667 13 654 l 13 604 b 44 572 13 586 26 572 l 97 572 l 97 243 b 324 -14 97 75 186 -14 z "},"ţ":{"ha":560,"x_min":0,"x_max":0,"o":"m 343 -71 l 346 -12 b 554 206 482 -3 554 104 b 501 215 554 232 521 240 b 410 164 486 190 464 164 b 347 239 375 164 347 192 l 347 572 l 490 572 b 522 604 508 572 522 586 l 522 635 b 490 667 522 653 508 667 l 347 667 l 347 807 b 310 843 347 829 332 843 l 278 843 b 240 807 260 843 244 829 b 71 667 222 722 156 667 l 44 667 b 13 635 25 667 13 654 l 13 604 b 44 572 13 586 26 572 l 97 572 l 97 243 b 249 -4 97 108 156 24 l 231 -90 b 267 -132 225 -122 244 -132 b 349 -179 297 -132 349 -142 b 278 -231 349 -214 315 -231 b 199 -214 251 -231 215 -224 b 194 -294 168 -199 154 -275 b 317 -314 217 -304 257 -314 b 519 -189 422 -314 519 -275 b 343 -71 519 -101 428 -68 z "},"ț":{"ha":560,"x_min":0,"x_max":0,"o":"m 324 -14 b 554 206 475 -14 554 99 b 501 215 554 232 521 240 b 410 164 486 190 464 164 b 347 239 375 164 347 192 l 347 572 l 490 572 b 522 604 508 572 522 586 l 522 635 b 490 667 522 653 508 667 l 347 667 l 347 807 b 310 843 347 829 332 843 l 278 843 b 240 807 260 843 244 829 b 71 667 222 722 156 667 l 44 667 b 13 635 25 667 13 654 l 13 604 b 44 572 13 586 26 572 l 97 572 l 97 243 b 324 -14 97 75 186 -14 z m 239 -458 b 421 -187 363 -383 421 -292 b 290 -39 421 -93 358 -39 b 167 -171 215 -39 167 -93 b 256 -285 167 -237 207 -285 b 271 -311 269 -285 272 -296 b 200 -417 267 -347 246 -371 b 239 -458 178 -439 211 -475 z "},"u":{"ha":828,"x_min":0,"x_max":0,"o":"m 744 153 l 744 646 b 683 674 744 671 724 679 l 476 646 b 444 614 457 643 444 629 l 444 608 b 500 492 444 574 500 557 l 500 217 b 408 78 500 132 460 78 b 319 235 347 78 318 121 l 324 646 b 258 674 324 671 299 679 l 51 646 b 19 614 32 643 19 629 l 19 608 b 75 492 19 574 75 557 l 75 260 b 335 -14 75 82 194 -14 b 531 72 429 -14 494 17 b 661 -8 538 13 575 -8 b 804 38 750 -8 804 0 b 744 153 804 94 744 40 z "},"ú":{"ha":828,"x_min":0,"x_max":0,"o":"m 294 758 l 581 835 b 613 910 619 844 629 876 l 568 1004 b 485 1021 551 1038 519 1049 l 247 835 b 238 776 231 821 225 797 b 294 758 249 758 272 753 z m 744 153 l 744 646 b 683 674 744 671 724 679 l 476 646 b 444 614 457 643 444 629 l 444 608 b 500 492 444 574 500 557 l 500 217 b 408 78 500 132 460 78 b 319 235 347 78 318 121 l 324 646 b 258 674 324 671 299 679 l 51 646 b 19 614 32 643 19 629 l 19 608 b 75 492 19 574 75 557 l 75 260 b 335 -14 75 82 194 -14 b 531 72 429 -14 494 17 b 661 -8 538 13 575 -8 b 804 38 750 -8 804 0 b 744 153 804 94 744 40 z "},"û":{"ha":828,"x_min":0,"x_max":0,"o":"m 219 756 l 406 857 l 614 756 b 671 826 671 726 714 783 l 501 985 b 435 1013 482 1004 463 1013 l 388 1013 b 321 983 360 1013 342 1007 l 168 826 b 219 756 122 776 186 738 z m 744 153 l 744 646 b 683 674 744 671 724 679 l 476 646 b 444 614 457 643 444 629 l 444 608 b 500 492 444 574 500 557 l 500 217 b 408 78 500 132 460 78 b 319 235 347 78 318 121 l 324 646 b 258 674 324 671 299 679 l 51 646 b 19 614 32 643 19 629 l 19 608 b 75 492 19 574 75 557 l 75 260 b 335 -14 75 82 194 -14 b 531 72 429 -14 494 17 b 661 -8 538 13 575 -8 b 804 38 750 -8 804 0 b 744 153 804 94 744 40 z "},"ü":{"ha":828,"x_min":0,"x_max":0,"o":"m 246 756 b 388 882 331 756 388 811 b 246 1007 388 953 331 1007 b 103 882 160 1007 103 953 b 246 756 103 811 160 756 z m 592 756 b 735 882 676 756 735 811 b 592 1007 735 953 676 1007 b 450 882 507 1007 450 953 b 592 756 450 811 507 756 z m 744 153 l 744 646 b 683 674 744 671 724 679 l 476 646 b 444 614 457 643 444 629 l 444 608 b 500 492 444 574 500 557 l 500 217 b 408 78 500 132 460 78 b 319 235 347 78 318 121 l 324 646 b 258 674 324 671 299 679 l 51 646 b 19 614 32 643 19 629 l 19 608 b 75 492 19 574 75 557 l 75 260 b 335 -14 75 82 194 -14 b 531 72 429 -14 494 17 b 661 -8 538 13 575 -8 b 804 38 750 -8 804 0 b 744 153 804 94 744 40 z "},"ù":{"ha":828,"x_min":0,"x_max":0,"o":"m 247 826 l 533 750 b 590 768 556 744 578 750 b 581 825 603 788 597 813 l 343 1013 b 260 996 307 1040 276 1029 l 214 901 b 247 826 199 868 207 836 z m 744 153 l 744 646 b 683 674 744 671 724 679 l 476 646 b 444 614 457 643 444 629 l 444 608 b 500 492 444 574 500 557 l 500 217 b 408 78 500 132 460 78 b 319 235 347 78 318 121 l 324 646 b 258 674 324 671 299 679 l 51 646 b 19 614 32 643 19 629 l 19 608 b 75 492 19 574 75 557 l 75 260 b 335 -14 75 82 194 -14 b 531 72 429 -14 494 17 b 661 -8 538 13 575 -8 b 804 38 750 -8 804 0 b 744 153 804 94 744 40 z "},"ű":{"ha":828,"x_min":0,"x_max":0,"o":"m 146 747 b 192 751 158 736 175 739 l 425 925 b 424 1007 458 947 454 981 l 375 1054 b 293 1039 346 1082 317 1076 l 149 793 b 146 747 138 774 135 757 z m 443 747 b 489 751 456 736 472 739 l 722 925 b 722 1007 756 947 751 979 l 672 1054 b 592 1039 643 1082 614 1076 l 446 793 b 443 747 436 774 432 758 z m 744 153 l 744 646 b 683 674 744 671 724 679 l 476 646 b 444 614 457 643 444 629 l 444 608 b 500 492 444 574 500 557 l 500 217 b 408 78 500 132 460 78 b 319 235 347 78 318 121 l 324 646 b 258 674 324 671 299 679 l 51 646 b 19 614 32 643 19 629 l 19 608 b 75 492 19 574 75 557 l 75 260 b 335 -14 75 82 194 -14 b 531 72 429 -14 494 17 b 661 -8 538 13 575 -8 b 804 38 750 -8 804 0 b 744 153 804 94 744 40 z "},"ū":{"ha":828,"x_min":0,"x_max":0,"o":"m 222 801 l 615 801 b 649 835 638 801 649 814 l 649 918 b 615 951 649 940 638 951 l 222 951 b 189 918 200 951 189 940 l 189 835 b 222 801 189 814 200 801 z m 744 153 l 744 646 b 683 674 744 671 724 679 l 476 646 b 444 614 457 643 444 629 l 444 608 b 500 492 444 574 500 557 l 500 217 b 408 78 500 132 460 78 b 319 235 347 78 318 121 l 324 646 b 258 674 324 671 299 679 l 51 646 b 19 614 32 643 19 629 l 19 608 b 75 492 19 574 75 557 l 75 260 b 335 -14 75 82 194 -14 b 531 72 429 -14 494 17 b 661 -8 538 13 575 -8 b 804 38 750 -8 804 0 b 744 153 804 94 744 40 z "},"ų":{"ha":828,"x_min":0,"x_max":0,"o":"m 724 -6 b 804 38 775 -1 804 10 b 744 153 804 94 744 40 l 744 646 b 683 674 744 671 724 679 l 476 646 b 444 614 457 643 444 629 l 444 608 b 500 492 444 574 500 557 l 500 217 b 408 78 500 132 460 78 b 319 235 347 78 318 121 l 324 646 b 258 674 324 671 299 679 l 51 646 b 19 614 32 643 19 629 l 19 608 b 75 492 19 574 75 557 l 75 260 b 335 -14 75 82 194 -14 b 531 72 429 -14 494 17 b 617 -6 536 24 561 1 b 496 -179 529 -61 496 -119 b 664 -307 496 -278 589 -307 b 740 -296 694 -307 726 -301 b 732 -206 790 -276 776 -190 b 707 -211 722 -210 717 -211 b 667 -149 686 -211 665 -194 b 724 -6 667 -112 685 -61 z "},"ů":{"ha":828,"x_min":0,"x_max":0,"o":"m 418 739 b 626 900 544 739 626 804 b 419 1050 626 988 538 1050 b 211 890 296 1050 211 989 b 418 739 211 806 299 739 z m 419 981 b 483 896 454 981 483 951 b 419 806 483 829 454 806 b 354 896 383 806 354 840 b 419 981 354 963 383 981 z m 744 153 l 744 646 b 683 674 744 671 724 679 l 476 646 b 444 614 457 643 444 629 l 444 608 b 500 492 444 574 500 557 l 500 217 b 408 78 500 132 460 78 b 319 235 347 78 318 121 l 324 646 b 258 674 324 671 299 679 l 51 646 b 19 614 32 643 19 629 l 19 608 b 75 492 19 574 75 557 l 75 260 b 335 -14 75 82 194 -14 b 531 72 429 -14 494 17 b 661 -8 538 13 575 -8 b 804 38 750 -8 804 0 b 744 153 804 94 744 40 z "},"ũ":{"ha":828,"x_min":0,"x_max":0,"o":"m 182 811 l 197 811 b 233 836 219 811 221 819 b 288 863 249 854 265 863 b 513 793 357 863 424 793 b 674 956 596 793 653 867 b 650 988 678 976 669 988 l 640 988 b 606 968 624 988 615 981 b 543 938 593 949 578 938 b 324 1003 483 938 422 1003 b 160 843 238 1003 176 928 b 182 811 156 822 167 811 z m 744 153 l 744 646 b 683 674 744 671 724 679 l 476 646 b 444 614 457 643 444 629 l 444 608 b 500 492 444 574 500 557 l 500 217 b 408 78 500 132 460 78 b 319 235 347 78 318 121 l 324 646 b 258 674 324 671 299 679 l 51 646 b 19 614 32 643 19 629 l 19 608 b 75 492 19 574 75 557 l 75 260 b 335 -14 75 82 194 -14 b 531 72 429 -14 494 17 b 661 -8 538 13 575 -8 b 804 38 750 -8 804 0 b 744 153 804 94 744 40 z "},"v":{"ha":761,"x_min":0,"x_max":0,"o":"m 740 667 l 556 667 b 524 639 536 667 524 656 l 524 633 b 574 476 524 596 611 586 l 472 197 l 353 511 b 376 633 325 583 376 596 l 376 639 b 346 667 376 656 364 667 l 26 667 b -6 640 7 667 -6 657 l -6 635 b 68 515 -6 596 42 572 l 279 36 b 329 0 292 11 303 0 l 451 0 b 500 36 476 0 492 11 l 679 515 b 772 635 703 576 772 596 l 772 640 b 740 667 772 657 760 667 z "},"w":{"ha":1031,"x_min":0,"x_max":0,"o":"m 1008 667 l 824 667 b 792 639 806 667 792 656 l 792 633 b 851 488 792 596 883 583 l 765 239 l 653 635 b 617 663 647 653 636 663 l 532 661 b 497 631 513 661 503 649 l 382 236 l 292 511 b 335 633 267 586 335 596 l 335 639 b 304 667 335 656 322 667 l 25 667 b -7 640 6 667 -7 657 l -7 635 b 65 514 -7 596 40 576 l 263 36 b 313 0 274 11 286 0 l 351 0 b 400 36 376 0 393 11 l 515 407 l 629 36 b 679 0 636 11 653 0 l 735 0 b 783 36 761 0 775 11 l 956 514 b 1039 635 978 579 1039 596 l 1039 640 b 1008 667 1039 657 1026 667 z "},"ẃ":{"ha":1031,"x_min":0,"x_max":0,"o":"m 433 753 l 719 829 b 753 904 760 838 769 871 l 707 997 b 625 1015 690 1032 660 1043 l 386 828 b 376 771 371 814 365 790 b 433 753 389 753 411 747 z m 1008 667 l 824 667 b 792 639 806 667 792 656 l 792 633 b 851 488 792 596 883 583 l 765 239 l 653 635 b 617 663 647 653 636 663 l 532 661 b 497 631 513 661 503 649 l 382 236 l 292 511 b 335 633 267 586 335 596 l 335 639 b 304 667 335 656 322 667 l 25 667 b -7 640 6 667 -7 657 l -7 635 b 65 514 -7 596 40 576 l 263 36 b 313 0 274 11 286 0 l 351 0 b 400 36 376 0 393 11 l 515 407 l 629 36 b 679 0 636 11 653 0 l 735 0 b 783 36 761 0 775 11 l 956 514 b 1039 635 978 579 1039 596 l 1039 640 b 1008 667 1039 657 1026 667 z "},"ŵ":{"ha":1031,"x_min":0,"x_max":0,"o":"m 358 749 l 544 850 l 753 749 b 810 819 811 721 853 778 l 640 979 b 575 1006 621 997 601 1006 l 526 1006 b 460 978 500 1006 481 1000 l 307 819 b 358 749 261 771 325 731 z m 1008 667 l 824 667 b 792 639 806 667 792 656 l 792 633 b 851 488 792 596 883 583 l 765 239 l 653 635 b 617 663 647 653 636 663 l 532 661 b 497 631 513 661 503 649 l 382 236 l 292 511 b 335 633 267 586 335 596 l 335 639 b 304 667 335 656 322 667 l 25 667 b -7 640 6 667 -7 657 l -7 635 b 65 514 -7 596 40 576 l 263 36 b 313 0 274 11 286 0 l 351 0 b 400 36 376 0 393 11 l 515 407 l 629 36 b 679 0 636 11 653 0 l 735 0 b 783 36 761 0 775 11 l 956 514 b 1039 635 978 579 1039 596 l 1039 640 b 1008 667 1039 657 1026 667 z "},"ẅ":{"ha":1031,"x_min":0,"x_max":0,"o":"m 385 749 b 526 876 471 749 526 804 b 385 1001 526 947 471 1001 b 242 876 300 1001 242 947 b 385 749 242 804 300 749 z m 732 749 b 874 876 817 749 874 804 b 732 1001 874 947 817 1001 b 589 876 646 1001 589 947 b 732 749 589 804 646 749 z m 1008 667 l 824 667 b 792 639 806 667 792 656 l 792 633 b 851 488 792 596 883 583 l 765 239 l 653 635 b 617 663 647 653 636 663 l 532 661 b 497 631 513 661 503 649 l 382 236 l 292 511 b 335 633 267 586 335 596 l 335 639 b 304 667 335 656 322 667 l 25 667 b -7 640 6 667 -7 657 l -7 635 b 65 514 -7 596 40 576 l 263 36 b 313 0 274 11 286 0 l 351 0 b 400 36 376 0 393 11 l 515 407 l 629 36 b 679 0 636 11 653 0 l 735 0 b 783 36 761 0 775 11 l 956 514 b 1039 635 978 579 1039 596 l 1039 640 b 1008 667 1039 657 1026 667 z "},"ẁ":{"ha":1031,"x_min":0,"x_max":0,"o":"m 386 821 l 672 743 b 729 763 694 739 717 743 b 719 819 742 782 736 806 l 482 1007 b 399 989 447 1033 415 1024 l 354 896 b 386 821 338 861 346 829 z m 1008 667 l 824 667 b 792 639 806 667 792 656 l 792 633 b 851 488 792 596 883 583 l 765 239 l 653 635 b 617 663 647 653 636 663 l 532 661 b 497 631 513 661 503 649 l 382 236 l 292 511 b 335 633 267 586 335 596 l 335 639 b 304 667 335 656 322 667 l 25 667 b -7 640 6 667 -7 657 l -7 635 b 65 514 -7 596 40 576 l 263 36 b 313 0 274 11 286 0 l 351 0 b 400 36 376 0 393 11 l 515 407 l 629 36 b 679 0 636 11 653 0 l 735 0 b 783 36 761 0 775 11 l 956 514 b 1039 635 978 579 1039 596 l 1039 640 b 1008 667 1039 657 1026 667 z "},"x":{"ha":772,"x_min":0,"x_max":0,"o":"m 672 153 l 518 340 l 664 513 b 760 635 711 569 760 596 l 760 640 b 729 667 760 657 747 667 l 554 667 b 522 639 535 667 522 656 l 522 633 b 549 510 522 596 600 567 l 460 411 l 379 510 b 393 633 335 563 393 594 l 393 639 b 363 667 393 656 381 667 l 40 667 b 8 640 21 667 8 657 l 8 635 b 115 513 8 594 51 589 l 275 321 l 114 154 b -8 32 54 92 -8 71 l -8 26 b 24 0 -8 10 4 0 l 231 0 b 263 28 250 0 263 11 l 263 33 b 244 147 263 67 186 78 l 333 253 l 413 157 b 392 33 482 75 392 71 l 392 28 b 422 0 392 11 404 0 l 743 0 b 775 26 761 0 775 10 l 775 32 b 672 153 775 71 715 103 z "},"y":{"ha":778,"x_min":0,"x_max":0,"o":"m 754 667 l 568 667 b 536 639 550 667 536 656 l 536 633 b 601 486 536 594 640 581 l 474 176 l 332 510 b 351 633 299 588 351 594 l 351 639 b 321 667 351 656 339 667 l 22 667 b -10 640 3 667 -10 657 l -10 635 b 68 513 -10 594 35 578 l 350 -44 b 219 -225 314 -131 263 -225 b 64 -40 154 -225 197 -40 b -35 -137 1 -40 -35 -79 b 186 -299 -35 -218 50 -299 b 449 -53 332 -299 410 -139 l 711 513 b 786 635 739 575 786 594 l 786 640 b 754 667 786 657 774 667 z "},"ý":{"ha":778,"x_min":0,"x_max":0,"o":"m 304 758 l 590 835 b 622 910 631 844 639 876 l 578 1004 b 494 1021 561 1038 529 1049 l 257 835 b 247 776 240 821 235 797 b 304 758 260 758 282 753 z m 754 667 l 568 667 b 536 639 550 667 536 656 l 536 633 b 601 486 536 594 640 581 l 474 176 l 332 510 b 351 633 299 588 351 594 l 351 639 b 321 667 351 656 339 667 l 22 667 b -10 640 3 667 -10 657 l -10 635 b 68 513 -10 594 35 578 l 350 -44 b 219 -225 314 -131 263 -225 b 64 -40 154 -225 197 -40 b -35 -137 1 -40 -35 -79 b 186 -299 -35 -218 50 -299 b 449 -53 332 -299 410 -139 l 711 513 b 786 635 739 575 786 594 l 786 640 b 754 667 786 657 774 667 z "},"ŷ":{"ha":778,"x_min":0,"x_max":0,"o":"m 229 756 l 415 857 l 624 756 b 681 826 681 726 724 783 l 511 985 b 444 1013 492 1004 472 1013 l 397 1013 b 331 983 369 1013 351 1007 l 178 826 b 229 756 132 776 196 738 z m 754 667 l 568 667 b 536 639 550 667 536 656 l 536 633 b 601 486 536 594 640 581 l 474 176 l 332 510 b 351 633 299 588 351 594 l 351 639 b 321 667 351 656 339 667 l 22 667 b -10 640 3 667 -10 657 l -10 635 b 68 513 -10 594 35 578 l 350 -44 b 219 -225 314 -131 263 -225 b 64 -40 154 -225 197 -40 b -35 -137 1 -40 -35 -79 b 186 -299 -35 -218 50 -299 b 449 -53 332 -299 410 -139 l 711 513 b 786 635 739 575 786 594 l 786 640 b 754 667 786 657 774 667 z "},"ÿ":{"ha":778,"x_min":0,"x_max":0,"o":"m 256 756 b 397 882 340 756 397 811 b 256 1007 397 953 340 1007 b 113 882 171 1007 113 953 b 256 756 113 811 171 756 z m 601 756 b 744 882 686 756 744 811 b 601 1007 744 953 686 1007 b 460 882 517 1007 460 953 b 601 756 460 811 517 756 z m 754 667 l 568 667 b 536 639 550 667 536 656 l 536 633 b 601 486 536 594 640 581 l 474 176 l 332 510 b 351 633 299 588 351 594 l 351 639 b 321 667 351 656 339 667 l 22 667 b -10 640 3 667 -10 657 l -10 635 b 68 513 -10 594 35 578 l 350 -44 b 219 -225 314 -131 263 -225 b 64 -40 154 -225 197 -40 b -35 -137 1 -40 -35 -79 b 186 -299 -35 -218 50 -299 b 449 -53 332 -299 410 -139 l 711 513 b 786 635 739 575 786 594 l 786 640 b 754 667 786 657 774 667 z "},"ỳ":{"ha":778,"x_min":0,"x_max":0,"o":"m 257 826 l 543 750 b 600 768 565 744 588 750 b 590 825 611 788 607 813 l 353 1013 b 269 996 317 1040 286 1029 l 224 901 b 257 826 208 868 217 836 z m 754 667 l 568 667 b 536 639 550 667 536 656 l 536 633 b 601 486 536 594 640 581 l 474 176 l 332 510 b 351 633 299 588 351 594 l 351 639 b 321 667 351 656 339 667 l 22 667 b -10 640 3 667 -10 657 l -10 635 b 68 513 -10 594 35 578 l 350 -44 b 219 -225 314 -131 263 -225 b 64 -40 154 -225 197 -40 b -35 -137 1 -40 -35 -79 b 186 -299 -35 -218 50 -299 b 449 -53 332 -299 410 -139 l 711 513 b 786 635 739 575 786 594 l 786 640 b 754 667 786 657 774 667 z "},"ỹ":{"ha":778,"x_min":0,"x_max":0,"o":"m 192 811 l 207 811 b 244 836 229 811 231 819 b 297 863 260 854 275 863 b 522 793 368 863 433 793 b 683 956 606 793 664 867 b 660 988 688 976 679 988 l 650 988 b 615 968 633 988 625 981 b 554 938 603 949 588 938 b 333 1003 494 938 432 1003 b 169 843 247 1003 186 928 b 192 811 165 822 176 811 z m 754 667 l 568 667 b 536 639 550 667 536 656 l 536 633 b 601 486 536 594 640 581 l 474 176 l 332 510 b 351 633 299 588 351 594 l 351 639 b 321 667 351 656 339 667 l 22 667 b -10 640 3 667 -10 657 l -10 635 b 68 513 -10 594 35 578 l 350 -44 b 219 -225 314 -131 263 -225 b 64 -40 154 -225 197 -40 b -35 -137 1 -40 -35 -79 b 186 -299 -35 -218 50 -299 b 449 -53 332 -299 410 -139 l 711 513 b 786 635 739 575 786 594 l 786 640 b 754 667 786 657 774 667 z "},"z":{"ha":713,"x_min":0,"x_max":0,"o":"m 671 222 l 661 222 b 438 61 590 222 544 61 l 304 61 l 621 544 b 664 626 640 575 664 608 l 664 640 b 632 667 664 654 651 667 l 115 667 b 67 624 83 667 76 653 l 29 511 b 61 458 19 482 31 458 l 69 458 b 269 606 146 458 176 606 l 388 606 l 61 108 b 31 51 50 93 31 69 l 31 33 b 67 0 31 14 49 0 l 624 0 b 658 33 643 0 653 15 l 700 179 b 671 222 708 208 696 222 z "},"ź":{"ha":713,"x_min":0,"x_max":0,"o":"m 267 758 l 553 835 b 586 910 593 844 603 876 l 540 1004 b 458 1021 524 1038 493 1049 l 219 835 b 210 776 204 821 199 797 b 267 758 222 758 244 753 z m 671 222 l 661 222 b 438 61 590 222 544 61 l 304 61 l 621 544 b 664 626 640 575 664 608 l 664 640 b 632 667 664 654 651 667 l 115 667 b 67 624 83 667 76 653 l 29 511 b 61 458 19 482 31 458 l 69 458 b 269 606 146 458 176 606 l 388 606 l 61 108 b 31 51 50 93 31 69 l 31 33 b 67 0 31 14 49 0 l 624 0 b 658 33 643 0 653 15 l 700 179 b 671 222 708 208 696 222 z "},"ž":{"ha":713,"x_min":0,"x_max":0,"o":"m 293 783 b 358 756 314 763 332 756 l 414 756 b 479 782 440 756 460 763 l 638 939 b 588 999 664 964 621 1015 l 393 896 l 194 999 b 144 939 165 1013 115 969 z m 671 222 l 661 222 b 438 61 590 222 544 61 l 304 61 l 621 544 b 664 626 640 575 664 608 l 664 640 b 632 667 664 654 651 667 l 115 667 b 67 624 83 667 76 653 l 29 511 b 61 458 19 482 31 458 l 69 458 b 269 606 146 458 176 606 l 388 606 l 61 108 b 31 51 50 93 31 69 l 31 33 b 67 0 31 14 49 0 l 624 0 b 658 33 643 0 653 15 l 700 179 b 671 222 708 208 696 222 z "},"ż":{"ha":713,"x_min":0,"x_max":0,"o":"m 390 749 b 547 888 485 749 547 810 b 390 1026 547 967 485 1026 b 231 888 294 1026 231 967 b 390 749 231 810 294 749 z m 671 222 l 661 222 b 438 61 590 222 544 61 l 304 61 l 621 544 b 664 626 640 575 664 608 l 664 640 b 632 667 664 654 651 667 l 115 667 b 67 624 83 667 76 653 l 29 511 b 61 458 19 482 31 458 l 69 458 b 269 606 146 458 176 606 l 388 606 l 61 108 b 31 51 50 93 31 69 l 31 33 b 67 0 31 14 49 0 l 624 0 b 658 33 643 0 653 15 l 700 179 b 671 222 708 208 696 222 z "},"ﬁ":{"ha":1003,"x_min":0,"x_max":0,"o":"m 517 667 l 364 667 l 364 683 b 479 946 349 817 383 946 b 740 724 601 946 574 724 b 835 811 794 724 835 764 b 507 1015 835 921 719 1015 b 126 722 271 1015 126 892 l 126 667 l 36 667 b 4 635 18 667 4 653 l 4 604 b 36 572 4 586 18 572 l 126 572 l 126 153 b 71 32 126 88 71 71 l 71 26 b 103 0 71 10 83 0 l 407 0 b 439 26 426 0 439 10 l 439 32 b 364 153 439 71 364 88 l 364 572 l 517 572 b 549 604 535 572 549 586 l 549 635 b 517 667 549 653 535 667 z m 917 153 l 917 644 b 854 674 917 671 893 693 l 643 571 b 611 539 624 561 611 554 l 611 533 b 667 417 611 500 667 481 l 667 153 b 611 32 667 89 611 72 l 611 26 b 644 0 611 10 625 0 l 946 0 b 979 26 965 0 979 10 l 979 32 b 917 153 979 72 917 89 z "},"ﬂ":{"ha":1004,"x_min":0,"x_max":0,"o":"m 917 151 l 917 1015 b 854 1044 917 1040 893 1064 l 714 976 b 507 1015 661 1001 592 1015 b 126 722 271 1015 126 892 l 126 667 l 36 667 b 4 635 18 667 4 653 l 4 604 b 36 572 4 586 18 572 l 126 572 l 126 153 b 71 32 126 88 71 71 l 71 26 b 103 0 71 10 83 0 l 407 0 b 439 26 426 0 439 10 l 439 32 b 364 153 439 71 364 88 l 364 572 l 517 572 b 549 604 535 572 549 586 l 549 635 b 517 667 549 653 535 667 l 364 667 l 364 683 b 479 946 349 817 383 947 b 667 743 582 946 579 797 l 667 151 b 611 32 667 88 611 72 l 611 26 b 644 0 611 10 625 0 l 946 0 b 979 26 965 0 979 10 l 979 32 b 917 151 979 72 917 88 z "},"ª":{"ha":610,"x_min":0,"x_max":0,"o":"m 538 636 l 517 800 b 263 1000 500 924 394 1000 b 53 890 163 1000 53 972 b 124 825 53 850 81 825 b 263 939 228 825 207 939 b 333 782 314 939 321 903 b 233 807 308 797 275 807 b 42 654 125 807 42 754 b 240 504 42 554 124 504 b 368 556 306 504 347 528 b 464 508 376 519 403 508 b 589 553 518 508 588 515 b 538 636 590 604 546 563 z m 300 568 b 236 685 260 568 236 615 b 282 742 236 721 257 742 b 344 671 314 742 339 713 l 350 618 l 349 618 b 300 568 350 589 329 568 z "},"º":{"ha":613,"x_min":0,"x_max":0,"o":"m 307 510 b 583 754 460 510 583 607 b 306 1000 583 899 458 1000 b 26 756 150 1000 26 900 b 307 510 26 610 153 510 z m 326 571 b 218 829 253 571 218 746 b 276 939 218 892 232 939 b 385 682 351 939 385 756 b 326 571 385 619 369 571 z "},"⁄":{"ha":579,"x_min":0,"x_max":0,"o":"m -10 0 l 68 0 b 104 21 85 0 96 6 l 611 950 b 590 986 624 969 613 986 l 514 986 b 479 965 499 986 486 979 l -31 36 b -10 0 -43 17 -33 0 z "},"½":{"ha":1107,"x_min":0,"x_max":0,"o":"m 317 461 l 317 465 b 272 539 317 489 272 499 l 272 885 b 303 981 272 944 303 951 l 303 985 b 272 1001 303 996 293 1008 l 67 932 b 40 904 50 926 40 917 l 40 900 b 107 833 40 868 107 888 l 107 539 b 64 465 107 499 64 489 l 64 461 b 86 444 64 451 74 444 l 296 444 b 317 461 308 444 317 451 z m 876 828 l 821 878 b 779 871 807 890 792 885 l 181 206 b 185 167 168 193 174 176 l 232 122 b 281 121 250 106 268 104 l 876 786 b 876 828 892 801 893 814 z m 1053 167 l 1035 167 b 943 107 1001 167 1006 107 l 738 107 b 1046 383 826 193 1046 228 b 839 524 1046 469 965 524 b 618 383 721 524 618 456 b 690 313 618 339 650 313 b 829 467 782 313 763 467 b 881 400 861 467 881 444 b 604 29 881 269 604 219 l 604 18 b 625 0 604 10 615 0 l 1022 0 b 1042 19 1033 0 1039 10 l 1069 149 b 1053 167 1072 160 1064 167 z "},"¼":{"ha":1046,"x_min":0,"x_max":0,"o":"m 318 461 l 318 465 b 272 539 318 489 272 499 l 272 885 b 303 981 272 944 303 951 l 303 985 b 272 1001 303 996 293 1008 l 65 932 b 39 904 49 926 39 917 l 39 900 b 107 832 39 868 107 888 l 107 539 b 63 465 107 499 63 489 l 63 461 b 85 444 63 451 72 444 l 296 444 b 318 461 310 444 318 451 z m 876 828 l 821 878 b 778 871 807 890 792 885 l 181 206 b 185 167 168 193 174 176 l 232 122 b 281 121 249 106 267 104 l 876 786 b 876 828 890 801 893 814 z m 990 186 l 935 186 l 935 518 b 915 538 935 531 928 538 l 821 538 b 761 504 794 538 778 528 l 550 207 b 538 161 539 193 538 179 l 538 147 b 572 118 538 129 550 118 l 786 118 l 786 85 b 753 17 786 47 753 39 l 753 14 b 772 -3 753 3 760 -3 l 953 -3 b 971 14 964 -3 971 3 l 971 17 b 935 85 971 39 935 47 l 935 118 l 990 118 b 1007 135 1001 118 1007 124 l 1007 171 b 990 186 1007 181 1001 186 z m 635 186 l 786 424 l 786 186 z "},"¾":{"ha":1093,"x_min":0,"x_max":0,"o":"m 469 633 b 300 776 469 718 401 763 l 454 924 b 472 960 469 938 472 956 l 472 969 b 453 986 472 978 465 986 l 96 986 b 71 964 81 986 71 979 l 71 894 b 97 869 71 878 81 869 l 278 869 l 199 763 b 217 707 181 738 190 707 l 229 707 b 315 601 288 707 315 672 b 251 526 315 556 289 526 b 97 663 181 526 181 663 b 36 599 63 663 36 644 b 256 475 36 544 111 475 b 469 633 389 475 469 542 z m 932 828 l 876 878 b 833 871 861 890 846 885 l 235 206 b 240 167 224 193 229 176 l 288 122 b 335 121 304 106 322 104 l 932 786 b 932 828 946 801 949 814 z m 1033 186 l 976 186 l 976 518 b 957 538 976 531 969 538 l 863 538 b 803 504 836 538 819 528 l 592 207 b 579 161 582 193 579 179 l 579 147 b 615 118 579 129 592 118 l 829 118 l 829 85 b 796 17 829 47 796 39 l 796 14 b 815 -3 796 3 801 -3 l 994 -3 b 1013 14 1007 -3 1013 3 l 1013 17 b 976 85 1013 39 976 47 l 976 118 l 1033 118 b 1049 135 1043 118 1049 124 l 1049 171 b 1033 186 1049 181 1043 186 z m 676 186 l 829 426 l 829 186 z "},".":{"ha":376,"x_min":0,"x_max":0,"o":"m 189 -14 b 335 118 268 -14 335 28 b 189 249 335 208 268 249 b 42 118 108 249 42 208 b 189 -14 42 28 108 -14 z "},",":{"ha":375,"x_min":0,"x_max":0,"o":"m 125 -211 b 332 96 265 -125 332 -22 b 183 264 332 203 261 264 b 43 115 97 264 43 203 b 143 -14 43 39 89 -14 b 161 -44 160 -14 163 -26 b 82 -164 157 -85 133 -111 b 125 -211 56 -189 93 -229 z "},":":{"ha":404,"x_min":0,"x_max":0,"o":"m 203 410 b 349 540 282 410 349 451 b 203 672 349 632 282 672 b 56 540 122 672 56 632 b 203 410 56 451 122 410 z m 203 -14 b 349 118 282 -14 349 28 b 203 249 349 208 282 249 b 56 118 122 249 56 208 b 203 -14 56 28 122 -14 z "},";":{"ha":408,"x_min":0,"x_max":0,"o":"m 206 410 b 353 540 285 410 353 451 b 206 672 353 632 285 672 b 60 540 126 672 60 632 b 206 410 60 451 126 410 z m 140 -211 b 347 96 281 -125 347 -22 b 199 264 347 203 276 264 b 58 115 113 264 58 203 b 158 -14 58 39 104 -14 b 176 -44 175 -14 178 -26 b 96 -164 172 -85 147 -111 b 140 -211 71 -189 108 -229 z "},"…":{"ha":1104,"x_min":0,"x_max":0,"o":"m 189 -14 b 335 118 268 -14 335 28 b 189 249 335 208 268 249 b 42 118 108 249 42 208 b 189 -14 42 28 108 -14 z m 558 -14 b 706 118 638 -14 706 28 b 558 249 706 208 638 249 b 411 118 479 249 411 208 b 558 -14 411 28 479 -14 z m 917 -14 b 1063 118 996 -14 1063 28 b 917 249 1063 208 996 249 b 769 118 836 249 769 208 b 917 -14 769 28 836 -14 z "},"!":{"ha":389,"x_min":0,"x_max":0,"o":"m 146 339 b 243 339 154 306 233 304 b 319 914 301 554 319 799 b 69 913 321 1029 69 1026 b 146 339 71 806 94 554 z m 194 -18 b 342 113 274 -18 342 22 b 194 244 342 203 274 244 b 49 113 115 244 49 203 b 194 -18 49 22 115 -18 z "},"¡":{"ha":372,"x_min":0,"x_max":0,"o":"m 186 429 b 333 561 265 429 333 471 b 186 693 333 651 265 693 b 39 561 107 693 39 651 b 186 429 39 471 107 429 z m 311 -231 b 235 338 311 -115 293 122 b 138 338 225 371 146 369 b 61 -229 85 122 61 -122 b 311 -231 61 -343 311 -346 z "},"?":{"ha":797,"x_min":0,"x_max":0,"o":"m 281 331 b 454 331 300 272 454 279 b 761 735 454 482 761 501 b 394 1000 761 922 596 1000 b 33 754 201 1000 33 882 b 154 638 33 681 86 638 b 404 904 321 638 276 904 b 500 765 451 904 500 858 b 281 331 500 567 225 519 z m 369 -18 b 510 107 446 -18 510 21 b 369 232 510 193 446 232 b 229 107 293 232 229 193 b 369 -18 229 21 293 -18 z "},"¿":{"ha":788,"x_min":0,"x_max":0,"o":"m 422 476 b 564 601 499 476 564 515 b 422 726 564 686 499 726 b 282 601 347 726 282 686 b 422 476 282 515 347 476 z m 399 -290 b 760 -44 590 -290 760 -171 b 640 71 760 29 707 71 b 389 -194 471 71 517 -194 b 293 -56 342 -194 293 -150 b 513 379 293 143 567 190 b 339 379 493 438 339 431 b 32 -25 339 228 32 208 b 399 -290 32 -212 197 -290 z "},"·":{"ha":381,"x_min":0,"x_max":0,"o":"m 190 404 b 338 536 269 404 338 446 b 190 668 338 626 269 668 b 43 536 111 668 43 626 b 190 404 43 446 111 404 z "},"•":{"ha":599,"x_min":0,"x_max":0,"o":"m 300 311 b 528 511 436 311 528 399 b 300 713 528 625 436 713 b 72 511 164 713 72 625 b 300 311 72 399 164 311 z "},"*":{"ha":569,"x_min":0,"x_max":0,"o":"m 236 597 l 289 728 l 336 600 b 450 663 375 494 526 597 l 338 761 l 464 767 b 436 889 571 769 532 946 l 318 821 l 357 949 b 292 1040 378 1011 344 1043 b 219 949 236 1039 203 1006 l 256 821 l 136 889 b 110 767 46 942 -12 769 l 240 761 l 126 667 b 236 597 40 597 193 490 z "},"#":{"ha":954,"x_min":0,"x_max":0,"o":"m 882 667 l 776 667 l 839 904 b 818 942 844 925 840 942 l 718 942 b 690 919 701 942 694 935 l 622 667 l 432 667 l 494 904 b 474 942 500 925 496 942 l 374 942 b 346 919 357 942 350 935 l 278 667 l 113 667 b 81 643 93 667 81 657 l 81 571 b 113 547 81 557 93 547 l 246 547 l 210 408 l 72 408 b 40 385 54 408 40 397 l 40 311 b 72 289 40 297 54 289 l 178 289 l 110 36 b 132 0 106 17 107 0 l 226 0 b 263 21 243 0 258 6 l 333 289 l 522 289 l 454 36 b 476 0 450 17 451 0 l 571 0 b 607 21 588 0 603 6 l 678 289 l 842 289 b 874 311 864 289 874 297 l 874 385 b 842 408 874 397 864 408 l 708 408 l 746 547 l 882 547 b 914 571 904 547 914 557 l 914 643 b 882 667 914 657 904 667 z m 554 408 l 364 408 l 401 547 l 590 547 z "},"/":{"ha":540,"x_min":0,"x_max":0,"o":"m 51 -129 l 133 -129 b 168 -107 150 -129 164 -122 l 508 1065 b 488 1101 515 1085 510 1101 l 408 1101 b 372 1081 392 1101 376 1094 l 31 -92 b 51 -129 24 -112 28 -129 z "},"\\":{"ha":536,"x_min":0,"x_max":0,"o":"m 406 -129 l 483 -129 b 506 -92 508 -129 513 -112 l 165 1081 b 131 1101 163 1094 146 1101 l 53 1101 b 32 1065 31 1101 25 1085 l 369 -107 b 406 -129 375 -122 389 -129 z "},"(":{"ha":390,"x_min":0,"x_max":0,"o":"m 279 -151 b 347 -107 318 -182 372 -157 b 247 468 288 3 247 229 b 347 1043 247 707 288 933 b 279 1088 372 1093 318 1118 b 40 468 158 989 40 778 b 279 -151 40 158 158 -53 z "},")":{"ha":390,"x_min":0,"x_max":0,"o":"m 111 -151 b 350 468 229 -51 350 158 b 111 1088 350 778 236 988 b 43 1043 72 1117 18 1093 b 143 468 103 933 143 707 b 43 -107 143 229 103 3 b 111 -151 18 -157 72 -183 z "},"{":{"ha":493,"x_min":0,"x_max":0,"o":"m 442 -61 b 338 114 367 -61 335 -28 l 339 258 b 210 465 342 408 258 454 b 343 660 258 478 342 522 l 344 832 b 442 996 346 963 379 996 b 442 1090 500 996 488 1090 b 140 822 271 1090 142 1024 l 139 642 b 57 515 139 544 104 515 b 57 417 -8 515 -4 417 b 139 276 104 417 139 388 l 140 125 b 442 -156 143 -89 271 -156 b 442 -61 485 -156 483 -61 z "},"}":{"ha":494,"x_min":0,"x_max":0,"o":"m 438 515 b 354 642 389 515 354 544 l 354 822 b 51 1090 354 1024 224 1090 b 51 996 7 1090 -6 996 b 150 832 115 996 149 963 l 151 660 b 288 465 153 518 239 475 b 154 258 239 457 151 411 l 157 114 b 53 -61 160 -28 128 -61 b 53 -156 11 -61 10 -156 b 354 125 224 -156 351 -89 l 354 276 b 438 417 356 388 389 417 b 438 515 497 417 501 515 z "},"[":{"ha":450,"x_min":0,"x_max":0,"o":"m 126 -147 l 392 -147 b 419 -119 410 -147 419 -137 l 419 -68 b 392 -40 419 -50 410 -40 l 296 -40 l 296 976 l 392 976 b 419 1004 410 976 419 986 l 419 1056 b 392 1083 419 1074 410 1083 l 126 1083 b 92 1050 106 1083 92 1071 l 92 -114 b 126 -147 92 -135 104 -147 z "},"]":{"ha":450,"x_min":0,"x_max":0,"o":"m 57 -147 l 324 -147 b 357 -114 346 -147 357 -135 l 357 1050 b 324 1083 357 1071 344 1083 l 57 1083 b 29 1056 40 1083 29 1074 l 29 1004 b 57 976 29 986 40 976 l 154 976 l 154 -40 l 57 -40 b 29 -68 40 -40 29 -50 l 29 -119 b 57 -147 29 -137 40 -147 z "},"-":{"ha":640,"x_min":0,"x_max":0,"o":"m 96 404 l 544 404 b 576 439 564 404 576 417 l 576 492 b 544 526 576 514 564 526 l 96 526 b 65 492 76 526 65 514 l 65 439 b 96 404 65 417 76 404 z "},"–":{"ha":769,"x_min":0,"x_max":0,"o":"m 96 404 l 674 404 b 704 439 693 404 704 417 l 704 492 b 674 526 704 514 693 526 l 96 526 b 65 492 76 526 65 514 l 65 439 b 96 404 65 417 76 404 z "},"—":{"ha":907,"x_min":0,"x_max":0,"o":"m 96 404 l 811 404 b 843 439 831 404 843 417 l 843 492 b 811 526 843 514 831 526 l 96 526 b 65 492 76 526 65 514 l 65 439 b 96 404 65 417 76 404 z "},"_":{"ha":629,"x_min":0,"x_max":0,"o":"m 68 -112 l 561 -112 b 592 -81 581 -112 592 -100 l 592 -32 b 561 0 592 -11 581 0 l 68 0 b 36 -32 47 0 36 -11 l 36 -81 b 68 -112 36 -100 47 -112 z "},"‚":{"ha":375,"x_min":0,"x_max":0,"o":"m 125 -211 b 332 96 265 -125 332 -22 b 183 264 332 203 261 264 b 43 115 97 264 43 203 b 143 -14 43 39 89 -14 b 161 -44 160 -14 163 -26 b 82 -164 157 -85 133 -111 b 125 -211 56 -189 93 -229 z "},"„":{"ha":719,"x_min":0,"x_max":0,"o":"m 125 -211 b 332 96 265 -125 332 -22 b 183 264 332 203 261 264 b 43 115 97 264 43 203 b 143 -14 43 39 89 -14 b 161 -44 160 -14 163 -26 b 82 -164 157 -85 133 -111 b 125 -211 56 -189 93 -229 z m 469 -211 b 676 96 610 -125 676 -22 b 528 264 676 203 606 264 b 388 115 442 264 388 203 b 488 -14 388 39 433 -14 b 506 -44 504 -14 507 -26 b 426 -164 501 -85 478 -111 b 469 -211 400 -189 439 -229 z "},"“":{"ha":696,"x_min":0,"x_max":0,"o":"m 236 1090 b 29 785 96 1006 29 903 b 178 617 29 676 100 617 b 318 764 264 617 318 676 b 218 894 318 840 272 894 b 200 925 201 894 199 907 b 279 1043 204 965 228 992 b 236 1090 306 1069 267 1110 z m 581 1090 b 374 785 440 1006 374 903 b 522 617 374 676 444 617 b 663 764 608 617 663 676 b 563 894 663 840 617 894 b 544 925 546 894 543 907 b 624 1043 549 965 572 992 b 581 1090 650 1069 613 1110 z "},"”":{"ha":699,"x_min":0,"x_max":0,"o":"m 124 596 b 329 903 264 682 329 785 b 182 1071 329 1010 258 1071 b 42 922 96 1071 42 1010 b 142 793 42 846 86 793 b 158 763 158 793 161 781 b 79 643 156 722 131 696 b 124 596 53 618 92 578 z m 468 596 b 674 903 608 682 674 785 b 526 1071 674 1010 603 1071 b 386 922 440 1071 386 1010 b 486 793 386 846 432 793 b 504 763 503 793 506 781 b 424 643 500 722 475 696 b 468 596 399 618 436 578 z "},"‘":{"ha":353,"x_min":0,"x_max":0,"o":"m 236 1088 b 29 781 96 1001 29 899 b 178 613 29 674 100 613 b 318 761 264 613 318 674 b 218 890 318 838 272 890 b 200 921 201 890 199 903 b 279 1040 204 961 228 988 b 236 1088 306 1065 267 1106 z "},"’":{"ha":354,"x_min":0,"x_max":0,"o":"m 124 596 b 331 901 264 681 331 783 b 182 1071 331 1010 260 1071 b 42 922 96 1071 42 1010 b 142 793 42 846 88 793 b 160 763 158 793 161 781 b 79 643 156 721 131 694 b 124 596 54 617 92 576 z "},"«":{"ha":743,"x_min":0,"x_max":0,"o":"m 218 388 b 368 667 310 456 363 574 b 294 682 368 693 311 706 b 53 454 225 585 132 517 b 53 332 32 436 31 353 b 282 139 126 265 206 231 b 365 147 310 106 367 124 b 218 388 360 210 303 319 z m 693 667 b 621 682 694 693 638 706 b 379 454 551 585 458 517 b 379 332 357 436 356 353 b 608 139 453 265 532 231 b 692 147 636 106 693 124 b 544 388 686 210 629 319 b 693 667 636 456 688 574 z "},"»":{"ha":739,"x_min":0,"x_max":0,"o":"m 365 454 b 122 682 286 517 193 585 b 50 667 106 706 49 693 b 200 388 56 574 107 456 b 51 147 115 319 57 210 b 135 139 51 124 107 106 b 365 332 211 231 292 265 b 365 454 388 353 386 436 z m 686 454 b 443 682 607 517 514 585 b 371 667 426 706 369 693 b 521 388 376 574 428 456 b 372 147 436 319 378 210 b 456 139 372 124 428 106 b 686 332 532 231 613 265 b 686 454 708 353 707 436 z "},"‹":{"ha":418,"x_min":0,"x_max":0,"o":"m 218 388 b 368 667 310 456 363 574 b 294 682 368 693 311 706 b 53 454 225 585 132 517 b 53 332 32 436 31 353 b 282 139 126 265 206 231 b 365 147 310 106 367 124 b 218 388 360 210 303 319 z "},"›":{"ha":415,"x_min":0,"x_max":0,"o":"m 363 454 b 122 682 283 517 192 585 b 50 667 106 706 49 693 b 197 394 56 574 106 460 b 51 147 114 326 57 210 b 135 139 51 124 107 104 b 363 332 210 231 289 265 b 363 454 385 353 383 436 z "},"\"":{"ha":644,"x_min":0,"x_max":0,"o":"m 97 576 b 224 576 114 524 203 517 b 283 879 239 628 282 793 b 161 1001 283 964 222 1001 b 39 879 99 1001 39 964 b 97 576 40 793 82 628 z m 421 576 b 546 576 438 524 526 517 b 607 879 563 628 606 793 b 483 1001 607 964 546 1001 b 363 879 422 1001 363 964 b 421 576 364 793 406 628 z "},"'":{"ha":322,"x_min":0,"x_max":0,"o":"m 97 576 b 224 576 114 524 203 517 b 283 879 239 628 282 793 b 161 1001 283 964 222 1001 b 39 879 99 1001 39 964 b 97 576 40 793 82 628 z "}," ":{"ha":272,"x_min":0,"x_max":0,"o":""},"¢":{"ha":758,"x_min":0,"x_max":0,"o":"m 656 394 b 499 310 626 354 581 310 b 285 622 364 310 285 440 b 371 792 285 717 315 790 b 601 586 478 794 464 586 b 703 681 665 586 703 631 b 458 869 703 779 594 856 l 458 971 b 432 1003 458 989 449 1003 l 394 1003 b 367 971 378 1003 367 989 l 367 869 b 46 496 188 851 46 721 b 367 129 46 328 168 154 l 367 32 b 394 -3 367 11 378 -3 l 432 -3 b 458 32 449 -3 458 11 l 458 128 b 719 376 642 146 715 274 b 656 394 721 407 674 415 z "},"¤":{"ha":843,"x_min":0,"x_max":0,"o":"m 690 308 b 750 481 728 357 750 417 b 689 651 750 544 728 604 l 764 726 b 767 771 778 742 779 760 l 736 803 b 690 799 724 815 706 814 l 610 718 b 417 768 557 750 492 768 b 233 721 346 768 283 750 l 156 799 b 110 803 140 814 122 815 l 79 771 b 82 726 67 760 68 742 l 156 653 b 94 481 117 606 94 546 b 154 307 94 415 115 356 l 82 235 b 79 190 68 219 67 201 l 110 158 b 156 163 122 146 140 147 l 231 239 b 417 190 282 207 344 190 b 613 242 493 190 560 208 l 690 163 b 736 158 706 147 724 146 l 767 190 b 764 235 779 201 778 219 z m 424 325 b 272 481 332 325 272 390 b 424 632 272 568 332 632 b 572 481 515 632 572 568 b 424 325 572 390 515 325 z "},"$":{"ha":804,"x_min":0,"x_max":0,"o":"m 763 288 b 324 792 763 649 324 507 b 401 907 324 864 351 907 b 625 667 503 907 475 667 b 736 785 694 667 736 714 b 446 979 736 881 628 965 l 446 1057 b 419 1090 446 1076 435 1090 l 379 1090 b 353 1057 363 1090 353 1076 l 353 981 b 51 696 172 967 51 851 b 500 199 51 353 500 439 b 411 74 500 114 465 74 b 151 313 313 74 319 313 b 44 193 97 313 44 275 b 340 -10 44 99 154 4 l 340 -143 b 367 -178 340 -164 350 -178 l 406 -178 b 432 -143 422 -178 432 -164 l 432 -11 b 763 288 639 1 763 121 z "},"€":{"ha":979,"x_min":0,"x_max":0,"o":"m 853 293 b 633 214 789 242 713 214 b 428 383 547 214 471 269 l 675 383 b 708 408 694 383 708 393 l 708 443 b 675 468 708 457 694 468 l 404 468 b 394 536 400 489 396 513 l 718 536 b 750 558 736 536 750 544 l 750 596 b 718 619 750 610 736 619 l 390 619 b 542 890 390 783 454 890 b 821 692 700 890 661 692 b 926 796 890 692 926 746 b 590 989 926 921 769 989 b 160 619 382 989 206 847 l 68 619 b 36 596 50 619 36 610 l 36 558 b 68 536 36 544 50 536 l 149 536 b 147 497 147 524 147 510 l 147 468 l 68 468 b 36 443 50 468 36 457 l 36 408 b 68 383 36 393 50 383 l 157 383 b 592 -11 196 172 344 -11 b 926 254 799 -11 919 139 b 853 293 929 300 883 315 z "},"£":{"ha":951,"x_min":0,"x_max":0,"o":"m 844 243 b 632 163 824 207 731 163 b 471 190 575 163 522 175 b 488 285 482 224 488 256 b 476 397 488 326 483 363 l 654 397 b 688 419 678 397 688 406 l 688 481 b 654 504 688 494 678 504 l 449 504 b 404 751 426 575 404 649 b 506 914 404 849 442 914 b 753 714 636 914 582 714 b 857 818 821 714 857 768 b 526 1013 857 946 700 1013 b 146 724 308 1013 146 910 b 228 504 146 635 186 569 l 100 504 b 67 481 81 504 67 494 l 67 419 b 100 397 67 406 81 397 l 288 397 b 314 276 303 361 314 322 b 313 240 314 264 314 251 b 206 256 278 250 242 256 b 53 122 113 256 53 199 b 201 -14 53 49 100 -14 b 381 50 276 -14 335 13 b 597 -22 442 13 515 -22 b 915 226 813 -22 910 111 b 844 243 915 267 865 274 z m 196 65 b 138 115 164 65 138 85 b 188 160 138 146 157 160 b 281 118 213 160 244 142 b 196 65 260 85 232 65 z "},"¥":{"ha":1022,"x_min":0,"x_max":0,"o":"m 958 986 l 753 986 b 719 960 732 986 719 976 l 719 954 b 779 835 719 915 814 899 l 596 501 l 411 835 b 471 954 378 894 471 915 l 471 960 b 436 986 471 976 457 986 l 61 986 b 28 960 42 986 28 976 l 28 954 b 122 835 28 915 81 903 l 346 475 l 188 475 b 156 451 168 475 156 465 l 156 414 b 188 392 156 400 168 392 l 399 392 l 404 382 l 404 322 l 210 322 b 176 299 190 322 176 313 l 176 264 b 210 240 176 249 190 240 l 404 240 l 404 151 b 349 32 404 88 349 71 l 349 26 b 382 0 349 10 363 0 l 688 0 b 721 26 707 0 721 10 l 721 32 b 660 151 721 71 660 88 l 660 240 l 819 240 b 853 264 839 240 853 249 l 853 299 b 819 322 853 313 839 322 l 660 322 l 660 392 l 840 392 b 874 414 860 392 874 400 l 874 451 b 840 475 874 465 860 475 l 699 475 l 900 835 b 992 954 940 908 992 915 l 992 960 b 958 986 992 976 979 986 z "},"+":{"ha":833,"x_min":0,"x_max":0,"o":"m 365 85 l 468 85 b 493 121 482 85 493 99 l 493 333 l 704 333 b 739 357 725 333 739 342 l 739 458 b 704 483 740 472 725 483 l 492 482 l 492 693 b 467 729 492 715 482 729 l 365 729 b 342 693 351 729 342 715 l 342 482 l 131 482 b 96 457 110 482 96 472 l 94 357 b 131 332 96 343 110 332 l 342 332 l 342 121 b 365 85 342 99 351 85 z "},"−":{"ha":833,"x_min":0,"x_max":0,"o":"m 142 329 l 693 329 b 725 354 711 329 725 339 l 725 458 b 693 485 725 474 711 485 l 142 485 b 110 458 124 485 110 474 l 110 354 b 142 329 110 339 124 329 z "},"×":{"ha":833,"x_min":0,"x_max":0,"o":"m 225 144 b 267 151 236 133 251 136 l 417 300 l 567 151 b 608 144 582 136 597 132 l 679 215 b 674 257 692 225 689 242 l 524 408 l 672 557 b 679 599 688 572 692 588 l 608 669 b 567 664 599 682 582 679 l 417 514 l 267 663 b 225 669 251 678 236 681 l 154 599 b 161 557 143 588 146 572 l 310 407 l 161 257 b 154 215 146 242 143 226 z "},"÷":{"ha":833,"x_min":0,"x_max":0,"o":"m 415 574 b 560 703 501 574 560 631 b 415 831 560 774 501 831 b 269 703 328 831 269 774 b 415 574 269 631 328 574 z m 142 329 l 693 329 b 725 354 711 329 725 339 l 725 458 b 693 485 725 474 711 485 l 142 485 b 110 458 124 485 110 474 l 110 354 b 142 329 110 339 124 329 z m 415 -14 b 560 115 501 -14 560 43 b 415 243 560 186 501 243 b 269 115 328 243 269 186 b 415 -14 269 43 328 -14 z "},"=":{"ha":833,"x_min":0,"x_max":0,"o":"m 140 454 l 692 454 b 724 479 710 454 724 464 l 724 583 b 692 610 724 599 710 610 l 140 610 b 108 583 122 610 108 599 l 108 479 b 140 454 108 464 122 454 z m 140 186 l 692 186 b 724 211 710 186 724 196 l 724 315 b 692 340 724 329 710 340 l 140 340 b 108 315 122 340 108 329 l 108 211 b 140 186 108 196 122 186 z "},"≠":{"ha":833,"x_min":0,"x_max":0,"o":"m 692 454 b 724 479 710 454 724 464 l 724 583 b 692 610 724 599 710 610 l 597 610 l 650 711 b 642 746 658 725 656 739 l 603 764 b 567 749 590 771 574 764 l 494 610 l 140 610 b 108 583 122 610 108 599 l 108 479 b 140 454 108 464 122 454 l 413 454 l 354 340 l 140 340 b 108 315 122 340 108 329 l 108 211 b 140 186 108 196 122 186 l 274 186 l 210 64 b 219 29 203 50 207 35 l 263 8 b 292 19 274 4 286 7 l 378 186 l 692 186 b 724 211 710 186 724 196 l 724 315 b 692 340 724 329 710 340 l 458 340 l 517 454 z "},">":{"ha":833,"x_min":0,"x_max":0,"o":"m 644 513 l 219 699 b 178 678 192 711 178 692 l 178 542 b 210 506 178 525 190 513 l 551 385 l 208 238 b 176 201 189 229 176 217 l 176 60 b 219 42 176 46 190 28 l 647 260 b 682 310 671 271 682 285 l 682 464 b 644 513 682 490 669 503 z "},"<":{"ha":833,"x_min":0,"x_max":0,"o":"m 657 543 l 657 678 b 614 699 657 692 643 711 l 188 513 b 151 464 164 503 151 490 l 151 311 b 186 263 151 288 163 274 l 614 44 b 657 63 643 29 657 49 l 657 204 b 625 240 657 219 644 232 l 294 388 l 624 508 b 657 543 644 514 657 528 z "},"±":{"ha":833,"x_min":0,"x_max":0,"o":"m 365 225 l 468 225 b 493 258 481 224 493 238 l 493 471 l 704 471 b 739 496 725 471 739 479 l 739 597 b 704 622 739 613 725 622 l 492 621 l 492 832 b 467 867 492 854 481 867 l 365 868 b 342 832 353 867 342 854 l 342 621 l 131 621 b 96 596 110 621 96 613 l 94 496 b 131 471 96 482 110 471 l 342 471 l 342 258 b 365 225 342 238 350 225 z m 131 0 l 704 0 b 739 22 725 0 739 8 l 739 125 b 704 150 739 139 725 150 l 131 150 b 96 125 110 150 96 139 l 96 22 b 131 0 96 8 110 0 z "},"≈":{"ha":833,"x_min":0,"x_max":0,"o":"m 271 681 b 81 485 142 681 89 565 b 103 453 79 465 88 453 l 131 453 b 172 478 156 453 163 461 b 261 522 192 508 225 522 b 558 438 361 522 435 438 b 761 633 658 438 740 504 b 739 664 764 651 757 664 l 703 664 b 665 643 685 664 675 656 b 569 600 650 621 617 600 b 271 681 474 600 385 681 z m 268 381 b 79 185 139 381 86 265 b 100 153 76 164 85 153 l 128 153 b 171 178 154 153 160 161 b 260 222 190 208 222 222 b 556 138 358 222 432 138 b 760 333 657 138 739 204 b 736 364 763 351 756 364 l 700 364 b 664 342 682 364 674 354 b 568 300 647 319 614 300 b 268 381 471 300 382 381 z "},"~":{"ha":833,"x_min":0,"x_max":0,"o":"m 271 554 b 82 358 142 554 89 438 b 103 325 79 338 88 325 l 131 325 b 174 351 157 325 163 333 b 263 396 193 381 225 396 b 558 311 361 396 435 311 b 763 507 660 311 742 376 b 739 536 765 524 758 536 l 703 536 b 667 515 685 536 676 528 b 571 472 650 493 617 472 b 271 554 474 472 385 554 z "},"^":{"ha":833,"x_min":0,"x_max":0,"o":"m 667 782 l 497 999 b 432 1025 481 1021 458 1025 l 383 1025 b 318 997 357 1025 336 1024 l 165 782 b 217 711 125 726 188 688 l 401 865 l 610 711 b 667 782 663 674 706 735 z "},"%":{"ha":1249,"x_min":0,"x_max":0,"o":"m 297 474 b 561 733 436 474 561 575 b 296 1000 561 890 440 1000 b 33 735 140 1000 33 892 b 297 474 33 576 154 474 z m 328 0 l 413 0 b 447 21 429 0 440 6 l 931 950 b 910 986 942 969 932 986 l 821 986 b 793 965 806 986 801 979 l 307 36 b 328 0 296 17 304 0 z m 321 533 b 200 814 247 533 200 690 b 261 939 200 879 215 939 b 382 650 335 939 382 764 b 321 533 382 586 365 533 z m 951 -14 b 1215 246 1090 -14 1215 88 b 950 513 1215 404 1094 513 b 688 247 794 513 688 404 b 951 -14 688 89 808 -14 z m 975 46 b 854 328 901 46 854 203 b 915 451 854 392 869 451 b 1036 163 989 451 1036 276 b 975 46 1036 99 1019 46 z "},"‰":{"ha":1810,"x_min":0,"x_max":0,"o":"m 297 474 b 561 733 436 474 561 575 b 296 1000 561 890 440 1000 b 33 735 140 1000 33 892 b 297 474 33 576 154 474 z m 328 0 l 413 0 b 447 21 429 0 440 6 l 931 950 b 910 986 942 969 932 986 l 821 986 b 793 965 806 986 801 979 l 307 36 b 328 0 296 17 304 0 z m 321 533 b 200 814 247 533 200 690 b 261 939 200 879 215 939 b 382 650 335 939 382 764 b 321 533 382 586 365 533 z m 951 -14 b 1215 246 1090 -14 1215 88 b 950 513 1215 404 1094 513 b 688 247 794 513 688 404 b 951 -14 688 89 808 -14 z m 1515 -14 b 1776 246 1653 -14 1776 88 b 1514 513 1776 404 1658 513 b 1253 247 1357 513 1253 404 b 1515 -14 1253 89 1372 -14 z m 975 46 b 854 328 901 46 854 203 b 915 451 854 392 869 451 b 1036 163 989 451 1036 276 b 975 46 1036 99 1019 46 z m 1539 46 b 1415 328 1465 46 1415 203 b 1478 451 1415 392 1433 451 b 1601 163 1553 451 1601 276 b 1539 46 1601 99 1583 46 z "},"":{"ha":2015,"x_min":0,"x_max":0,"o":"m 960 810 b 1044 725 960 763 997 725 b 1131 810 1093 725 1131 763 b 1044 896 1131 858 1093 896 b 960 810 997 896 960 858 z m 304 375 b 290 811 303 618 290 811 l 151 811 b 139 375 151 811 139 618 z m 964 375 l 1128 375 b 1114 707 1128 618 1114 707 l 867 707 l 865 731 l 700 689 l 700 579 l 731 579 b 725 458 731 568 725 493 b 842 367 725 399 764 367 b 933 388 919 367 933 388 l 933 490 b 908 483 933 490 928 483 b 888 489 893 483 888 489 l 883 579 l 968 579 b 964 375 965 528 964 461 z m 456 368 b 560 460 522 368 549 403 l 571 375 l 686 375 l 686 551 b 518 714 685 654 632 714 b 328 525 383 714 328 644 b 456 368 328 418 376 368 z m 1514 375 l 1510 567 b 1404 714 1507 671 1481 714 b 1292 601 1306 714 1292 611 b 1283 707 1292 644 1283 707 l 1172 707 b 1158 375 1172 707 1158 618 l 1317 375 b 1313 508 1317 440 1313 472 b 1338 544 1313 533 1319 544 b 1358 508 1354 544 1358 533 b 1356 375 1358 472 1356 440 z m 1876 533 b 1706 714 1876 631 1847 714 b 1536 533 1572 714 1536 631 b 1704 368 1536 440 1588 368 b 1876 533 1824 368 1876 436 z m 542 521 b 510 479 542 494 529 479 b 478 521 488 479 478 494 b 510 557 478 547 488 557 b 542 521 529 557 542 547 z m 1738 521 b 1706 479 1738 494 1725 479 b 1676 521 1686 479 1676 494 b 1706 557 1676 547 1686 557 b 1738 521 1725 557 1738 547 z m 594 331 l 594 165 b 571 128 594 138 589 128 b 551 165 556 128 551 138 l 551 331 l 306 332 l 307 356 l 144 315 l 144 204 l 169 204 b 165 82 168 185 165 118 b 279 -7 165 25 200 -7 b 372 14 358 -7 372 14 l 372 115 b 347 108 372 115 367 108 b 326 114 332 108 326 114 l 322 204 l 399 204 l 399 186 b 524 71 399 107 442 71 b 592 86 574 71 592 86 b 515 47 592 86 590 47 b 419 69 447 47 419 69 l 419 -46 b 546 -69 419 -46 447 -69 b 753 126 693 -69 753 -8 b 739 331 753 247 739 331 z m 1018 338 b 907 225 926 338 908 235 b 897 331 907 258 897 331 l 789 331 b 775 -61 789 331 775 176 l 940 -61 b 939 -7 940 -25 939 -7 b 1129 182 1068 -7 1129 56 b 1018 338 1129 283 1086 338 z m 1486 179 b 1326 338 1486 279 1426 338 b 1151 156 1214 338 1151 275 b 1347 -7 1151 56 1217 -7 b 1456 15 1428 -7 1456 15 l 1456 119 b 1378 103 1456 119 1429 103 b 1310 128 1322 103 1310 128 l 1482 128 b 1486 179 1482 128 1486 144 z m 1358 151 l 1303 151 b 1335 189 1303 176 1315 189 b 1358 151 1353 189 1361 176 z m 931 100 b 924 139 931 100 924 118 b 954 183 924 172 935 183 b 982 153 971 183 982 172 b 931 100 982 103 931 100 z m 1493 18 b 1525 49 1493 36 1507 49 b 1556 18 1542 49 1556 36 b 1525 -14 1556 0 1542 -14 b 1493 18 1507 -14 1493 0 z m 1500 18 b 1525 -7 1500 4 1511 -7 b 1549 18 1538 -7 1549 4 b 1525 43 1549 32 1538 43 b 1500 18 1511 43 1500 32 z m 1539 3 l 1531 3 l 1525 15 l 1518 15 l 1518 3 l 1511 3 l 1511 35 l 1526 35 b 1540 25 1535 35 1540 33 b 1531 15 1540 18 1536 15 z m 1526 21 b 1533 26 1531 21 1533 22 b 1525 29 1533 29 1528 29 l 1518 29 l 1518 21 z "},"@":{"ha":1260,"x_min":0,"x_max":0,"o":"m 678 1019 b 33 426 268 1019 33 714 b 550 -75 33 150 254 -75 b 768 -35 636 -75 710 -60 b 804 3 785 -26 797 -18 l 817 36 b 788 69 826 63 818 82 b 571 28 711 42 639 28 b 179 424 340 28 179 190 b 649 914 179 701 407 914 b 1104 525 913 914 1104 782 b 961 294 1104 403 1056 294 b 907 389 917 294 896 331 l 968 707 b 943 738 972 726 961 738 l 821 738 b 792 713 804 738 794 731 l 789 699 b 646 753 754 733 706 753 b 322 425 475 753 322 638 b 558 189 322 271 443 189 b 743 281 649 189 707 228 b 926 190 781 225 853 190 b 1251 526 1142 190 1251 363 b 678 1019 1251 810 1015 1019 z m 610 257 b 550 374 572 257 547 299 b 703 686 558 554 633 686 b 753 557 744 686 760 639 l 719 388 b 718 381 719 385 718 383 b 610 257 703 311 653 257 z "},"&":{"ha":1060,"x_min":0,"x_max":0,"o":"m 1018 133 l 982 133 b 851 226 956 133 918 158 b 961 617 925 342 961 483 b 804 618 961 699 804 697 b 751 329 804 507 785 410 l 543 546 b 754 785 636 581 754 654 b 468 999 754 865 696 999 b 156 751 257 999 156 886 b 254 529 156 665 197 597 b 40 256 153 475 40 386 b 425 -14 40 96 167 -14 b 689 60 528 -14 615 14 b 875 -14 735 15 783 -14 b 1057 94 971 -14 1057 50 l 1057 104 b 1018 133 1057 125 1042 133 z m 458 911 b 538 789 522 911 538 851 b 461 635 538 739 511 674 b 390 818 415 689 390 742 b 458 911 390 869 415 911 z m 301 247 b 351 422 301 315 321 376 l 617 136 b 468 76 568 97 517 76 b 301 247 350 76 301 158 z "},"¶":{"ha":989,"x_min":0,"x_max":0,"o":"m 532 -310 b 871 111 726 -306 871 -160 l 872 833 b 935 954 872 899 935 913 l 935 958 b 901 986 935 976 921 986 l 346 986 b 33 657 174 986 33 854 b 346 311 33 447 174 310 l 510 313 b 539 342 528 313 539 324 l 539 879 l 653 879 l 653 -10 b 546 -212 653 -183 604 -212 b 285 67 407 -212 472 67 b 172 -57 217 67 172 17 b 532 -310 172 -156 299 -314 z "},"§":{"ha":903,"x_min":0,"x_max":0,"o":"m 756 218 b 854 397 818 269 854 339 b 319 886 854 765 319 596 b 429 992 319 946 360 992 b 732 725 589 992 553 725 b 846 836 807 725 846 769 b 440 1088 846 972 667 1088 b 74 813 231 1088 74 979 b 157 631 74 728 107 671 b 56 450 106 596 57 528 b 600 -26 50 85 600 208 b 485 -117 600 -79 557 -117 b 157 135 276 -117 306 135 b 43 26 81 135 43 92 b 474 -214 43 -119 211 -214 b 846 49 696 -214 846 -100 b 756 218 846 128 810 179 z m 294 493 b 317 551 294 513 301 533 b 619 357 463 503 619 481 b 600 289 619 331 614 311 b 294 493 453 338 294 368 z "},"©":{"ha":1207,"x_min":0,"x_max":0,"o":"m 604 -85 b 1165 476 914 -85 1165 167 b 604 1036 1165 785 913 1036 b 42 476 294 1036 42 786 b 604 -85 42 167 294 -85 z m 604 25 b 181 476 368 25 181 228 b 604 926 181 724 369 926 b 1026 476 839 926 1026 724 b 604 25 1026 229 839 25 z m 610 163 b 893 385 781 163 890 258 b 839 404 894 415 857 426 b 694 336 811 365 764 336 b 506 557 568 336 506 429 b 594 718 506 651 532 718 b 796 514 696 718 661 514 b 894 592 858 514 894 553 b 614 788 894 700 761 786 b 289 478 426 789 289 653 b 610 163 289 310 426 163 z "},"®":{"ha":1207,"x_min":0,"x_max":0,"o":"m 604 1036 b 42 476 294 1036 42 786 b 604 -86 42 167 294 -86 b 1165 476 914 -86 1165 167 b 604 1036 1165 785 913 1036 z m 604 26 b 181 476 368 26 181 228 b 604 926 181 724 369 926 b 1026 476 839 926 1026 724 b 604 26 1026 229 839 26 z m 844 306 l 764 446 b 875 600 839 479 876 542 b 604 783 875 721 775 783 l 368 783 b 349 767 357 783 349 778 l 349 764 b 382 693 349 740 382 731 l 382 307 b 349 238 382 271 349 260 l 349 222 b 368 206 349 213 357 206 l 574 206 b 593 222 586 206 593 213 l 593 238 b 557 307 593 260 557 271 l 557 421 l 607 422 l 667 306 b 651 236 692 256 651 260 l 651 222 b 669 206 651 213 658 206 l 881 206 b 900 226 893 206 900 217 l 900 236 b 844 306 900 260 874 250 z m 557 532 l 557 678 b 590 719 557 701 571 719 l 604 719 b 675 585 647 719 675 667 b 613 485 675 521 644 485 l 596 485 b 557 532 569 485 557 501 z "},"™":{"ha":1092,"x_min":0,"x_max":0,"o":"m 457 856 l 444 965 b 424 985 443 979 436 985 l 74 985 b 51 965 60 985 53 979 l 39 856 b 56 838 38 846 43 838 l 68 838 b 147 915 96 838 104 915 l 179 915 l 179 610 b 150 554 179 581 150 572 l 150 551 b 165 539 150 544 156 539 l 333 539 b 347 551 342 539 347 544 l 347 554 b 318 610 347 572 318 581 l 318 915 l 349 915 b 429 838 392 915 400 838 l 442 838 b 457 856 451 838 458 846 z m 1014 610 l 956 914 b 981 969 950 943 981 951 l 981 974 b 965 985 981 982 974 985 l 829 985 b 796 963 813 985 800 978 l 733 771 l 668 963 b 635 985 663 979 651 985 l 503 985 b 489 974 493 985 489 981 l 489 971 b 513 915 489 953 517 944 l 467 610 b 439 554 463 581 439 572 l 439 551 b 456 539 439 544 446 539 l 575 539 b 590 551 585 539 590 544 l 590 554 b 567 610 590 572 563 581 l 594 800 l 690 558 b 717 539 694 546 704 539 b 742 558 731 539 738 546 l 835 819 l 871 610 b 849 554 876 582 849 572 l 849 551 b 864 539 849 544 854 539 l 1025 539 b 1040 551 1033 539 1040 544 l 1040 554 b 1014 610 1040 572 1018 581 z "},"°":{"ha":569,"x_min":0,"x_max":0,"o":"m 283 525 b 539 765 436 525 539 632 b 285 994 539 892 438 994 b 29 754 132 994 29 886 b 283 525 29 628 131 525 z m 285 592 b 176 761 219 592 176 665 b 285 924 176 853 219 924 b 392 761 349 924 392 853 b 285 592 392 665 349 592 z "},"|":{"ha":340,"x_min":0,"x_max":0,"o":"m 117 -125 l 222 -125 b 249 -92 236 -126 249 -112 l 247 954 b 221 986 247 974 236 986 l 118 988 b 92 954 103 986 92 974 l 92 -92 b 117 -125 92 -112 101 -125 z "},"¦":{"ha":340,"x_min":0,"x_max":0,"o":"m 117 501 l 222 501 b 249 533 236 500 249 514 l 247 953 b 221 986 247 974 236 986 l 118 986 b 92 953 103 985 92 972 l 92 533 b 117 501 92 514 101 501 z m 117 -125 l 222 -125 b 249 -92 236 -126 249 -112 l 247 332 b 221 365 247 353 236 365 l 118 365 b 92 332 103 364 92 351 l 92 -92 b 117 -125 92 -112 101 -125 z "},"†":{"ha":800,"x_min":0,"x_max":0,"o":"m 707 746 l 442 714 l 486 1060 b 307 1060 501 1169 294 1172 l 353 714 l 86 746 b 86 596 6 754 7 586 l 357 628 l 326 -60 b 465 -60 324 -143 469 -147 l 438 628 l 707 596 b 707 746 794 585 796 756 z "},"‡":{"ha":815,"x_min":0,"x_max":0,"o":"m 714 442 l 454 411 l 444 628 l 714 596 b 714 746 800 585 803 756 l 449 714 l 494 1060 b 315 1060 508 1169 301 1172 l 361 714 l 96 746 b 96 596 17 754 17 586 l 365 628 l 356 411 l 96 442 b 96 292 17 451 17 282 l 351 322 l 335 -60 b 474 -60 332 -143 476 -147 l 457 322 l 714 292 b 714 442 800 281 803 453 z "},"̈":{"ha":0,"x_min":0,"x_max":0,"o":"m -599 756 b -457 882 -512 756 -457 811 b -599 1007 -457 953 -512 1007 b -742 882 -683 1007 -742 953 b -599 756 -742 811 -683 756 z m -251 756 b -110 882 -167 756 -110 811 b -251 1007 -110 953 -167 1007 b -394 882 -337 1007 -394 953 b -251 756 -394 811 -337 756 z "},"̇":{"ha":0,"x_min":0,"x_max":0,"o":"m -214 749 b -56 888 -119 749 -56 810 b -214 1026 -56 967 -119 1026 b -372 888 -308 1026 -372 967 b -214 749 -372 810 -308 749 z "},"̀":{"ha":0,"x_min":0,"x_max":0,"o":"m -353 750 b -296 768 -329 744 -307 750 b -304 825 -283 788 -289 813 l -543 1013 b -625 996 -578 1040 -608 1029 l -671 901 b -639 826 -687 868 -678 836 z "},"́":{"ha":0,"x_min":0,"x_max":0,"o":"m -560 750 l -274 826 b -242 901 -235 836 -225 868 l -286 996 b -369 1013 -303 1029 -335 1040 l -607 825 b -617 768 -624 813 -629 789 b -560 750 -606 750 -582 744 z "},"̋":{"ha":0,"x_min":0,"x_max":0,"o":"m -701 738 b -656 742 -689 726 -674 729 l -422 915 b -424 999 -389 938 -393 971 l -474 1044 b -554 1029 -501 1072 -532 1067 l -699 783 b -701 738 -710 764 -712 747 z m -404 738 b -358 742 -392 726 -375 729 l -125 915 b -126 997 -93 938 -96 971 l -175 1044 b -256 1029 -204 1072 -233 1067 l -401 783 b -404 738 -412 764 -415 749 z "},"̂":{"ha":0,"x_min":0,"x_max":0,"o":"m -33 818 l -203 976 b -268 1003 -222 996 -242 1003 l -317 1003 b -382 975 -343 1003 -362 997 l -535 818 b -483 747 -582 768 -518 728 l -299 847 l -90 747 b -33 818 -32 718 10 775 z "},"̌":{"ha":0,"x_min":0,"x_max":0,"o":"m -86 990 l -281 888 l -479 990 b -529 929 -508 1004 -558 961 l -381 775 b -315 747 -361 754 -342 747 l -260 747 b -194 774 -233 747 -215 754 l -36 929 b -86 990 -10 956 -53 1007 z "},"̆":{"ha":0,"x_min":0,"x_max":0,"o":"m -322 749 b -79 939 -182 749 -93 835 b -161 968 -75 981 -146 992 b -322 894 -183 924 -250 894 b -485 968 -393 894 -462 924 b -567 939 -501 994 -572 986 b -322 749 -553 835 -458 749 z "},"̊":{"ha":0,"x_min":0,"x_max":0,"o":"m -507 729 b -299 892 -379 729 -299 794 b -506 1040 -299 979 -387 1040 b -712 881 -628 1040 -712 979 b -507 729 -712 796 -625 729 z m -506 796 b -571 886 -542 796 -571 831 b -506 971 -571 953 -542 971 b -440 886 -469 971 -440 942 b -506 796 -440 819 -469 796 z "},"̃":{"ha":0,"x_min":0,"x_max":0,"o":"m -581 994 b -744 833 -668 994 -728 918 b -724 801 -749 813 -739 801 l -707 801 b -671 826 -685 801 -685 810 b -617 854 -656 844 -639 854 b -392 785 -547 854 -481 785 b -232 946 -308 785 -251 858 b -254 978 -228 967 -235 978 l -264 978 b -299 958 -282 978 -290 971 b -361 928 -312 939 -326 928 b -581 994 -421 928 -482 994 z "},"̄":{"ha":0,"x_min":0,"x_max":0,"o":"m -606 792 l -212 792 b -179 825 -190 792 -179 804 l -179 908 b -212 942 -179 931 -190 942 l -606 942 b -639 908 -626 942 -639 931 l -639 825 b -606 792 -639 804 -626 792 z "},"̒":{"ha":0,"x_min":0,"x_max":0,"o":"m -251 435 b -61 717 -122 514 -61 608 b -197 872 -61 817 -126 872 b -326 735 -276 872 -326 817 b -235 617 -326 665 -285 617 b -218 588 -219 617 -217 604 b -292 478 -221 550 -244 526 b -251 435 -315 454 -281 418 z "},"̦":{"ha":0,"x_min":0,"x_max":0,"o":"m -308 -460 b -126 -190 -185 -385 -126 -294 b -257 -42 -126 -94 -189 -42 b -381 -172 -333 -42 -381 -94 b -293 -286 -381 -239 -340 -286 b -276 -314 -278 -286 -275 -297 b -347 -418 -281 -349 -301 -372 b -308 -460 -369 -442 -336 -476 z "},"̧":{"ha":0,"x_min":0,"x_max":0,"o":"m -347 -71 l -344 0 l -442 0 l -460 -90 b -424 -132 -465 -122 -447 -132 b -342 -179 -393 -132 -342 -142 b -412 -231 -342 -214 -375 -231 b -493 -214 -439 -231 -475 -224 b -496 -294 -522 -199 -536 -275 b -374 -314 -474 -304 -433 -314 b -171 -189 -268 -314 -171 -275 b -347 -71 -171 -101 -262 -68 z "},"̨":{"ha":0,"x_min":0,"x_max":0,"o":"m -337 -317 b -261 -304 -307 -317 -275 -311 b -271 -215 -211 -285 -225 -200 b -294 -219 -281 -218 -286 -219 b -335 -157 -315 -219 -336 -204 b -262 4 -335 -118 -312 -57 l -351 4 b -507 -189 -464 -57 -507 -121 b -337 -317 -507 -287 -412 -317 z "},"̵":{"ha":0,"x_min":0,"x_max":0,"o":"m -543 356 l -101 356 b -76 383 -87 356 -76 364 l -76 425 b -101 450 -76 439 -87 450 l -543 450 b -567 425 -557 450 -567 443 l -567 379 b -543 356 -567 360 -557 356 z "},"̶":{"ha":0,"x_min":0,"x_max":0,"o":"m -962 356 l 50 356 b 85 383 69 356 85 367 l 85 421 b 50 447 85 438 69 447 l -962 447 b -996 421 -981 447 -996 438 l -996 383 b -962 356 -996 367 -981 356 z "},"̷":{"ha":0,"x_min":0,"x_max":0,"o":"m -636 199 l -190 486 b -181 521 -176 497 -175 511 l -210 567 b -250 572 -217 579 -233 583 l -689 286 b -699 251 -703 276 -708 267 l -668 204 b -636 199 -661 194 -650 189 z "},"̸":{"ha":0,"x_min":0,"x_max":0,"o":"m -771 17 b -740 17 -762 8 -751 8 l -74 658 b -71 694 -62 671 -61 685 l -101 725 b -142 722 -112 735 -129 733 l -803 86 b -806 50 -815 75 -817 60 z "},"´":{"ha":779,"x_min":0,"x_max":0,"o":"m 225 750 l 511 826 b 543 901 550 836 560 868 l 499 996 b 415 1013 482 1029 450 1040 l 178 825 b 168 768 161 813 156 789 b 225 750 179 750 203 744 z "},"˘":{"ha":833,"x_min":0,"x_max":0,"o":"m 299 749 b 542 939 439 749 528 835 b 460 968 546 981 475 992 b 299 894 438 924 371 894 b 136 968 228 894 158 924 b 54 939 119 994 49 986 b 299 749 68 835 163 749 z "},"ˇ":{"ha":833,"x_min":0,"x_max":0,"o":"m 479 990 l 285 888 l 86 990 b 36 929 57 1004 7 961 l 185 775 b 250 747 204 754 224 747 l 306 747 b 371 774 332 747 350 754 l 529 929 b 479 990 556 956 513 1007 z "},"¸":{"ha":833,"x_min":0,"x_max":0,"o":"m 486 -71 l 489 0 l 392 0 l 374 -90 b 410 -132 368 -122 386 -132 b 492 -179 440 -132 492 -142 b 421 -231 492 -214 458 -231 b 340 -214 394 -231 358 -224 b 338 -294 311 -199 297 -275 b 460 -314 360 -304 400 -314 b 663 -189 565 -314 663 -275 b 486 -71 663 -101 571 -68 z "},"ˆ":{"ha":833,"x_min":0,"x_max":0,"o":"m 533 818 l 364 976 b 299 1003 344 996 325 1003 l 250 1003 b 185 975 224 1003 204 997 l 32 818 b 83 747 -15 768 49 728 l 268 847 l 476 747 b 533 818 535 718 576 775 z "},"¨":{"ha":833,"x_min":0,"x_max":0,"o":"m 235 756 b 376 882 321 756 376 811 b 235 1007 376 953 321 1007 b 92 882 150 1007 92 953 b 235 756 92 811 150 756 z m 582 756 b 724 882 667 756 724 811 b 582 1007 724 953 667 1007 b 439 882 496 1007 439 953 b 582 756 439 811 496 756 z "},"˙":{"ha":833,"x_min":0,"x_max":0,"o":"m 210 749 b 368 888 304 749 368 810 b 210 1026 368 967 304 1026 b 51 888 115 1026 51 967 b 210 749 51 810 115 749 z "},"`":{"ha":833,"x_min":0,"x_max":0,"o":"m 481 750 b 538 768 504 744 526 750 b 529 825 550 788 544 813 l 290 1013 b 208 996 256 1040 225 1029 l 163 901 b 194 826 146 868 156 836 z "},"˝":{"ha":833,"x_min":0,"x_max":0,"o":"m 92 738 b 138 742 104 726 119 729 l 371 915 b 369 999 404 938 400 971 l 319 1044 b 239 1029 292 1072 261 1067 l 94 783 b 92 738 83 764 81 747 z m 389 738 b 435 742 401 726 418 729 l 668 915 b 667 997 700 938 697 971 l 618 1044 b 538 1029 589 1072 560 1067 l 392 783 b 389 738 381 764 378 749 z "},"¯":{"ha":833,"x_min":0,"x_max":0,"o":"m 228 804 l 621 804 b 654 838 643 804 654 815 l 654 921 b 621 954 654 943 643 954 l 228 954 b 194 921 207 954 194 943 l 194 838 b 228 804 194 815 207 804 z "},"˛":{"ha":833,"x_min":0,"x_max":0,"o":"m 496 -317 b 572 -304 526 -317 558 -311 b 563 -215 622 -285 608 -200 b 539 -219 553 -218 547 -219 b 499 -157 518 -219 497 -204 b 571 4 499 -118 521 -57 l 482 4 b 326 -189 369 -57 326 -121 b 496 -317 326 -287 421 -317 z "},"˚":{"ha":833,"x_min":0,"x_max":0,"o":"m 294 729 b 503 892 422 729 503 794 b 296 1040 503 979 414 1040 b 89 881 174 1040 89 979 b 294 729 89 796 176 729 z m 296 796 b 231 886 260 796 231 831 b 296 971 231 953 260 971 b 361 886 332 971 361 942 b 296 796 361 819 332 796 z "},"˜":{"ha":833,"x_min":0,"x_max":0,"o":"m 253 994 b 89 833 165 994 106 918 b 110 801 85 813 94 801 l 126 801 b 163 826 149 801 149 810 b 217 854 178 844 194 854 b 442 785 286 854 353 785 b 601 946 525 785 582 858 b 579 978 606 967 599 978 l 569 978 b 535 958 551 978 543 971 b 472 928 521 939 507 928 b 253 994 413 928 351 994 z "}}}
